<?xml version="1.0" encoding="UTF-8"?>
<svg version="1.1" xmlns="http://www.w3.org/2000/svg" width="200" height="200">
<path d="M0 0 C66 0 132 0 200 0 C200 66 200 132 200 200 C134 200 68 200 0 200 C0 134 0 68 0 0 Z " fill="#FFFFFF" transform="translate(0,0)"/>
<path d="M0 0 C66 0 132 0 200 0 C200 23.76 200 47.52 200 72 C134 72 68 72 0 72 C0 48.24 0 24.48 0 0 Z " fill="#FFFFFF" transform="translate(0,128)"/>
<path d="M0 0 C66 0 132 0 200 0 C200 18.48 200 36.96 200 56 C134 56 68 56 0 56 C0 37.52 0 19.04 0 0 Z " fill="#F0F0F0" transform="translate(0,72)"/>
<path d="M0 0 C3.125 2.0625 3.125 2.0625 5 5 C5.55919321 8.91435244 5.35457139 11.20221437 3.75 14.8125 C0.9211396 18.3485755 -0.96088982 18.86774961 -5.4375 19.4375 C-9.90527332 18.88882608 -11.18207829 17.39808207 -14 14 C-14.33 13.67 -14.66 13.34 -15 13 C-15.47188982 8.28110176 -15.66041173 6.05665876 -13.125 2 C-8.73887436 -0.80712041 -5.07163742 -1.02264164 0 0 Z " fill="#2D2D2D" transform="translate(154,88)"/>
<path d="M0 0 C4.95 0 9.9 0 15 0 C15 1.98 15 3.96 15 6 C11.7 6 8.4 6 5 6 C5 6.66 5 7.32 5 8 C7.64 8 10.28 8 13 8 C13 9.65 13 11.3 13 13 C10.36 13 7.72 13 5 13 C5 13.66 5 14.32 5 15 C8.3 15 11.6 15 15 15 C15 16.65 15 18.3 15 20 C10.05 20 5.1 20 0 20 C0 13.4 0 6.8 0 0 Z " fill="#424242" transform="translate(42,87)"/>
<path d="M0 0 C0.87785156 0.00515625 1.75570312 0.0103125 2.66015625 0.015625 C3.53542969 0.01046875 4.41070312 0.0053125 5.3125 0 C7.72265625 0.265625 7.72265625 0.265625 10.72265625 2.265625 C10.72265625 2.925625 10.72265625 3.585625 10.72265625 4.265625 C6.90775712 6.118576 4.80514061 6.36899915 0.72265625 5.265625 C0.06265625 5.265625 -0.59734375 5.265625 -1.27734375 5.265625 C-1.31976098 7.59857275 -1.31827312 9.93265067 -1.27734375 12.265625 C-0.1520027 13.62180999 -0.1520027 13.62180999 2.78515625 13.328125 C3.75453125 13.3075 4.72390625 13.286875 5.72265625 13.265625 C4.40265625 12.935625 3.08265625 12.605625 1.72265625 12.265625 C2.05265625 10.615625 2.38265625 8.965625 2.72265625 7.265625 C5.69265625 7.265625 8.66265625 7.265625 11.72265625 7.265625 C11.72265625 11.225625 11.72265625 15.185625 11.72265625 19.265625 C9.66133483 19.37427445 7.59834304 19.45150821 5.53515625 19.515625 C3.81232422 19.58523437 3.81232422 19.58523437 2.0546875 19.65625 C-1.95339366 19.18636944 -3.50807507 18.15639724 -6.27734375 15.265625 C-7.37351684 12.61478336 -7.48712585 10.11752755 -7.27734375 7.265625 C-5.68607939 3.77999831 -4.0548042 0.47294457 0 0 Z " fill="#313131" transform="translate(120.27734375,87.734375)"/>
<path d="M0 0 C5.625 1.125 5.625 1.125 8.3125 4.5625 C8.82425781 5.20316406 9.33601562 5.84382813 9.86328125 6.50390625 C10.23839844 6.99761719 10.61351562 7.49132812 11 8 C11.33 5.36 11.66 2.72 12 0 C13.65 0 15.3 0 17 0 C17 6.27 17 12.54 17 19 C11.34836472 17.86967294 11.34836472 17.86967294 8.6875 14.5625 C8.17574219 13.94503906 7.66398438 13.32757813 7.13671875 12.69140625 C6 11 6 11 6 9 C5.34 9 4.68 9 4 9 C4 12.3 4 15.6 4 19 C2.68 19 1.36 19 0 19 C0 12.73 0 6.46 0 0 Z " fill="#373737" transform="translate(167,88)"/>
<path d="M0 0 C1.65 0 3.3 0 5 0 C5 2.31 5 4.62 5 7 C7.64 7 10.28 7 13 7 C13 4.69 13 2.38 13 0 C14.65 0 16.3 0 18 0 C18 6.27 18 12.54 18 19 C16.35 19 14.7 19 13 19 C13 16.69 13 14.38 13 12 C10.36 12 7.72 12 5 12 C5 14.31 5 16.62 5 19 C3.35 19 1.7 19 0 19 C0 12.73 0 6.46 0 0 Z " fill="#3B3B3B" transform="translate(16,88)"/>
<path d="M0 0 C1.98 0 3.96 0 6 0 C7.17094005 2.7899439 8.33690927 5.58178597 9.5 8.375 C9.83386719 9.1690625 10.16773437 9.963125 10.51171875 10.78125 C10.82753906 11.54179688 11.14335938 12.30234375 11.46875 13.0859375 C11.76201172 13.7876709 12.05527344 14.4894043 12.35742188 15.21240234 C13 17 13 17 13 19 C11.02 19 9.04 19 7 19 C7 18.01 7 17.02 7 16 C5.700625 16.12375 4.40125 16.2475 3.0625 16.375 C1.96615234 16.47941406 1.96615234 16.47941406 0.84765625 16.5859375 C0.23792969 16.72257812 -0.37179688 16.85921875 -1 17 C-1.33 17.66 -1.66 18.32 -2 19 C-3.65 19 -5.3 19 -7 19 C-5.17778624 12.38757278 -2.94776396 6.19479329 0 0 Z " fill="#363636" transform="translate(95,88)"/>
<path d="M0 0 C2.75 -0.25 2.75 -0.25 6 0 C8.375 2 8.375 2 10 4 C10.66 2.68 11.32 1.36 12 0 C13.65 0 15.3 0 17 0 C15 5 15 5 13.5625 7.375 C12.71299969 9.94251364 12.71299969 9.94251364 13.98828125 11.80078125 C14.90193621 13.04386674 15.85115531 14.26168729 16.8359375 15.44921875 C18 17 18 17 18 19 C15.25 19.25 15.25 19.25 12 19 C9.625 17 9.625 17 8 15 C7.34 16.32 6.68 17.64 6 19 C4.02 19 2.04 19 0 19 C0.99071348 16.25648576 1.81506524 14.21135401 3.75 12 C4.1625 11.34 4.575 10.68 5 10 C4.05012117 6.29547256 2.02548781 3.22236698 0 0 Z " fill="#2E2E2E" transform="translate(64,88)"/>
<path d="M0 0 C6.12767526 1.22553505 6.48181521 2.27558042 10 7 C9.67 7.66 9.34 8.32 9 9 C7.35 8.67 5.7 8.34 4 8 C4 11.63 4 15.26 4 19 C2.68 19 1.36 19 0 19 C0 12.73 0 6.46 0 0 Z " fill="#292929" transform="translate(167,88)"/>
<path d="M0 0 C2.4375 0.6875 2.4375 0.6875 4.4375 1.6875 C4.5625 4.5625 4.5625 4.5625 4.4375 7.6875 C2.4375 9.6875 2.4375 9.6875 -0.5625 9.9375 C-3.5625 9.6875 -3.5625 9.6875 -5.5625 7.6875 C-5.875 4.6875 -5.875 4.6875 -5.5625 1.6875 C-2.5625 -0.3125 -2.5625 -0.3125 0 0 Z " fill="#E8E8E8" transform="translate(149.5625,92.3125)"/>
<path d="M0 0 C2.97 0 5.94 0 9 0 C9 3.96 9 7.92 9 12 C7.68 12 6.36 12 5 12 C5 11.34 5 10.68 5 10 C4.34 10 3.68 10 3 10 C3.33 8.35 3.66 6.7 4 5 C2.35 5 0.7 5 -1 5 C-0.67 3.35 -0.34 1.7 0 0 Z " fill="#454545" transform="translate(123,95)"/>
<path d="M0 0 C1.4540625 0.0309375 1.4540625 0.0309375 2.9375 0.0625 C4.0625 4.8125 4.0625 4.8125 2.9375 7.0625 C2.2775 7.0625 1.6175 7.0625 0.9375 7.0625 C1.2675 8.7125 1.5975 10.3625 1.9375 12.0625 C0.6175 12.0625 -0.7025 12.0625 -2.0625 12.0625 C-2.3925 10.4125 -2.7225 8.7625 -3.0625 7.0625 C-3.7225 8.3825 -4.3825 9.7025 -5.0625 11.0625 C-5.7225 11.0625 -6.3825 11.0625 -7.0625 11.0625 C-6.5872412 9.41553396 -6.10718109 7.76995272 -5.625 6.125 C-5.35816406 5.20847656 -5.09132813 4.29195313 -4.81640625 3.34765625 C-3.69602076 -0.04833086 -3.73530459 0.07623071 0 0 Z " fill="#525252" transform="translate(98.0625,87.9375)"/>
<path d="M0 0 C0.99 0.66 1.98 1.32 3 2 C5.33199388 2.07905064 7.66832622 2.08798769 10 2 C9.67 3.32 9.34 4.64 9 6 C9.66 6.33 10.32 6.66 11 7 C7.89951072 8.55024464 5.42105782 8.28992015 2 8 C-0.9375 6 -0.9375 6 -3 4 C-2.67 3.01 -2.34 2.02 -2 1 C-1.34 0.67 -0.68 0.34 0 0 Z " fill="#333333" transform="translate(117,99)"/>
<path d="M0 0 C0.66 0.99 1.32 1.98 2 3 C1.67 3.99 1.34 4.98 1 6 C1.99 6.33 2.98 6.66 4 7 C3.67 7.66 3.34 8.32 3 9 C1.68 9 0.36 9 -1 9 C-1.33 10.32 -1.66 11.64 -2 13 C-3.65 13 -5.3 13 -7 13 C-6.1875 9.5625 -6.1875 9.5625 -5 6 C-4.01 5.67 -3.02 5.34 -2 5 C-1.33820153 3.01954441 -1.33820153 3.01954441 -1 1 C-0.67 0.67 -0.34 0.34 0 0 Z " fill="#2E2E2E" transform="translate(95,94)"/>
<path d="M0 0 C2.87231652 1.28759017 5.19225634 2.37877169 7 5 C7.1875 8.6875 7.1875 8.6875 7 12 C6.01 12.495 6.01 12.495 5 13 C4.67 12.34 4.34 11.68 4 11 C3.34 11 2.68 11 2 11 C2 9.35 2 7.7 2 6 C1.01 5.67 0.02 5.34 -1 5 C-0.67 3.35 -0.34 1.7 0 0 Z " fill="#313131" transform="translate(152,88)"/>
<path d="M0 0 C1.32 0 2.64 0 4 0 C4.33 2.64 4.66 5.28 5 8 C4.01 8.66 3.02 9.32 2 10 C1.26393501 13.56769552 1.26393501 13.56769552 1 17 C1.66 17.33 2.32 17.66 3 18 C2.01 18 1.02 18 0 18 C0 12.06 0 6.12 0 0 Z " fill="#1D1D1D" transform="translate(17,88)"/>
<path d="M0 0 C-1.01741456 3.05224368 -1.73599988 4.73599988 -4 7 C-7.1875 7.25 -7.1875 7.25 -10 7 C-9.02640613 3.72518425 -8.30933359 2.23794891 -5.5625 0.125 C-3 -1 -3 -1 0 0 Z " fill="#393939" transform="translate(74,100)"/>
<path d="M0 0 C-0.99 0.66 -1.98 1.32 -3 2 C-3 3.32 -3 4.64 -3 6 C-1.35 6.33 0.3 6.66 2 7 C1.67 7.66 1.34 8.32 1 9 C-1.875 9.125 -1.875 9.125 -5 9 C-5.66 8.34 -6.32 7.68 -7 7 C-6.75 3.4375 -6.75 3.4375 -6 0 C-3.50907189 -1.24546405 -2.58919267 -0.7767578 0 0 Z " fill="#E7E7E7" transform="translate(125,93)"/>
<path d="M0 0 C3.3 0.33 6.6 0.66 10 1 C10 1.66 10 2.32 10 3 C8.68 3.33 7.36 3.66 6 4 C7.65 4.33 9.3 4.66 11 5 C11 5.33 11 5.66 11 6 C4.67741935 6.36476427 4.67741935 6.36476427 1.5625 4.6875 C0 3 0 3 0 0 Z " fill="#373737" transform="translate(141,101)"/>
<path d="M0 0 C1.134375 0.020625 2.26875 0.04125 3.4375 0.0625 C3.4375 1.3825 3.4375 2.7025 3.4375 4.0625 C-1.1825 4.0625 -5.8025 4.0625 -10.5625 4.0625 C-10.5625 3.7325 -10.5625 3.4025 -10.5625 3.0625 C-9.1084375 2.5984375 -9.1084375 2.5984375 -7.625 2.125 C-1.5798913 0.02771739 -1.5798913 0.02771739 0 0 Z " fill="#272727" transform="translate(53.5625,101.9375)"/>
<path d="M0 0 C2.40072955 2.88087546 4.47291037 5.56404834 6 9 C4.02 9 2.04 9 0 9 C-1.125 7.3125 -1.125 7.3125 -2 5 C-1.125 2.25 -1.125 2.25 0 0 Z " fill="#3C3C3C" transform="translate(76,98)"/>
<path d="M0 0 C1.32 0.33 2.64 0.66 4 1 C3.67 3.64 3.34 6.28 3 9 C2.01 9.33 1.02 9.66 0 10 C0 6.7 0 3.4 0 0 Z " fill="#242424" transform="translate(180,88)"/>
<path d="M0 0 C2.475 0.99 2.475 0.99 5 2 C5 2.66 5 3.32 5 4 C3.35 4.66 1.7 5.32 0 6 C-0.66 5.01 -1.32 4.02 -2 3 C-1.34 2.01 -0.68 1.02 0 0 Z " fill="#3B3B3B" transform="translate(126,88)"/>
<path d="M0 0 C0.33 0 0.66 0 1 0 C1.33 2.64 1.66 5.28 2 8 C0.02 8.99 0.02 8.99 -2 10 C-2.25 3.375 -2.25 3.375 0 0 Z " fill="#2C2C2C" transform="translate(20,88)"/>
<path d="M0 0 C1.98 0 3.96 0 6 0 C6 1.32 6 2.64 6 4 C5.01 4.33 4.02 4.66 3 5 C2.01 3.35 1.02 1.7 0 0 Z " fill="#2D2D2D" transform="translate(64,88)"/>
<path d="M0 0 C0.99 0.66 1.98 1.32 3 2 C3 2.99 3 3.98 3 5 C2.01 5 1.02 5 0 5 C-0.33 5.66 -0.66 6.32 -1 7 C-1.625 5.1875 -1.625 5.1875 -2 3 C-1.34 2.01 -0.68 1.02 0 0 Z " fill="#E5E5E5" transform="translate(78,93)"/>
<path d="M0 0 C0.66 0.33 1.32 0.66 2 1 C1.01 2.32 0.02 3.64 -1 5 C-0.34 5 0.32 5 1 5 C0.34 6.32 -0.32 7.64 -1 9 C-1 8.34 -1 7.68 -1 7 C-1.66 7 -2.32 7 -3 7 C-2.25 2.25 -2.25 2.25 0 0 Z " fill="#262626" transform="translate(117,89)"/>
<path d="M0 0 C-0.78375 0.598125 -1.5675 1.19625 -2.375 1.8125 C-5.14574323 3.91085249 -5.14574323 3.91085249 -7 7 C-6.74438677 4.6568787 -6.40729228 2.32156597 -6 0 C-3.50907189 -1.24546405 -2.58919267 -0.7767578 0 0 Z " fill="#DFDFDF" transform="translate(125,93)"/>
<path d="M0 0 C0.66 0 1.32 0 2 0 C2 2.31 2 4.62 2 7 C1.01 7.495 1.01 7.495 0 8 C-0.66 6.68 -1.32 5.36 -2 4 C-1.34 4 -0.68 4 0 4 C0 2.68 0 1.36 0 0 Z " fill="#3E3E3E" transform="translate(157,93)"/>
<path d="M0 0 C1.98 0 3.96 0 6 0 C5.34 1.32 4.68 2.64 4 4 C2.68 3.67 1.36 3.34 0 3 C0 2.01 0 1.02 0 0 Z " fill="#242424" transform="translate(120,88)"/>
<path d="M0 0 C0.33 0.66 0.66 1.32 1 2 C0.67 2.66 0.34 3.32 0 4 C0.66 4.33 1.32 4.66 2 5 C-0.95664519 6.4783226 -3.74229737 6.06032783 -7 6 C-7 5.67 -7 5.34 -7 5 C-5.35 5 -3.7 5 -2 5 C-1.34 3.35 -0.68 1.7 0 0 Z " fill="#404040" transform="translate(126,101)"/>
<path d="M0 0 C2 1.375 2 1.375 4 3 C4 3.66 4 4.32 4 5 C3.34 5 2.68 5 2 5 C1.67 5.66 1.34 6.32 1 7 C0 6 0 6 -0.0625 2.9375 C-0.041875 1.968125 -0.02125 0.99875 0 0 Z " fill="#E9E9E9" transform="translate(173,99)"/>
</svg>
