<?xml version="1.0" encoding="UTF-8"?>
<svg version="1.1" xmlns="http://www.w3.org/2000/svg" width="593" height="175">
<path d="M0 0 C0 1.98 0 3.96 0 6 C-2.31 6.66 -4.62 7.32 -7 8 C-6.505 8.804375 -6.01 9.60875 -5.5 10.4375 C-3.15011432 16.0184785 -3.14938858 20.70334915 -5.25 26.375 C-7.72170925 30.08256388 -9.79858832 31.59952944 -14 33 C-16.02034678 33.04434232 -18.04204845 33.03927974 -20.0625 33 C-24.18740002 32.78848948 -24.18740002 32.78848948 -28 34 C-28 34.66 -28 35.32 -28 36 C-23.05622041 37.530815 -17.85687591 37.32809491 -12.7265625 37.5234375 C-8.05296077 38.12110984 -4.63426109 39.52916502 -1.125 42.6875 C0.56702062 46.16554239 0.85179536 49.28118611 0 53 C-2.22714494 56.92620396 -4.60091236 59.40769989 -8.77734375 61.17578125 C-15.44994601 62.88234983 -23.69640673 63.32277291 -30.1875 60.6875 C-35.63157895 57.42105263 -35.63157895 57.42105263 -36.875 52.625 C-37.01595032 48.53744081 -36.22962533 47.29984549 -34 44 C-33.83507784 40.14065627 -33.83507784 40.14065627 -34.75 37.0625 C-35 34 -35 34 -33.0625 31.125 C-32.381875 30.42375 -31.70125 29.7225 -31 29 C-31.474375 28.566875 -31.94875 28.13375 -32.4375 27.6875 C-34.72434417 25.21770829 -34.98825996 23.11974839 -35.3125 19.8125 C-34.92703068 15.10977429 -33.73718729 11.83378914 -31 8 C-26.1885435 4.05213826 -20.92225635 4.89327668 -15.0234375 5.28515625 C-11.26389399 4.93057398 -10.41752676 3.7817393 -8 1 C-5.07175348 0.02391783 -3.04386724 -0.08226668 0 0 Z M-27 13 C-27.99650464 16.86878271 -28.62671388 20.4332153 -27.1171875 24.20703125 C-25.66035593 26.54509311 -24.60936497 27.13021168 -22 28 C-17.97749297 28.59909679 -16.49827337 28.34662495 -13.125 26 C-10.75785321 22.65814571 -10.23908138 20.93959545 -10.51953125 16.9375 C-11.38897022 13.4314697 -13.08036827 11.98783437 -16 10 C-20.53635901 9.36331803 -24.04104046 9.24439751 -27 13 Z M-28.4375 45.83203125 C-30.31349288 47.97731032 -30.31349288 47.97731032 -29.9375 51.125 C-29.23305313 54.29174932 -29.23305313 54.29174932 -26 56 C-23.46828157 56.24769941 -21.09341828 56.37014685 -18.5625 56.375 C-17.24378906 56.40335938 -15.92507812 56.43171875 -14.56640625 56.4609375 C-10.96902775 56.29844333 -10.96902775 56.29844333 -8.5625 54.13671875 C-6.8364927 52.07796771 -6.8364927 52.07796771 -6.4375 49.4375 C-6.7699597 46.82521319 -6.7699597 46.82521319 -9.09375 45.375 C-12.6102343 43.711287 -15.18289632 43.56664931 -19.0625 43.5625 C-20.27035156 43.54316406 -21.47820312 43.52382812 -22.72265625 43.50390625 C-26.06086217 43.74414006 -26.06086217 43.74414006 -28.4375 45.83203125 Z " fill="#FFFFFF" transform="translate(270,56)"/>
<path d="M0 0 C2.64 0 5.28 0 8 0 C8 7.26 8 14.52 8 22 C17.57 22 27.14 22 37 22 C37 14.74 37 7.48 37 0 C39.64 0 42.28 0 45 0 C45 18.15 45 36.3 45 55 C42.36 55 39.72 55 37 55 C37 46.42 37 37.84 37 29 C27.43 29 17.86 29 8 29 C8 37.58 8 46.16 8 55 C5.36 55 2.72 55 0 55 C0 36.85 0 18.7 0 0 Z " fill="#FFFFFF" transform="translate(57,47)"/>
<path d="M0 0 C3.17825352 2.32555136 4.65318356 4.42292788 6.5625 7.875 C6.89913684 10.62564877 7.03474142 12.94848366 6.953125 15.6796875 C6.94746521 16.4036673 6.94180542 17.12764709 6.93597412 17.87356567 C6.91373667 20.16640788 6.86356987 22.45763716 6.8125 24.75 C6.79241841 26.31247729 6.77417055 27.87497929 6.7578125 29.4375 C6.71391416 33.2506133 6.64497971 37.06253402 6.5625 40.875 C4.2525 40.875 1.9425 40.875 -0.4375 40.875 C-0.7675 39.555 -1.0975 38.235 -1.4375 36.875 C-2.8296875 37.8340625 -2.8296875 37.8340625 -4.25 38.8125 C-9.25516944 42.05113905 -13.60143922 42.61197696 -19.4375 41.875 C-23.2401029 39.8699912 -25.05540841 38.44813738 -27.4375 34.875 C-28.04112041 30.68885326 -27.85448873 26.94063786 -26.3125 23 C-21.00168881 16.98108065 -13.00172215 16.67970448 -5.4375 15.875 C-3.77108838 15.8458434 -2.1036785 15.83466421 -0.4375 15.875 C-0.88659061 14.39300098 -1.34706564 12.91444764 -1.8125 11.4375 C-2.06773437 10.61378906 -2.32296875 9.79007813 -2.5859375 8.94140625 C-3.24632227 6.69701984 -3.24632227 6.69701984 -5.4375 5.875 C-7.54604036 5.6397268 -7.54604036 5.6397268 -9.875 5.625 C-11.04869141 5.58632812 -11.04869141 5.58632812 -12.24609375 5.546875 C-14.96516211 5.95400823 -15.79132891 6.71248331 -17.4375 8.875 C-18.15947162 11.48111077 -18.15947162 11.48111077 -18.4375 13.875 C-20.7475 13.875 -23.0575 13.875 -25.4375 13.875 C-25.40387698 6.15851617 -25.40387698 6.15851617 -23.17578125 3.19921875 C-16.74925902 -2.2884161 -7.81070856 -2.55623189 0 0 Z M-10.4375 21.625 C-11.984375 21.83382812 -11.984375 21.83382812 -13.5625 22.046875 C-16.93192372 23.01741553 -18.33610205 24.09001476 -20.4375 26.875 C-20.52666154 30.50149951 -20.52666154 30.50149951 -19.4375 33.875 C-15.73651576 36.34232283 -12.73214299 36.55694709 -8.4375 35.875 C-5.29405565 34.12864203 -2.96887274 32.40637274 -0.4375 29.875 C-0.19496187 27.66427023 -0.19496187 27.66427023 -0.3125 25.25 C-0.33054688 24.43273437 -0.34859375 23.61546875 -0.3671875 22.7734375 C-0.39039063 22.14695312 -0.41359375 21.52046875 -0.4375 20.875 C-3.90065129 20.875 -7.02084004 21.12958431 -10.4375 21.625 Z " fill="#FFFFFF" transform="translate(218.4375,61.125)"/>
<path d="M0 0 C4.70137968 2.55318372 6.94220941 5.6793067 9.0546875 10.5234375 C9.6484375 13.1953125 9.6484375 13.1953125 9.6484375 22.1953125 C0.4084375 22.1953125 -8.8315625 22.1953125 -18.3515625 22.1953125 C-16.72438654 30.29218158 -16.72438654 30.29218158 -11.3515625 35.1953125 C-8.26516704 35.75943399 -5.42029079 35.88491436 -2.3515625 35.1953125 C0.11015393 33.17500729 1.35155891 31.08834937 2.6484375 28.1953125 C4.9584375 28.1953125 7.2684375 28.1953125 9.6484375 28.1953125 C9.25974445 33.63701524 7.53194071 36.39810936 3.6484375 40.1953125 C-1.88508265 43.02641583 -8.63758877 43.21584789 -14.59765625 41.578125 C-20.12189346 39.2180539 -22.86104246 35.56617312 -25.3515625 30.1953125 C-26.1640625 27.7578125 -26.1640625 27.7578125 -26.3515625 25.1953125 C-26.40183594 24.53917969 -26.45210938 23.88304688 -26.50390625 23.20703125 C-26.81296771 16.04916772 -25.40713235 9.51615565 -20.9765625 3.7578125 C-15.35557169 -1.7293452 -7.34260239 -2.51258487 0 0 Z M-17.3515625 10.1953125 C-17.6815625 12.5053125 -18.0115625 14.8153125 -18.3515625 17.1953125 C-11.4215625 17.1953125 -4.4915625 17.1953125 2.6484375 17.1953125 C1.40591446 9.71197531 1.40591446 9.71197531 -1.4765625 6.6953125 C-7.88371438 3.35245065 -13.06231214 4.08638016 -17.3515625 10.1953125 Z " fill="#FFFFFF" transform="translate(440.3515625,60.8046875)"/>
<path d="M0 0 C3.76268375 2.98060167 6.11508028 7.58515448 6.69140625 12.33984375 C6.69140625 14.97984375 6.69140625 17.61984375 6.69140625 20.33984375 C-2.54859375 20.33984375 -11.78859375 20.33984375 -21.30859375 20.33984375 C-20.16909563 28.69865679 -20.16909563 28.69865679 -17.18359375 31.90234375 C-13.21004063 33.88912031 -10.74077673 33.6916043 -6.30859375 33.33984375 C-5.52484375 33.29859375 -4.74109375 33.25734375 -3.93359375 33.21484375 C-1.93943432 32.36326531 -1.93943432 32.36326531 -1.05859375 29.27734375 C-0.81109375 28.30796875 -0.56359375 27.33859375 -0.30859375 26.33984375 C2.00140625 26.33984375 4.31140625 26.33984375 6.69140625 26.33984375 C6.30265586 31.7823492 4.52587629 34.50537371 0.69140625 38.33984375 C-5.0837557 41.17439736 -11.48918283 41.45648216 -17.66015625 39.65234375 C-23.61934195 36.97405804 -26.22171876 33.16571871 -28.55859375 27.08984375 C-30.25686657 18.59847965 -29.95906883 10.9849083 -25.171875 3.58203125 C-19.0058008 -4.47082275 -8.49640016 -4.82320898 0 0 Z M-20.30859375 8.33984375 C-20.63859375 10.64984375 -20.96859375 12.95984375 -21.30859375 15.33984375 C-14.37859375 15.33984375 -7.44859375 15.33984375 -0.30859375 15.33984375 C-1.60222018 7.80085369 -1.60222018 7.80085369 -6.30859375 3.33984375 C-12.52058521 2.11838475 -16.58814874 2.87544014 -20.30859375 8.33984375 Z " fill="#FFFFFF" transform="translate(141.30859375,62.66015625)"/>
<path d="M0 0 C2.31 0 4.62 0 7 0 C7 5.94 7 11.88 7 18 C8.11375 17.175 9.2275 16.35 10.375 15.5 C15.21953103 12.4710925 19.41169833 12.13284974 25 13 C28.54018863 14.35581692 29.63759534 15.40835256 31.6105957 18.62939453 C33.19646214 22.47660452 33.38448576 25.72133229 33.29296875 29.8046875 C33.28872391 30.5286673 33.28447906 31.25264709 33.28010559 31.99856567 C33.26342972 34.29110287 33.22580081 36.58273246 33.1875 38.875 C33.17243871 40.43748722 33.15875284 41.99998835 33.14648438 43.5625 C33.11356293 47.37534505 33.06186002 51.18751911 33 55 C30.69 55 28.38 55 26 55 C25.9906543 54.08186523 25.98130859 53.16373047 25.97167969 52.21777344 C25.92760069 48.80294722 25.86596268 45.38936892 25.79248047 41.97509766 C25.76429912 40.49897804 25.74307034 39.02270831 25.72900391 37.54638672 C25.70753302 35.42076943 25.66086957 33.29695121 25.609375 31.171875 C25.58842773 29.8940918 25.56748047 28.61630859 25.54589844 27.29980469 C25.24671427 23.95093573 25.24671427 23.95093573 23.20800781 21.55175781 C20.41323964 19.58763281 18.42164357 19.82706722 15.09765625 20.25 C12.06509538 21.33426757 10.29427629 22.72986421 8 25 C7.2218269 28.27365752 7.2218269 28.27365752 7.29296875 31.953125 C7.27028679 32.94345734 7.27028679 32.94345734 7.24714661 33.95379639 C7.204318 36.0528796 7.19543798 38.1505237 7.1875 40.25 C7.16435136 41.67712146 7.13898523 43.10420879 7.11132812 44.53125 C7.04852854 48.02080563 7.01615209 51.50988132 7 55 C4.69 55 2.38 55 0 55 C0 36.85 0 18.7 0 0 Z " fill="#FFFFFF" transform="translate(504,47)"/>
<path d="M0 0 C3.99013335 3.20097365 6.16721434 7.63836178 7.7578125 12.41015625 C8.39376466 21.46024466 7.95508676 27.55911945 2.9453125 35.16015625 C-1.15096755 39.37347288 -4.837018 40.60781519 -10.6171875 40.84765625 C-15.91899936 40.68174921 -19.99501937 39.65326572 -24.2421875 36.41015625 C-29.11967214 30.6341876 -30.68632688 24.177868 -30.49609375 16.74609375 C-29.82488998 10.57101905 -27.81906514 4.73276291 -23.2421875 0.41015625 C-15.87411726 -3.86332449 -7.5211047 -4.24774942 0 0 Z M-20.2421875 7.41015625 C-23.10557568 13.17712051 -22.75680021 19.1160469 -22.2421875 25.41015625 C-21.05574043 28.85085275 -19.94407027 30.63028651 -17.5546875 33.28515625 C-14.11559836 34.95822664 -10.93222301 35.18215984 -7.2421875 34.41015625 C-3.72033494 32.43337449 -1.54261587 30.31144135 -0.2421875 26.41015625 C-0.09543015 23.95479283 -0.02118052 21.49473073 0.0078125 19.03515625 C0.03359375 17.72804688 0.059375 16.4209375 0.0859375 15.07421875 C-0.33020654 10.42727699 -1.80422308 7.95463655 -4.9296875 4.59765625 C-10.77044378 1.59834897 -15.93173344 2.71936801 -20.2421875 7.41015625 Z " fill="#FFFFFF" transform="translate(304.2421875,62.58984375)"/>
<path d="M0 0 C3.77392376 3.54520111 4.94596399 7.66044913 5.40307617 12.66967773 C5.3795105 14.62562866 5.3795105 14.62562866 5.35546875 16.62109375 C5.35122391 17.32146255 5.34697906 18.02183136 5.34260559 18.74342346 C5.32597156 20.95436 5.2883518 23.16434457 5.25 25.375 C5.23493326 26.88475235 5.22124836 28.39451916 5.20898438 29.90429688 C5.17611921 33.58233434 5.12444582 37.25982407 5.0625 40.9375 C2.4225 40.9375 -0.2175 40.9375 -2.9375 40.9375 C-2.96255615 39.97859863 -2.9876123 39.01969727 -3.01342773 38.03173828 C-3.1074862 34.47951523 -3.20771058 30.92748844 -3.30981445 27.37548828 C-3.35316926 25.83712347 -3.39484395 24.29871037 -3.43481445 22.76025391 C-3.49250398 20.5509586 -3.55620179 18.34190652 -3.62109375 16.1328125 C-3.63780624 15.44317413 -3.65451874 14.75353577 -3.67173767 14.04299927 C-3.74556995 10.36635736 -3.74556995 10.36635736 -4.9375 6.9375 C-9.02650075 5.89520569 -11.29074684 5.68123931 -15.25 7.25 C-17.96274187 8.814192 -17.96274187 8.814192 -19.9375 10.9375 C-20.31072427 14.04506015 -20.31072427 14.04506015 -20.3515625 17.6953125 C-20.37092865 18.35836395 -20.3902948 19.02141541 -20.4102478 19.70455933 C-20.47005954 21.82374177 -20.51643388 23.9429785 -20.5625 26.0625 C-20.60067845 27.49872169 -20.63973011 28.93492045 -20.6796875 30.37109375 C-20.77576125 33.89301936 -20.85978642 37.41511608 -20.9375 40.9375 C-23.5775 40.9375 -26.2175 40.9375 -28.9375 40.9375 C-28.9375 27.4075 -28.9375 13.8775 -28.9375 -0.0625 C-26.6275 -0.0625 -24.3175 -0.0625 -21.9375 -0.0625 C-21.2775 0.9275 -20.6175 1.9175 -19.9375 2.9375 C-18.98875 2.2775 -18.04 1.6175 -17.0625 0.9375 C-11.62244621 -2.16952259 -5.81470691 -2.10319186 0 0 Z " fill="#FFFFFF" transform="translate(350.9375,61.0625)"/>
<path d="M0 0 C6.26871469 4.28107345 6.26871469 4.28107345 7.3125 9.5 C7.395 10.5725 7.4775 11.645 7.5625 12.75 C4.3125 13.125 4.3125 13.125 0.5625 12.75 C-1.75 9.8125 -1.75 9.8125 -3.4375 6.75 C-6.90587728 5.01581136 -10.76686161 5.56162857 -14.55078125 5.98828125 C-16.60020169 6.59118707 -16.60020169 6.59118707 -17.51953125 8.61328125 C-19.56644504 15.47646278 -19.99469165 21.71149375 -18.4375 28.75 C-16.60199377 31.7697038 -15.55022641 33.1936368 -12.4375 34.75 C-9.06392666 35.25070321 -9.06392666 35.25070321 -5.4375 34.75 C-2.27795695 32.20862841 -0.72209114 30.60377341 0.5625 26.75 C2.8725 26.75 5.1825 26.75 7.5625 26.75 C7.20856658 32.64889027 5.84814461 35.65482848 1.5625 39.75 C-3.45026682 42.3146714 -8.92068183 42.31698131 -14.4375 41.75 C-20.25003975 39.7759299 -23.82082587 35.98900097 -26.5546875 30.51171875 C-28.6775678 23.87067286 -28.76058871 14.54937664 -25.8125 8.125 C-20.09401359 -1.21587283 -10.09387853 -3.67050128 0 0 Z " fill="#FFFFFF" transform="translate(485.4375,61.25)"/>
<path d="M0 0 C12.87 0 25.74 0 39 0 C39 1.98 39 3.96 39 6 C33.72 6 28.44 6 23 6 C23 22.17 23 38.34 23 55 C20.36 55 17.72 55 15 55 C15 38.83 15 22.66 15 6 C10.05 6 5.1 6 0 6 C0 4.02 0 2.04 0 0 Z " fill="#FFFFFF" transform="translate(378,47)"/>
<path d="M0 0 C4.93264249 -1.14507772 4.93264249 -1.14507772 8 0 C11.23527953 4.04956441 13.62640284 8.40431187 16 13 C18.7301622 10.59009143 20.06003698 8.04410995 21.6875 4.8125 C24.34728295 0.19640315 24.34728295 0.19640315 27.16796875 -0.65234375 C29.375 -0.625 29.375 -0.625 33 0 C31.41467191 4.55564061 29.00996919 8.31475769 26.375 12.3125 C25.95476562 12.95767578 25.53453125 13.60285156 25.1015625 14.26757812 C24.07161759 15.84760724 23.03634372 17.42416047 22 19 C25.99632124 26.56812483 30.3169561 33.83688255 35 41 C30.02545455 41.87272727 30.02545455 41.87272727 27 41 C24.0989412 38.00185853 22.07663579 34.60125447 20 31 C19.43925781 30.06542969 18.87851563 29.13085938 18.30078125 28.16796875 C17.87152344 27.45253906 17.44226563 26.73710938 17 26 C14.91799713 28.40231101 13.1445685 30.71218125 11.71484375 33.55859375 C10.31246635 36.31256608 9.0369194 38.67019023 7 41 C3.84400149 41.85227456 1.18386469 41.63677294 -2 41 C-0.95966892 39.35332211 0.08235447 37.70771339 1.125 36.0625 C1.75664062 35.0621875 2.38828125 34.061875 3.0390625 33.03125 C5.26072569 29.59696587 7.61401558 26.27168792 10.03125 22.97265625 C11.27255388 20.44500118 10.87396261 19.6312918 10 17 C8.98030347 15.05724415 8.98030347 15.05724415 7.71484375 13.14453125 C7.26689453 12.44005859 6.81894531 11.73558594 6.35742188 11.00976562 C5.88884766 10.28466797 5.42027344 9.55957031 4.9375 8.8125 C4.00722816 7.36188511 3.07874047 5.91012394 2.15234375 4.45703125 C1.73976318 3.81741455 1.32718262 3.17779785 0.90209961 2.51879883 C0 1 0 1 0 0 Z " fill="#FFFFFF" transform="translate(152,61)"/>
</svg>
