<?xml version="1.0" encoding="UTF-8"?>
<svg version="1.1" xmlns="http://www.w3.org/2000/svg" width="200" height="200">
<path d="M0 0 C66 0 132 0 200 0 C200 66 200 132 200 200 C134 200 68 200 0 200 C0 134 0 68 0 0 Z " fill="#FEFDFE" transform="translate(0,0)"/>
<path d="M0 0 C4.1350592 0.64323143 5.83377441 2.52804709 8.8125 5.4375 C10.07487731 7.96225462 9.91106404 9.74950466 9.875 12.5625 C9.86597656 13.47257812 9.85695313 14.38265625 9.84765625 15.3203125 C9.83605469 16.01898438 9.82445313 16.71765625 9.8125 17.4375 C13.54094267 17.79010228 17.0952131 17.95876261 20.8125 17.4375 C23.70549854 14.71597764 23.70549854 14.71597764 25.8125 11.4375 C29.92082923 8.63636644 33.62046307 7.78040232 38.51953125 7.9609375 C42.81980131 8.85469039 45.61646505 11.56797549 48.8125 14.4375 C49.54082031 15.03691406 50.26914063 15.63632812 51.01953125 16.25390625 C58.24575781 22.28227183 58.24575781 22.28227183 59.21875 27.69921875 C59.46252356 34.0068597 58.09990765 37.4616727 54.22265625 42.4296875 C52.75396694 44.52084069 52.09936601 45.90693201 51.8125 48.4375 C52.7787501 50.45402194 53.77958324 52.45429982 54.8125 54.4375 C54.8125 55.7575 54.8125 57.0775 54.8125 58.4375 C55.51375 58.37949219 56.215 58.32148437 56.9375 58.26171875 C65.05914081 57.87549942 69.5455177 59.60691362 75.53125 64.98046875 C76.8125 66.4375 76.8125 66.4375 76.8125 68.4375 C74.1725 68.4375 71.5325 68.4375 68.8125 68.4375 C69.1425 69.0975 69.4725 69.7575 69.8125 70.4375 C69.94665472 73.1098621 69.85568541 75.76000488 69.8125 78.4375 C72.7825 78.4375 75.7525 78.4375 78.8125 78.4375 C78.8125 75.7975 78.8125 73.1575 78.8125 70.4375 C81.1225 70.4375 83.4325 70.4375 85.8125 70.4375 C85.8125 77.6975 85.8125 84.9575 85.8125 92.4375 C83.8325 92.4375 81.8525 92.4375 79.8125 92.4375 C79.8125 89.4675 79.8125 86.4975 79.8125 83.4375 C76.1825 83.4375 72.5525 83.4375 68.8125 83.4375 C68.8125 86.7375 68.8125 90.0375 68.8125 93.4375 C71.4525 93.7675 74.0925 94.0975 76.8125 94.4375 C76.5598068 97.84885826 75.57745524 98.65687511 73 101.0625 C68.39359474 104.49472353 65.853583 105.70038293 60.0625 105.5625 C59.07765625 105.54445313 58.0928125 105.52640625 57.078125 105.5078125 C56.33046875 105.48460938 55.5828125 105.46140625 54.8125 105.4375 C54.27855821 106.8492783 53.76084896 108.26720244 53.25 109.6875 C52.81494141 110.87085938 52.81494141 110.87085938 52.37109375 112.078125 C51.74946082 114.70376339 51.82471778 115.94746566 52.8125 118.4375 C53.658125 119.4275 54.50375 120.4175 55.375 121.4375 C59.00321719 126.32082721 58.64260722 131.61861116 57.8125 137.4375 C55.07438253 144.21760039 47.24425903 149.22162049 40.8125 152.4375 C35.20522183 152.81131854 31.64477462 152.62240827 26.8125 149.4375 C26.255625 148.550625 25.69875 147.66375 25.125 146.75 C23.03431816 144.18249116 23.03431816 144.18249116 20.12109375 144.1171875 C17.33543137 144.12430286 14.58935057 144.2220547 11.8125 144.4375 C11.85890625 145.02917969 11.9053125 145.62085938 11.953125 146.23046875 C12.14145616 150.35357583 12.2193902 152.75450573 10.0625 156.375 C6.73860004 159.42190829 5.28629798 160.49645192 0.6875 160.3125 C-5.42232707 158.93286163 -11.23264705 157.44122427 -15.6875 152.875 C-16.1825 152.070625 -16.6775 151.26625 -17.1875 150.4375 C-17.8475 149.4475 -18.5075 148.4575 -19.1875 147.4375 C-19.1875 146.4475 -19.1875 145.4575 -19.1875 144.4375 C-14.8975 144.4375 -10.6075 144.4375 -6.1875 144.4375 C-6.1875 143.7775 -6.1875 143.1175 -6.1875 142.4375 C-7.09628906 142.48390625 -8.00507812 142.5303125 -8.94140625 142.578125 C-26.8504064 143.09243475 -42.9430642 138.01351188 -56.09033203 125.62255859 C-59.93262863 121.85733916 -63.1859675 117.88531549 -66.1875 113.4375 C-66.70054688 112.77878906 -67.21359375 112.12007813 -67.7421875 111.44140625 C-69.74724541 108.66142055 -70.84814145 105.58208094 -72.1875 102.4375 C-72.8475 101.7775 -73.5075 101.1175 -74.1875 100.4375 C-74.3125 96.8125 -74.3125 96.8125 -74.1875 93.4375 C-75.5075 93.4375 -76.8275 93.4375 -78.1875 93.4375 C-79.53125 91.72265625 -79.53125 91.72265625 -80.6875 89.5 C-82.2801513 86.27441202 -82.2801513 86.27441202 -85.34375 84.68359375 C-86.25640625 84.56177734 -86.25640625 84.56177734 -87.1875 84.4375 C-87.1875 87.0775 -87.1875 89.7175 -87.1875 92.4375 C-89.4975 92.4375 -91.8075 92.4375 -94.1875 92.4375 C-94.1875 85.1775 -94.1875 77.9175 -94.1875 70.4375 C-91.8775 70.4375 -89.5675 70.4375 -87.1875 70.4375 C-87.1875 73.0775 -87.1875 75.7175 -87.1875 78.4375 C-85.8675 78.4375 -84.5475 78.4375 -83.1875 78.4375 C-82.919375 77.86 -82.65125 77.2825 -82.375 76.6875 C-81.983125 75.945 -81.59125 75.2025 -81.1875 74.4375 C-80.67582275 73.39867676 -80.67582275 73.39867676 -80.15380859 72.33886719 C-77.08423045 69.3706682 -73.59057958 69.78756722 -69.5390625 69.765625 C-68.68951996 69.7523114 -67.83997742 69.7389978 -66.96469116 69.72528076 C-65.16762957 69.70503462 -63.37041771 69.69564653 -61.57324219 69.69628906 C-58.82754611 69.6875479 -56.08830505 69.61497153 -53.34375 69.5390625 C-51.59637613 69.52732373 -49.84897175 69.51938656 -48.1015625 69.515625 C-47.2837027 69.48688293 -46.4658429 69.45814087 -45.62319946 69.42852783 C-43.22057112 69.46689052 -41.43526027 69.57725742 -39.1875 70.4375 C-36.98903859 72.87353044 -35.54034206 75.45988251 -34.1875 78.4375 C-32.06711365 75.82235683 -30.05658256 73.24112384 -28.1875 70.4375 C-26.21630859 70.09692383 -26.21630859 70.09692383 -23.8359375 70.14453125 C-22.98515625 70.15419922 -22.134375 70.16386719 -21.2578125 70.17382812 C-20.36835937 70.19896484 -19.47890625 70.22410156 -18.5625 70.25 C-17.21671875 70.27030273 -17.21671875 70.27030273 -15.84375 70.29101562 C-13.62440211 70.32643075 -11.40624812 70.37581539 -9.1875 70.4375 C-8.34680585 72.03782137 -7.51518495 73.64291171 -6.6875 75.25 C-6.2234375 76.14332031 -5.759375 77.03664063 -5.28125 77.95703125 C-4.1875 80.4375 -4.1875 80.4375 -4.1875 83.4375 C-3.5275 83.4375 -2.8675 83.4375 -2.1875 83.4375 C-1.99414062 82.83421875 -1.80078125 82.2309375 -1.6015625 81.609375 C-1.34117188 80.81015625 -1.08078125 80.0109375 -0.8125 79.1875 C-0.42964844 78.00414063 -0.42964844 78.00414063 -0.0390625 76.796875 C0.76423667 74.57122042 1.70961662 72.52818328 2.8125 70.4375 C13.8125 70.4375 24.8125 70.4375 35.8125 70.4375 C35.8125 72.0875 35.8125 73.7375 35.8125 75.4375 C31.5225 75.4375 27.2325 75.4375 22.8125 75.4375 C22.8125 76.4275 22.8125 77.4175 22.8125 78.4375 C26.4425 78.4375 30.0725 78.4375 33.8125 78.4375 C33.8125 80.0875 33.8125 81.7375 33.8125 83.4375 C35.1325 83.4375 36.4525 83.4375 37.8125 83.4375 C37.73 82.220625 37.6475 81.00375 37.5625 79.75 C37.5739051 76.53376159 37.81738377 75.42867164 39.4375 72.5 C42.27356419 70.03710215 44.15580472 69.9133713 47.8125 69.4375 C44.01087852 52.57813516 37.93850841 37.26048034 23.1875 27 C8.43125703 17.97384451 -6.44839766 17.99800559 -23.1875 18.4375 C-21.05170748 11.04505471 -18.94119953 6.56476082 -12.1875 2.4375 C-8.1863865 0.92356516 -4.21006866 0.57785256 0 0 Z " fill="#FCFAFC" transform="translate(103.1875,20.5625)"/>
<path d="M0 0 C11.52457172 9.44851412 20.1130046 23.30029061 21.8125 38.3125 C21.874375 39.529375 21.93625 40.74625 22 42 C20.329375 42.6496875 20.329375 42.6496875 18.625 43.3125 C14.82487666 44.69911119 14.82487666 44.69911119 13 48 C12.54860541 50.0492094 12.54860541 50.0492094 12.375 52.1875 C12.189375 54.0746875 12.189375 54.0746875 12 56 C10.68 56 9.36 56 8 56 C8 54.35 8 52.7 8 51 C4.37 51 0.74 51 -3 51 C-3 50.01 -3 49.02 -3 48 C1.29 48 5.58 48 10 48 C10 46.35 10 44.7 10 43 C3.4 43 -3.2 43 -10 43 C-10 50.26 -10 57.52 -10 65 C-10.33 65 -10.66 65 -11 65 C-11 58.07 -11 51.14 -11 44 C-11.66 44 -12.32 44 -13 44 C-13 50.93 -13 57.86 -13 65 C-13.33 65 -13.66 65 -14 65 C-14 57.74 -14 50.48 -14 43 C-18.455 43.495 -18.455 43.495 -23 44 C-24.65 47.96 -26.3 51.92 -28 56 C-28.66 56 -29.32 56 -30 56 C-31.65 52.04 -33.3 48.08 -35 44 C-36.65 44.020625 -38.3 44.04125 -40 44.0625 C-44.76775153 44.06866785 -49.28980815 43.71097236 -54 43 C-54.2475 43.7425 -54.495 44.485 -54.75 45.25 C-56.09147301 48.20124062 -57.60905526 49.84814974 -60 52 C-60.83905565 50.87926138 -61.67107831 49.75325453 -62.5 48.625 C-62.9640625 47.99851563 -63.428125 47.37203125 -63.90625 46.7265625 C-65 45 -65 45 -65 43 C-66.27230469 43.17273438 -67.54460937 43.34546875 -68.85546875 43.5234375 C-74.05894757 44.10013008 -79.09644758 43.93757243 -84.3125 43.625 C-85.19228516 43.58117187 -86.07207031 43.53734375 -86.97851562 43.4921875 C-90.79246838 43.28367983 -94.30727701 43.01744707 -98 42 C-99.11375 41.7215625 -99.11375 41.7215625 -100.25 41.4375 C-100.8275 41.293125 -101.405 41.14875 -102 41 C-101.34 41 -100.68 41 -100 41 C-100 39.02 -100 37.04 -100 35 C-99.34 35 -98.68 35 -98 35 C-97.79375 34.236875 -97.5875 33.47375 -97.375 32.6875 C-91.47936245 16.87647202 -80.48627726 5.18825124 -65.2890625 -2.09765625 C-61.17460028 -3.71956883 -56.91815511 -4.88726345 -52.66015625 -6.0703125 C-49.85822479 -6.70288049 -49.85822479 -6.70288049 -49 -9 C-33.59454404 -14.15026548 -12.9867527 -8.48783556 0 0 Z " fill="#FDFAFD" transform="translate(129,48)"/>
<path d="M0 0 C4.1350592 0.64323143 5.83377441 2.52804709 8.8125 5.4375 C10.07487731 7.96225462 9.91106404 9.74950466 9.875 12.5625 C9.86597656 13.47257812 9.85695312 14.38265625 9.84765625 15.3203125 C9.83605469 16.01898438 9.82445312 16.71765625 9.8125 17.4375 C13.54094267 17.79010228 17.0952131 17.95876261 20.8125 17.4375 C23.70549854 14.71597764 23.70549854 14.71597764 25.8125 11.4375 C29.92082923 8.63636644 33.62046307 7.78040232 38.51953125 7.9609375 C42.81980131 8.85469039 45.61646505 11.56797549 48.8125 14.4375 C49.54082031 15.03691406 50.26914063 15.63632812 51.01953125 16.25390625 C58.24575781 22.28227183 58.24575781 22.28227183 59.21875 27.69921875 C59.46252356 34.0068597 58.09990765 37.4616727 54.22265625 42.4296875 C52.75396694 44.52084069 52.09936601 45.90693201 51.8125 48.4375 C52.7787501 50.45402194 53.77958324 52.45429982 54.8125 54.4375 C54.8125 55.7575 54.8125 57.0775 54.8125 58.4375 C55.51375 58.37949219 56.215 58.32148437 56.9375 58.26171875 C65.05914081 57.87549942 69.5455177 59.60691362 75.53125 64.98046875 C76.8125 66.4375 76.8125 66.4375 76.8125 68.4375 C74.1725 68.4375 71.5325 68.4375 68.8125 68.4375 C69.1425 69.0975 69.4725 69.7575 69.8125 70.4375 C69.94665472 73.1098621 69.85568541 75.76000488 69.8125 78.4375 C72.7825 78.4375 75.7525 78.4375 78.8125 78.4375 C78.8125 75.7975 78.8125 73.1575 78.8125 70.4375 C81.1225 70.4375 83.4325 70.4375 85.8125 70.4375 C85.8125 77.6975 85.8125 84.9575 85.8125 92.4375 C83.8325 92.4375 81.8525 92.4375 79.8125 92.4375 C79.8125 89.4675 79.8125 86.4975 79.8125 83.4375 C76.1825 83.4375 72.5525 83.4375 68.8125 83.4375 C68.8125 86.7375 68.8125 90.0375 68.8125 93.4375 C71.4525 93.7675 74.0925 94.0975 76.8125 94.4375 C76.5598068 97.84885826 75.57745524 98.65687511 73 101.0625 C68.39359474 104.49472353 65.853583 105.70038293 60.0625 105.5625 C59.07765625 105.54445313 58.0928125 105.52640625 57.078125 105.5078125 C56.33046875 105.48460938 55.5828125 105.46140625 54.8125 105.4375 C54.27855821 106.8492783 53.76084896 108.26720244 53.25 109.6875 C52.81494141 110.87085938 52.81494141 110.87085938 52.37109375 112.078125 C51.74946082 114.70376339 51.82471778 115.94746566 52.8125 118.4375 C53.658125 119.4275 54.50375 120.4175 55.375 121.4375 C59.00321719 126.32082721 58.64260722 131.61861116 57.8125 137.4375 C55.07438253 144.21760039 47.24425903 149.22162049 40.8125 152.4375 C35.20522183 152.81131854 31.64477462 152.62240827 26.8125 149.4375 C26.255625 148.550625 25.69875 147.66375 25.125 146.75 C23.03431816 144.18249116 23.03431816 144.18249116 20.12109375 144.1171875 C17.33543137 144.12430286 14.58935057 144.2220547 11.8125 144.4375 C11.85890625 145.02917969 11.9053125 145.62085938 11.953125 146.23046875 C12.14145616 150.35357583 12.2193902 152.75450573 10.0625 156.375 C6.73860004 159.42190829 5.28629798 160.49645192 0.6875 160.3125 C-5.41129293 158.93535321 -11.1491824 157.37638748 -15.75 153 C-17.20901819 150.3991415 -17.67754148 148.34669195 -18.1875 145.4375 C-16.55554688 145.39882813 -16.55554688 145.39882813 -14.890625 145.359375 C3.16152617 144.74314105 17.53932121 139.01552049 30.8125 126.4375 C39.3278297 116.49052117 44.1208877 106.17342159 46.8125 93.4375 C45.86375 93.14875 44.915 92.86 43.9375 92.5625 C40.8125 91.4375 40.8125 91.4375 38.8125 89.4375 C38.58697762 86.74587575 38.4881671 84.19080256 38.5 81.5 C38.47583008 80.40655273 38.47583008 80.40655273 38.45117188 79.29101562 C38.44849619 76.37184193 38.45157607 74.04971568 39.95703125 71.49609375 C42.50272469 70.04370865 44.92368295 69.75847967 47.8125 69.4375 C44.01087852 52.57813516 37.93850841 37.26048034 23.1875 27 C8.43125703 17.97384451 -6.44839766 17.99800559 -23.1875 18.4375 C-21.05170748 11.04505471 -18.94119953 6.56476082 -12.1875 2.4375 C-8.1863865 0.92356516 -4.21006866 0.57785256 0 0 Z " fill="#85389A" transform="translate(103.1875,20.5625)"/>
<path d="M0 0 C9.9 0 19.8 0 30 0 C27.49468607 5.01062786 24.18527415 7.89636565 19 10 C16.203125 10.1953125 16.203125 10.1953125 13.25 10.125 C11.77273437 10.09792969 11.77273437 10.09792969 10.265625 10.0703125 C9.14414063 10.03550781 9.14414063 10.03550781 8 10 C7.46605821 11.4117783 6.94834896 12.82970244 6.4375 14.25 C6.14746094 15.03890625 5.85742188 15.8278125 5.55859375 16.640625 C4.93696082 19.26626339 5.01221778 20.50996566 6 23 C6.845625 23.99 7.69125 24.98 8.5625 26 C12.19071719 30.88332721 11.83010722 36.18111116 11 42 C8.26188253 48.78010039 0.43175903 53.78412049 -6 57 C-11.60727817 57.37381854 -15.16772538 57.18490827 -20 54 C-20.556875 53.113125 -21.11375 52.22625 -21.6875 51.3125 C-23.77818184 48.74499116 -23.77818184 48.74499116 -26.69140625 48.6796875 C-29.47706863 48.68680286 -32.22314943 48.7845547 -35 49 C-34.95359375 49.59167969 -34.9071875 50.18335938 -34.859375 50.79296875 C-34.67104384 54.91607583 -34.5931098 57.31700573 -36.75 60.9375 C-40.07389996 63.98440829 -41.52620202 65.05895192 -46.125 64.875 C-52.22379293 63.49785321 -57.9616824 61.93888748 -62.5625 57.5625 C-64.02151819 54.9616415 -64.49004148 52.90919195 -65 50 C-63.36804688 49.96132812 -63.36804688 49.96132812 -61.703125 49.921875 C-43.65097383 49.30564105 -29.27317879 43.57802049 -16 31 C-7.86046125 21.49199238 -3.57979676 11.93265587 0 0 Z " fill="#533899" transform="translate(150,116)"/>
<path d="M0 0 C1.01578125 -0.01160156 2.0315625 -0.02320313 3.078125 -0.03515625 C9.85709587 -0.00908329 15.63207151 1.05570746 22 3.375 C22 3.705 22 4.035 22 4.375 C20.71867187 4.44976562 19.43734375 4.52453125 18.1171875 4.6015625 C0.16706395 5.87202888 -12.99972163 10.72910459 -25.6875 24.0625 C-31.07994283 30.51806102 -35.35204182 38.13520912 -37 46.375 C-43.93 46.375 -50.86 46.375 -58 46.375 C-54.40866012 30.21397053 -46.30387211 17.9608236 -32.40234375 8.8359375 C-21.97066753 2.4921214 -12.24197832 -0.13981955 0 0 Z " fill="#A7389A" transform="translate(88,41.625)"/>
<path d="M0 0 C6.93 0 13.86 0 21 0 C21.53625 1.44375 22.0725 2.8875 22.625 4.375 C28.5910816 19.16504144 37.58180146 29.87950418 52 37 C60.50161377 40.25753972 68.9281578 41.66769809 78 42 C68.87463419 48.08357721 54.42208409 47.39136267 44.00390625 45.3125 C28.02753881 41.11279772 16.53028206 31.22105443 7 18 C6.48695312 17.37996094 5.97390625 16.75992188 5.4453125 16.12109375 C3.64970874 13.48592391 2.78485386 10.90755188 1.8125 7.875 C1.46832031 6.82054688 1.12414062 5.76609375 0.76953125 4.6796875 C0 2 0 2 0 0 Z " fill="#863599" transform="translate(30,116)"/>
<path d="M0 0 C0.495 0.99 0.495 0.99 1 2 C-1.64 2 -4.28 2 -7 2 C-6.67 2.66 -6.34 3.32 -6 4 C-5.86584528 6.6723621 -5.95681459 9.32250488 -6 12 C-3.03 12 -0.06 12 3 12 C3 9.36 3 6.72 3 4 C5.31 4 7.62 4 10 4 C10 11.26 10 18.52 10 26 C8.02 26 6.04 26 4 26 C4 23.03 4 20.06 4 17 C0.37 17 -3.26 17 -7 17 C-7 20.3 -7 23.6 -7 27 C-4.36 27.33 -1.72 27.66 1 28 C1 28.33 1 28.66 1 29 C-8.9 29 -18.8 29 -29 29 C-29 28.34 -29 27.68 -29 27 C-29.94875 26.71125 -30.8975 26.4225 -31.875 26.125 C-35 25 -35 25 -37 23 C-37.22552238 20.30837575 -37.3243329 17.75330256 -37.3125 15.0625 C-37.32861328 14.33353516 -37.34472656 13.60457031 -37.36132812 12.85351562 C-37.36619489 7.54387525 -37.36619489 7.54387525 -35.6796875 5.0390625 C-33.23455289 3.52649086 -30.82386241 3.31376249 -28 3 C-28 2.34 -28 1.68 -28 1 C-18.76 0.67 -9.52 0.34 0 0 Z " fill="#ECE5F3" transform="translate(179,87)"/>
<path d="M0 0 C4.1350592 0.64323143 5.83377441 2.52804709 8.8125 5.4375 C10.07487731 7.96225462 9.91106404 9.74950466 9.875 12.5625 C9.86597656 13.47257812 9.85695312 14.38265625 9.84765625 15.3203125 C9.83605469 16.01898438 9.82445312 16.71765625 9.8125 17.4375 C16.56116719 18.31872246 16.56116719 18.31872246 22.65625 16.1015625 C24.1826653 14.28812561 24.1826653 14.28812561 25.8125 11.4375 C26.3075 13.4175 26.3075 13.4175 26.8125 15.4375 C23.20292389 18.7285841 20.68612847 19.98413921 15.8125 20.4375 C16.8025 21.4275 17.7925 22.4175 18.8125 23.4375 C2.8125 19.4375 2.8125 19.4375 0.89453125 18.8828125 C-1.58279811 18.35295219 -3.85748254 18.32511618 -6.390625 18.33984375 C-7.3703125 18.34306641 -8.35 18.34628906 -9.359375 18.34960938 C-10.37515625 18.35798828 -11.3909375 18.36636719 -12.4375 18.375 C-13.46875 18.37951172 -14.5 18.38402344 -15.5625 18.38867188 C-18.10422573 18.40043912 -20.64583319 18.41687989 -23.1875 18.4375 C-21.05170748 11.04505471 -18.94119953 6.56476082 -12.1875 2.4375 C-8.1863865 0.92356516 -4.21006866 0.57785256 0 0 Z " fill="#9D3799" transform="translate(103.1875,20.5625)"/>
<path d="M0 0 C2.97 0 5.94 0 9 0 C9.84069415 1.60032137 10.67231505 3.20541171 11.5 4.8125 C11.9640625 5.70582031 12.428125 6.59914063 12.90625 7.51953125 C14 10 14 10 14 13 C14.66 13 15.32 13 16 13 C16.19335938 12.39671875 16.38671875 11.7934375 16.5859375 11.171875 C16.84632812 10.37265625 17.10671875 9.5734375 17.375 8.75 C17.75785156 7.56664063 17.75785156 7.56664063 18.1484375 6.359375 C19 4 19 4 21 0 C23.97 0 26.94 0 30 0 C30 7.26 30 14.52 30 22 C27.69 22 25.38 22 23 22 C22.67 19.03 22.34 16.06 22 13 C20.68 15.97 19.36 18.94 18 22 C16.02 22 14.04 22 12 22 C10.68 19.03 9.36 16.06 8 13 C7.67 15.97 7.34 18.94 7 22 C4.69 22 2.38 22 0 22 C0 14.74 0 7.48 0 0 Z " fill="#82499B" transform="translate(85,91)"/>
<path d="M0 0 C0.495 1.485 0.495 1.485 1 3 C-0.32 3.33 -1.64 3.66 -3 4 C-3 4.99 -3 5.98 -3 7 C-4.32 7 -5.64 7 -7 7 C-7 7.66 -7 8.32 -7 9 C-7.66 9.33 -8.32 9.66 -9 10 C-6.525 10.99 -6.525 10.99 -4 12 C-4 12.33 -4 12.66 -4 13 C-7.3 13.33 -10.6 13.66 -14 14 C-13.87625 16.0728125 -13.87625 16.0728125 -13.75 18.1875 C-13.75 21.66905985 -13.90986587 22.84870342 -15.75 25.9375 C-19.07389996 28.98440829 -20.52620202 30.05895192 -25.125 29.875 C-31.22379293 28.49785321 -36.9616824 26.93888748 -41.5625 22.5625 C-43.02151819 19.9616415 -43.49004148 17.90919195 -44 15 C-42.36804688 14.96132812 -42.36804688 14.96132812 -40.703125 14.921875 C-24.96978317 14.38479666 -12.13164985 10.51409653 0 0 Z " fill="#614099" transform="translate(129,151)"/>
<path d="M0 0 C9.9 0 19.8 0 30 0 C27.49468607 5.01062786 24.18527415 7.89636565 19 10 C16.203125 10.1953125 16.203125 10.1953125 13.25 10.125 C12.26515625 10.10695313 11.2803125 10.08890625 10.265625 10.0703125 C9.14414063 10.03550781 9.14414063 10.03550781 8 10 C5.16016764 16.84737812 5.16016764 16.84737812 6 24 C5.34 24.33 4.68 24.66 4 25 C3.34 24.67 2.68 24.34 2 24 C2.33 21.36 2.66 18.72 3 16 C3.66 16 4.32 16 5 16 C4.67 14.68 4.34 13.36 4 12 C-0.06024321 14.03802135 -0.06024321 14.03802135 -2 18 C-2.99 18 -3.98 18 -5 18 C-5 18.66 -5 19.32 -5 20 C-5.66 20 -6.32 20 -7 20 C-5.69899023 15.996893 -4.2874047 12.05409923 -2.78125 8.125 C-1.79346061 5.43821287 -0.9052377 2.7157131 0 0 Z " fill="#5E3E99" transform="translate(150,116)"/>
<path d="M0 0 C2.31 0 4.62 0 7 0 C7 2.64 7 5.28 7 8 C8.32 8 9.64 8 11 8 C11.268125 7.4225 11.53625 6.845 11.8125 6.25 C14.1875 1.75 14.1875 1.75 16 0 C19.6875 -0.25 19.6875 -0.25 23 0 C21.79208435 2.61715058 20.52287763 4.62290976 18.75 6.9375 C16.67611712 9.78418626 16.67611712 9.78418626 17.5 12.4375 C17.995 13.283125 18.49 14.12875 19 15 C19.34289062 15.61617187 19.68578125 16.23234375 20.0390625 16.8671875 C21.00183342 18.59186346 21.99853128 20.29750318 23 22 C19.8125 22.4375 19.8125 22.4375 16 22 C14.41786112 20.32327673 13.35627344 18.64129219 12.23828125 16.62890625 C10.67316483 14.57006225 9.50487052 14.37441223 7 14 C7 16.64 7 19.28 7 22 C4.69 22 2.38 22 0 22 C0 14.74 0 7.48 0 0 Z " fill="#B35BA7" transform="translate(9,91)"/>
<path d="M0 0 C6.6 0 13.2 0 20 0 C20 1.65 20 3.3 20 5 C15.38 5 10.76 5 6 5 C6 6.32 6 7.64 6 9 C9.63 9 13.26 9 17 9 C17 10.32 17 11.64 17 13 C13.37 13 9.74 13 6 13 C6 14.32 6 15.64 6 17 C10.62 17 15.24 17 20 17 C20 18.65 20 20.3 20 22 C13.4 22 6.8 22 0 22 C0 14.74 0 7.48 0 0 Z " fill="#8659A1" transform="translate(119,91)"/>
<path d="M0 0 C6.27 0 12.54 0 19 0 C19 1.65 19 3.3 19 5 C15.04 5 11.08 5 7 5 C7 6.32 7 7.64 7 9 C10.3 9 13.6 9 17 9 C17 10.32 17 11.64 17 13 C13.7 13 10.4 13 7 13 C7 14.32 7 15.64 7 17 C10.96 17 14.92 17 19 17 C19 18.65 19 20.3 19 22 C12.73 22 6.46 22 0 22 C0 14.74 0 7.48 0 0 Z " fill="#A353A1" transform="translate(35,91)"/>
<path d="M0 0 C0.33 0.99 0.66 1.98 1 3 C2.65 2.34 4.3 1.68 6 1 C5.49396008 3.16874252 5.00016187 4.99967627 4 7 C4.66 7.33 5.32 7.66 6 8 C6.625 10.5625 6.625 10.5625 7 13 C7.99 12.67 8.98 12.34 10 12 C10 11.34 10 10.68 10 10 C9.34 10 8.68 10 8 10 C8 8.35 8 6.7 8 5 C8.33 6.32 8.66 7.64 9 9 C10.32 9 11.64 9 13 9 C13.33 10.98 13.66 12.96 14 15 C14.70125 14.94199219 15.4025 14.88398437 16.125 14.82421875 C22.30988579 14.53010054 26.27752671 15.03725292 31.44140625 18.515625 C33 20 33 20 35 24 C25.76 24 16.52 24 7 24 C4.6875 16.4375 4.6875 16.4375 3.97924805 14.09936523 C2.58410878 9.58858738 0.93093189 5.30920578 -1 1 C-0.67 0.67 -0.34 0.34 0 0 Z " fill="#734398" transform="translate(144,64)"/>
<path d="M0 0 C1.98 0 3.96 0 6 0 C6 2.64 6 5.28 6 8 C9.63 8 13.26 8 17 8 C17 5.36 17 2.72 17 0 C18.98 0 20.96 0 23 0 C23 6.93 23 13.86 23 21 C21.02 21 19.04 21 17 21 C17 18.03 17 15.06 17 12 C13.37 12 9.74 12 6 12 C6 14.97 6 17.94 6 21 C4.02 21 2.04 21 0 21 C0 14.07 0 7.14 0 0 Z " fill="#5B3A93" transform="translate(166,92)"/>
<path d="M0 0 C3.38328038 1.23293983 5.97201119 2.61994346 8.8125 4.8125 C18.43920205 11.35865739 30.52528215 13.76094338 42 14 C35.81251062 18.12499292 28.91281415 18.35935582 21.6875 18.3125 C20.85951904 18.31121094 20.03153809 18.30992187 19.1784668 18.30859375 C12.78864824 18.20870406 7.00838581 17.26833442 1 15 C1.33 14.01 1.66 13.02 2 12 C2.66 12 3.32 12 4 12 C4.66 10.02 5.32 8.04 6 6 C3.69 6.33 1.38 6.66 -1 7 C-0.67 4.69 -0.34 2.38 0 0 Z " fill="#754299" transform="translate(66,144)"/>
<path d="M0 0 C2.97 0 5.94 0 9 0 C9.84069415 1.60032137 10.67231505 3.20541171 11.5 4.8125 C11.9640625 5.70582031 12.428125 6.59914063 12.90625 7.51953125 C14 10 14 10 14 13 C14.66 13 15.32 13 16 13 C16.66 10.69 17.32 8.38 18 6 C18.6875 7.6875 18.6875 7.6875 19 10 C17.8125 12.6875 17.8125 12.6875 16 15 C13.8125 15.8125 13.8125 15.8125 12 16 C11.67 17.32 11.34 18.64 11 20 C10.01 17.69 9.02 15.38 8 13 C7.67 15.97 7.34 18.94 7 22 C4.69 22 2.38 22 0 22 C0 14.74 0 7.48 0 0 Z " fill="#9563A6" transform="translate(85,91)"/>
<path d="M0 0 C0.75732422 0.00966797 1.51464844 0.01933594 2.29492188 0.02929688 C3.08060547 0.05443359 3.86628906 0.07957031 4.67578125 0.10546875 C5.87170898 0.12577148 5.87170898 0.12577148 7.09179688 0.14648438 C9.05758092 0.18179786 11.02301707 0.23560428 12.98828125 0.29296875 C12.98828125 1.94296875 12.98828125 3.59296875 12.98828125 5.29296875 C6.55328125 5.78796875 6.55328125 5.78796875 -0.01171875 6.29296875 C-0.01171875 9.92296875 -0.01171875 13.55296875 -0.01171875 17.29296875 C3.94828125 17.62296875 7.90828125 17.95296875 11.98828125 18.29296875 C11.98828125 19.61296875 11.98828125 20.93296875 11.98828125 22.29296875 C9.38349242 22.37390005 6.78121472 22.43342309 4.17578125 22.48046875 C3.06879883 22.51817383 3.06879883 22.51817383 1.93945312 22.55664062 C-0.96390656 22.59605275 -3.37794179 22.61546037 -6 21.28125 C-7.6319726 18.07401428 -7.44296403 14.80517384 -7.38671875 11.29296875 C-7.39832031 10.56851563 -7.40992188 9.8440625 -7.421875 9.09765625 C-7.39257845 3.80474669 -7.39257845 3.80474669 -5.73754883 1.58081055 C-3.63531804 0.01209256 -2.59725735 -0.05858475 0 0 Z " fill="#7B52A0" transform="translate(149.01171875,90.70703125)"/>
<path d="M0 0 C3.1875 -0.5 3.1875 -0.5 7 0 C9.15024236 2.42700622 10.59103494 5.09116891 12 8 C14.12038635 5.38485683 16.13091744 2.80362384 18 0 C21.625 -0.1875 21.625 -0.1875 25 0 C23.71593862 3.54202439 22.18105018 6.29721266 19.9375 9.3125 C16.94653326 13.64976563 16.19008364 16.77270003 16 22 C13.69 22 11.38 22 9 22 C8.979375 20.88625 8.95875 19.7725 8.9375 18.625 C8.34810786 13.52902492 5.67670742 10.26428741 2.59375 6.296875 C1.07429853 4.10707729 0.42935189 2.59996419 0 0 Z " fill="#893D94" transform="translate(57,91)"/>
<path d="M0 0 C0.99 0 1.98 0 3 0 C3 7.26 3 14.52 3 22 C9.27 22 15.54 22 22 22 C21.39144973 25.04275136 20.77610498 28.00645224 20 31 C19.67 29.02 19.34 27.04 19 25 C12.07 25 5.14 25 -2 25 C-1.34 27.31 -0.68 29.62 0 32 C-0.99 31.34 -1.98 30.68 -3 30 C-3.1875 26.375 -3.1875 26.375 -3 23 C-4.32 22.67 -5.64 22.34 -7 22 C-5.02 21.67 -3.04 21.34 -1 21 C-1.45632812 20.40832031 -1.91265625 19.81664063 -2.3828125 19.20703125 C-2.95773438 18.41683594 -3.53265625 17.62664062 -4.125 16.8125 C-4.70507812 16.03519531 -5.28515625 15.25789063 -5.8828125 14.45703125 C-7 12 -7 12 -6.33203125 9.4375 C-5.1500029 7.27449211 -3.97467975 5.20678507 -2.5625 3.1875 C-2.15128906 2.58292969 -1.74007813 1.97835937 -1.31640625 1.35546875 C-0.88199219 0.90816406 -0.44757812 0.46085937 0 0 Z " fill="#FAEDFA" transform="translate(32,91)"/>
<path d="M0 0 C1.09248047 0.00193359 1.09248047 0.00193359 2.20703125 0.00390625 C7.59351504 0.09351504 7.59351504 0.09351504 9.875 2.375 C9.43737193 5.54780351 8.10138495 8.43167611 6.875 11.375 C6.24851562 11.27960937 5.62203125 11.18421875 4.9765625 11.0859375 C4.15929687 10.97507812 3.34203125 10.86421875 2.5 10.75 C1.68789062 10.63398437 0.87578125 10.51796875 0.0390625 10.3984375 C-0.67507812 10.39070313 -1.38921875 10.38296875 -2.125 10.375 C-2.785 11.035 -3.445 11.695 -4.125 12.375 C-6.5078125 12.7890625 -6.5078125 12.7890625 -9.25 13 C-10.16007812 13.07476562 -11.07015625 13.14953125 -12.0078125 13.2265625 C-13.05582031 13.30003906 -13.05582031 13.30003906 -14.125 13.375 C-14.125 12.055 -14.125 10.735 -14.125 9.375 C-13.465 9.375 -12.805 9.375 -12.125 9.375 C-12.2075 8.6325 -12.29 7.89 -12.375 7.125 C-12.125 4.375 -12.125 4.375 -10.6171875 2.2265625 C-7.18017321 -0.32695596 -4.10619711 -0.13956663 0 0 Z " fill="#A6379A" transform="translate(97.125,23.625)"/>
<path d="M0 0 C1.27290894 0.00193359 1.27290894 0.00193359 2.5715332 0.00390625 C8.71244123 0.09799275 14.18731836 0.85612335 19.875 3.3125 C19.875 3.6425 19.875 3.9725 19.875 4.3125 C18.60527344 4.38726562 17.33554688 4.46203125 16.02734375 4.5390625 C4.6160983 5.35987138 -4.81033645 7.34270756 -15.125 12.3125 C-15.125 11.6525 -15.125 10.9925 -15.125 10.3125 C-14.34125 9.85875 -13.5575 9.405 -12.75 8.9375 C-10.0014051 7.23598887 -9.24578968 6.26730916 -8.125 3.3125 C-9.775 2.9825 -11.425 2.6525 -13.125 2.3125 C-8.7215121 -0.17381889 -4.95486015 -0.03068916 0 0 Z " fill="#9D4094" transform="translate(90.125,41.6875)"/>
<path d="M0 0 C0.66 0 1.32 0 2 0 C2.16769085 2.93458987 2.15840667 4.68735525 0.8125 7.34375 C-0.31972954 10.03492221 -0.31972954 10.03492221 1.1171875 12.67578125 C1.98730469 13.98095703 1.98730469 13.98095703 2.875 15.3125 C3.44992188 16.19550781 4.02484375 17.07851562 4.6171875 17.98828125 C5.07351562 18.65214844 5.52984375 19.31601563 6 20 C2.8125 20.4375 2.8125 20.4375 -1 20 C-2.54243783 18.32437116 -3.62087063 16.56930455 -4.80078125 14.625 C-5.97407097 12.7088753 -5.97407097 12.7088753 -8.8125 12.0625 C-9.8953125 12.0315625 -9.8953125 12.0315625 -11 12 C-10.67 10.35 -10.34 8.7 -10 7 C-8.02 7 -6.04 7 -4 7 C-3.71125 6.401875 -3.4225 5.80375 -3.125 5.1875 C-2 3 -2 3 0 0 Z " fill="#A43496" transform="translate(26,93)"/>
<path d="M0 0 C5.94 0 11.88 0 18 0 C17.67 0.99 17.34 1.98 17 3 C17 2.34 17 1.68 17 1 C11.72 1 6.44 1 1 1 C1.33 3.97 1.66 6.94 2 10 C2.99 10 3.98 10 5 10 C5.33 11.98 5.66 13.96 6 16 C9.96 16.33 13.92 16.66 18 17 C18 17.99 18 18.98 18 20 C12.06 20 6.12 20 0 20 C0 13.4 0 6.8 0 0 Z " fill="#6D3793" transform="translate(120,92)"/>
<path d="M0 0 C2.31 0 4.62 0 7 0 C6.01 0.495 6.01 0.495 5 1 C4.84850702 4.62885324 4.84850702 4.62885324 6 8 C5.91188555 10.21138855 5.7570216 12.42042185 5.5625 14.625 C5.46066406 15.81351563 5.35882813 17.00203125 5.25390625 18.2265625 C5.17011719 19.14179687 5.08632812 20.05703125 5 21 C3.35 21 1.7 21 0 21 C0 14.07 0 7.14 0 0 Z " fill="#803892" transform="translate(86,92)"/>
<path d="M0 0 C0.33 0.99 0.66 1.98 1 3 C4.63 3 8.26 3 12 3 C12 4.65 12 6.3 12 8 C13.32 8 14.64 8 16 8 C16 5.36 16 2.72 16 0 C16.33 0 16.66 0 17 0 C17 4.62 17 9.24 17 14 C16.34 14 15.68 14 15 14 C14.67 14.66 14.34 15.32 14 16 C14 14.68 14 13.36 14 12 C9.38 12 4.76 12 0 12 C0 10.68 0 9.36 0 8 C3.63 8 7.26 8 11 8 C11 6.68 11 5.36 11 4 C7.37 4 3.74 4 0 4 C0 2.68 0 1.36 0 0 Z " fill="#E6DAED" transform="translate(125,96)"/>
<path d="M0 0 C5.94 0 11.88 0 18 0 C18 0.99 18 1.98 18 3 C14.37 3 10.74 3 7 3 C7 2.34 7 1.68 7 1 C5.02 1 3.04 1 1 1 C1 6.94 1 12.88 1 19 C2.32 18.34 3.64 17.68 5 17 C8.015625 16.8046875 8.015625 16.8046875 11.25 16.875 C12.32765625 16.89304687 13.4053125 16.91109375 14.515625 16.9296875 C15.74539062 16.96449219 15.74539062 16.96449219 17 17 C17 17.99 17 18.98 17 20 C11.39 20 5.78 20 0 20 C0 13.4 0 6.8 0 0 Z " fill="#91398F" transform="translate(36,92)"/>
<path d="M0 0 C0.99 0 1.98 0 3 0 C3 0.66 3 1.32 3 2 C3.65484375 1.98839844 4.3096875 1.97679687 4.984375 1.96484375 C12.0436634 1.89504853 18.97575988 2.31351231 26 3 C22.16818675 5.55454217 20.52643718 6.12371516 15.9921875 6.09765625 C15.00605469 6.09443359 14.01992187 6.09121094 13.00390625 6.08789062 C11.97136719 6.07951172 10.93882813 6.07113281 9.875 6.0625 C8.31458984 6.05573242 8.31458984 6.05573242 6.72265625 6.04882812 C4.14838038 6.03701952 1.57421854 6.02055075 -1 6 C-1.625 4.125 -1.625 4.125 -2 2 C-1.34 1.34 -0.68 0.68 0 0 Z " fill="#663596" transform="translate(82,155)"/>
<path d="M0 0 C0.33 0 0.66 0 1 0 C1.33 3.63 1.66 7.26 2 11 C5.96 11.33 9.92 11.66 14 12 C14 13.32 14 14.64 14 16 C11.37472811 16.05382106 8.75055287 16.09358313 6.125 16.125 C5.37863281 16.14175781 4.63226563 16.15851563 3.86328125 16.17578125 C1.90805539 16.1933959 -0.04742021 16.10320189 -2 16 C-4 14 -4 14 -4.125 11.375 C-4.08375 10.59125 -4.0425 9.8075 -4 9 C-3.01 8.67 -2.02 8.34 -1 8 C-0.67 5.36 -0.34 2.72 0 0 Z " fill="#643E91" transform="translate(147,97)"/>
<path d="M0 0 C5.63797249 -0.34518199 9.11239987 0.36069593 14 3 C14.33 3.99 14.66 4.98 15 6 C9.06 6 3.12 6 -3 6 C-3 5.34 -3 4.68 -3 4 C-2.34 4 -1.68 4 -1 4 C-0.67 2.68 -0.34 1.36 0 0 Z " fill="#643994" transform="translate(163,81)"/>
<path d="M0 0 C2.31 0 4.62 0 7 0 C7 0.66 7 1.32 7 2 C7.99 1.34 8.98 0.68 10 0 C12.0847168 -0.22705078 12.0847168 -0.22705078 14.44921875 -0.1953125 C15.72055664 -0.18564453 15.72055664 -0.18564453 17.01757812 -0.17578125 C18.33918945 -0.15064453 18.33918945 -0.15064453 19.6875 -0.125 C21.02651367 -0.11146484 21.02651367 -0.11146484 22.39257812 -0.09765625 C24.59532314 -0.07409748 26.79752588 -0.04120329 29 0 C28.40348694 3.02266703 27.77330333 6.01725858 27 9 C26.67 7.02 26.34 5.04 26 3 C19.07 3 12.14 3 5 3 C5.66 5.31 6.32 7.62 7 10 C6.01 9.34 5.02 8.68 4 8 C3.8125 4.375 3.8125 4.375 4 1 C2.68 0.67 1.36 0.34 0 0 Z " fill="#F5DAF5" transform="translate(25,113)"/>
<path d="M0 0 C3.25 -0.375 3.25 -0.375 7 0 C9.5 2.8125 9.5 2.8125 11 6 C10.67 6.99 10.34 7.98 10 9 C9.34 8.67 8.68 8.34 8 8 C8 7.01 8 6.02 8 5 C7.34 5 6.68 5 6 5 C6.33 6.65 6.66 8.3 7 10 C7.66 10 8.32 10 9 10 C8.67 11.32 8.34 12.64 8 14 C6.84669053 12.42210402 5.70262073 10.8374518 4.5625 9.25 C3.92441406 8.36828125 3.28632812 7.4865625 2.62890625 6.578125 C1.1724919 4.27300875 0.44068179 2.65650428 0 0 Z " fill="#924A97" transform="translate(57,91)"/>
<path d="M0 0 C6.93 0 13.86 0 21 0 C20.67 0.66 20.34 1.32 20 2 C16.04 2 12.08 2 8 2 C7.731875 2.94875 7.46375 3.8975 7.1875 4.875 C6 8 6 8 3 10 C2.01 6.7 1.02 3.4 0 0 Z " fill="#97499B" transform="translate(30,116)"/>
<path d="M0 0 C4.95 0 9.9 0 15 0 C15 1.32 15 2.64 15 4 C12.87562788 4.19448477 10.75046809 4.38038289 8.625 4.5625 C7.44164062 4.66691406 6.25828125 4.77132812 5.0390625 4.87890625 C2 5 2 5 0 4 C0 2.68 0 1.36 0 0 Z M-1 4 C-0.67 5.32 -0.34 6.64 0 8 C-0.66 7.01 -1.32 6.02 -2 5 C-1.67 4.67 -1.34 4.34 -1 4 Z " fill="#6A3C94" transform="translate(146,92)"/>
<path d="M0 0 C2.21820597 1.78192376 4.05247 3.38228374 5.3359375 5.94921875 C5.40589764 7.6562461 5.42033904 9.36589878 5.3984375 11.07421875 C5.38941406 11.98429687 5.38039063 12.894375 5.37109375 13.83203125 C5.35949219 14.53070313 5.34789063 15.229375 5.3359375 15.94921875 C2.75602949 13.36931074 3.01994912 11.44677414 2.875 7.921875 C2.46358233 5.82979472 2.46358233 5.82979472 0.78125 4.23828125 C-2.5456109 2.48450474 -5.73231801 2.38351559 -9.4140625 2.26171875 C-10.11144531 2.22755859 -10.80882813 2.19339844 -11.52734375 2.15820312 C-13.23903358 2.0761358 -14.9515201 2.01098956 -16.6640625 1.94921875 C-16.6640625 1.61921875 -16.6640625 1.28921875 -16.6640625 0.94921875 C-3.63298915 -2.29407062 -3.63298915 -2.29407062 0 0 Z " fill="#A0539A" transform="translate(107.6640625,22.05078125)"/>
<path d="M0 0 C1.65 0 3.3 0 5 0 C5 1.65 5 3.3 5 5 C4.67 3.68 4.34 2.36 4 1 C3.01 1 2.02 1 1 1 C1.1135629 2.64666203 1.24117381 4.29236082 1.375 5.9375 C1.44460938 6.85402344 1.51421875 7.77054687 1.5859375 8.71484375 C1.72257813 9.46894531 1.85921875 10.22304687 2 11 C2.66 11.33 3.32 11.66 4 12 C4.4140625 14.06640625 4.4140625 14.06640625 4.625 16.5625 C4.69976563 17.38878906 4.77453125 18.21507813 4.8515625 19.06640625 C4.90054687 19.70449219 4.94953125 20.34257813 5 21 C3.35 21 1.7 21 0 21 C0 14.07 0 7.14 0 0 Z " fill="#99418B" transform="translate(10,92)"/>
<path d="M0 0 C0.33 0 0.66 0 1 0 C0.67 3.63 0.34 7.26 0 11 C-1.98 11 -3.96 11 -6 11 C-6.625 7.625 -6.625 7.625 -7 4 C-6.34 3.34 -5.68 2.68 -5 2 C-5 2.66 -5 3.32 -5 4 C-1.72226496 3.24849977 -1.72226496 3.24849977 0 0 Z " fill="#7A3398" transform="translate(103,102)"/>
<path d="M0 0 C2.96404505 2.80804268 5.44499019 5.18315774 7 9 C3.75 9.3125 3.75 9.3125 0 9 C-2.5 6.6875 -2.5 6.6875 -4 4 C-3.67 3.01 -3.34 2.02 -3 1 C-2.01 0.67 -1.02 0.34 0 0 Z " fill="#9D3E94" transform="translate(25,104)"/>
<path d="M0 0 C-0.33 0.99 -0.66 1.98 -1 3 C-0.67 3.66 -0.34 4.32 0 5 C-5.61 5 -11.22 5 -17 5 C-17.33 5.66 -17.66 6.32 -18 7 C-18 6.01 -18 5.02 -18 4 C-13.71 4 -9.42 4 -5 4 C-5 3.34 -5 2.68 -5 2 C-9.95 2 -14.9 2 -20 2 C-20 1.67 -20 1.34 -20 1 C-17.60429729 0.8312461 -15.20846637 0.66493164 -12.8125 0.5 C-12.13896484 0.45230469 -11.46542969 0.40460938 -10.77148438 0.35546875 C-7.17363248 0.10976179 -3.60627694 -0.05601984 0 0 Z " fill="#E5D8F1" transform="translate(102,161)"/>
<path d="M0 0 C0.33 1.32 0.66 2.64 1 4 C-2.60957611 7.2910841 -5.12637153 8.54663921 -10 9 C-9.01 9.99 -8.02 10.98 -7 12 C-9.31 11.34 -11.62 10.68 -14 10 C-14.33 8.68 -14.66 7.36 -15 6 C-14.33613281 6.06960937 -13.67226562 6.13921875 -12.98828125 6.2109375 C-7.79737594 6.68442635 -7.79737594 6.68442635 -3.22265625 4.6640625 C-1.69306709 2.84443334 -1.69306709 2.84443334 0 0 Z " fill="#98579B" transform="translate(129,32)"/>
<path d="M0 0 C0.66 0 1.32 0 2 0 C1.71125 0.845625 1.4225 1.69125 1.125 2.5625 C-0.00461877 6.0141129 -1.0022792 9.50797719 -2 13 C-8.93 13 -15.86 13 -23 13 C-22.67 12.01 -22.34 11.02 -22 10 C-22 10.66 -22 11.32 -22 12 C-19.41211799 11.99398167 -16.83620571 11.94659047 -14.25 11.875 C-13.52039062 11.87757812 -12.79078125 11.88015625 -12.0390625 11.8828125 C-9.57978402 11.85319703 -9.57978402 11.85319703 -6 11 C-3.13182909 7.61702919 -1.47041279 4.16616958 0 0 Z " fill="#AB5FA4" transform="translate(53,75)"/>
<path d="M0 0 C0.66 0 1.32 0 2 0 C4 3 4 3 5 5 C6.98 4.34 8.96 3.68 11 3 C9.52307692 8.66153846 9.52307692 8.66153846 6.875 10.375 C6.25625 10.58125 5.6375 10.7875 5 11 C5 10.34 5 9.68 5 9 C4.34 9 3.68 9 3 9 C3 7.68 3 6.36 3 5 C2.34 5 1.68 5 1 5 C0.67 3.35 0.34 1.7 0 0 Z " fill="#8F319A" transform="translate(63,96)"/>
<path d="M0 0 C4.95 0 9.9 0 15 0 C12 3 12 3 9.5625 3.0625 C8.2940625 3.0315625 8.2940625 3.0315625 7 3 C4.74867483 3.91568906 4.74867483 3.91568906 3 5 C2.01 4.34 1.02 3.68 0 3 C0 2.01 0 1.02 0 0 Z " fill="#5B3692" transform="translate(87,167)"/>
<path d="M0 0 C0.33 0.99 0.66 1.98 1 3 C-0.32 3.33 -1.64 3.66 -3 4 C-3 4.99 -3 5.98 -3 7 C-4.32 7 -5.64 7 -7 7 C-7 7.66 -7 8.32 -7 9 C-7.99 9.495 -7.99 9.495 -9 10 C-6.525 10.99 -6.525 10.99 -4 12 C-8.00200378 13.60080151 -11.04556236 12.29279692 -15 11 C-11.77653489 8.56705133 -8.51778015 6.18553082 -5.25 3.8125 C-4.26515625 3.09707031 -3.2803125 2.38164062 -2.265625 1.64453125 C-1.51796875 1.10183594 -0.7703125 0.55914062 0 0 Z " fill="#7157A3" transform="translate(129,151)"/>
<path d="M0 0 C0.92538169 3.70152678 1.08174162 4.63458162 0 8 C-3.39609044 6.80677904 -5.62433927 5.71504084 -8 3 C-8.66 2.34 -9.32 1.68 -10 1 C-6.7 0.67 -3.4 0.34 0 0 Z " fill="#933E99" transform="translate(127,39)"/>
<path d="M0 0 C-0.33 0.99 -0.66 1.98 -1 3 C-2.5823006 3.33820166 -4.16589375 3.67035939 -5.75 4 C-7.07257813 4.2784375 -7.07257813 4.2784375 -8.421875 4.5625 C-11 5 -11 5 -15 5 C-15 3.68 -15 2.36 -15 1 C-9.9752761 0.37470103 -5.07471573 -0.13012092 0 0 Z " fill="#A53FA1" transform="translate(100,42)"/>
<path d="M0 0 C1.19882813 0.00483398 1.19882813 0.00483398 2.421875 0.00976562 C3.246875 0.01814453 4.071875 0.02652344 4.921875 0.03515625 C5.76234375 0.03966797 6.6028125 0.04417969 7.46875 0.04882812 C9.53648901 0.06057664 11.60419124 0.07851103 13.671875 0.09765625 C13.671875 0.42765625 13.671875 0.75765625 13.671875 1.09765625 C5.751875 1.59265625 5.751875 1.59265625 -2.328125 2.09765625 C0.311875 2.42765625 2.951875 2.75765625 5.671875 3.09765625 C5.671875 3.42765625 5.671875 3.75765625 5.671875 4.09765625 C0.721875 4.09765625 -4.228125 4.09765625 -9.328125 4.09765625 C-8.998125 3.10765625 -8.668125 2.11765625 -8.328125 1.09765625 C-5.56446253 0.04678677 -2.93308759 -0.02095063 0 0 Z " fill="#E5BFE2" transform="translate(88.328125,37.90234375)"/>
<path d="M0 0 C1.23556641 0.01740234 1.23556641 0.01740234 2.49609375 0.03515625 C3.32238281 0.04417969 4.14867187 0.05320312 5 0.0625 C5.63808594 0.07410156 6.27617187 0.08570312 6.93359375 0.09765625 C6.93359375 0.42765625 6.93359375 0.75765625 6.93359375 1.09765625 C9.57359375 1.42765625 12.21359375 1.75765625 14.93359375 2.09765625 C14.93359375 2.42765625 14.93359375 2.75765625 14.93359375 3.09765625 C5.03359375 3.09765625 -4.86640625 3.09765625 -15.06640625 3.09765625 C-15.06640625 2.76765625 -15.06640625 2.43765625 -15.06640625 2.09765625 C-14.21175781 2.03707031 -13.35710937 1.97648437 -12.4765625 1.9140625 C-10.81947266 1.78837891 -10.81947266 1.78837891 -9.12890625 1.66015625 C-8.02675781 1.57894531 -6.92460937 1.49773437 -5.7890625 1.4140625 C-3.01405801 1.09157274 -2.60201448 0.12296855 0 0 Z " fill="#ECE1F8" transform="translate(165.06640625,112.90234375)"/>
<path d="M0 0 C0.66 0 1.32 0 2 0 C4.1519437 3.22791555 4.20086443 4.28400809 4 8 C3.01 8.33 2.02 8.66 1 9 C1 12.63 1 16.26 1 20 C0.67 20 0.34 20 0 20 C0.01160156 19.03578125 0.02320312 18.0715625 0.03515625 17.078125 C0.04417969 15.81484375 0.05320312 14.5515625 0.0625 13.25 C0.07990234 11.37054688 0.07990234 11.37054688 0.09765625 9.453125 C0.01932897 6.68347238 -0.31764979 4.63104405 -1 2 C-0.67 1.34 -0.34 0.68 0 0 Z " fill="#9048A3" transform="translate(91,93)"/>
<path d="M0 0 C1.093125 0.0825 2.18625 0.165 3.3125 0.25 C1.5625 4.125 1.5625 4.125 -0.6875 5.25 C-0.6875 4.26 -0.6875 3.27 -0.6875 2.25 C-1.8321875 3.3946875 -1.8321875 3.3946875 -3 4.5625 C-4.89583333 6.45833333 -6.79166667 8.35416667 -8.6875 10.25 C-10.0075 9.59 -11.3275 8.93 -12.6875 8.25 C-11.3675 8.25 -10.0475 8.25 -8.6875 8.25 C-8.419375 7.6725 -8.15125 7.095 -7.875 6.5 C-4.609375 0.3125 -4.609375 0.3125 0 0 Z " fill="#A95D9F" transform="translate(28.6875,90.75)"/>
<path d="M0 0 C1.98 0 3.96 0 6 0 C5.875 1.75 5.875 1.75 5 4 C2.1875 6.3125 2.1875 6.3125 -1 8 C-3.375 7.75 -3.375 7.75 -5 7 C-4.34 7 -3.68 7 -3 7 C-3 6.34 -3 5.68 -3 5 C-2.01 5 -1.02 5 0 5 C0 3.35 0 1.7 0 0 Z " fill="#584092" transform="translate(172,117)"/>
<path d="M0 0 C3.63 0 7.26 0 11 0 C11 1.32 11 2.64 11 4 C7.7 4 4.4 4 1 4 C0.67 2.68 0.34 1.36 0 0 Z " fill="#933C92" transform="translate(41,100)"/>
<path d="M0 0 C2.375 0.25 2.375 0.25 5 1 C6.3125 3.0625 6.3125 3.0625 7 5 C5.02 5.33 3.04 5.66 1 6 C1 6.99 1 7.98 1 9 C-1.64 9 -4.28 9 -7 9 C-7 8.67 -7 8.34 -7 8 C-4.69 8 -2.38 8 0 8 C0 5.36 0 2.72 0 0 Z " fill="#F7E2F6" transform="translate(16,105)"/>
<path d="M0 0 C5.19209404 -0.21192221 9.126739 0.4087311 14 2 C14 2.33 14 2.66 14 3 C3.605 3.99 3.605 3.99 -7 5 C-7 4.34 -7 3.68 -7 3 C-4.69 2.34 -2.38 1.68 0 1 C0 0.67 0 0.34 0 0 Z " fill="#984E94" transform="translate(96,43)"/>
<path d="M0 0 C0.99 0 1.98 0 3 0 C3 4.62 3 9.24 3 14 C2.67 14 2.34 14 2 14 C1.67 10.7 1.34 7.4 1 4 C0.4225 4.7425 -0.155 5.485 -0.75 6.25 C-2.72253526 8.66087643 -4.76044282 10.84042701 -7 13 C-5.85828608 9.67865043 -4.34101632 6.70347797 -2.5625 3.6875 C-2.15128906 2.99011719 -1.74007812 2.29273437 -1.31640625 1.57421875 C-0.88199219 1.05472656 -0.44757813 0.53523438 0 0 Z " fill="#F4E2F5" transform="translate(82,91)"/>
<path d="M0 0 C2.31 0 4.62 0 7 0 C5.375 3 5.375 3 3 6 C-0.25 6.375 -0.25 6.375 -3 6 C-3 5.34 -3 4.68 -3 4 C-2.34 4 -1.68 4 -1 4 C-0.67 2.68 -0.34 1.36 0 0 Z " fill="#6A349C" transform="translate(163,81)"/>
<path d="M0 0 C0.66 1.32 1.32 2.64 2 4 C1.01 4.33 0.02 4.66 -1 5 C-2.41829405 7.83658811 -3.15481797 10.60895068 -3.9375 13.6875 C-5 17 -5 17 -8 19 C-7.46199791 14.01400883 -5.88255471 10.48164295 -3.4375 6.125 C-2.79683594 4.97257812 -2.15617187 3.82015625 -1.49609375 2.6328125 C-0.75552734 1.32957031 -0.75552734 1.32957031 0 0 Z " fill="#A9529F" transform="translate(39,66)"/>
<path d="M0 0 C0.33 1.32 0.66 2.64 1 4 C0.34 4 -0.32 4 -1 4 C-1.2475 4.928125 -1.495 5.85625 -1.75 6.8125 C-3.06454245 10.16458325 -3.97963384 11.1877803 -7 13 C-7.99 12.34 -8.98 11.68 -10 11 C-9.278125 10.29875 -8.55625 9.5975 -7.8125 8.875 C-5.00176187 6.07229255 -2.50483774 3.07737208 0 0 Z " fill="#6B529C" transform="translate(140,139)"/>
<path d="M0 0 C0.33 1.32 0.66 2.64 1 4 C0.34 4 -0.32 4 -1 4 C-1 5.32 -1 6.64 -1 8 C4.28 8 9.56 8 15 8 C15 8.33 15 8.66 15 9 C5.595 9.495 5.595 9.495 -4 10 C-1 1 -1 1 0 0 Z " fill="#A45699" transform="translate(84,29)"/>
<path d="M0 0 C1.9375 0.375 1.9375 0.375 4 1 C4.33 1.66 4.66 2.32 5 3 C7.01669827 4.13350534 7.01669827 4.13350534 9 5 C9 5.66 9 6.32 9 7 C9.66 7 10.32 7 11 7 C11 7.66 11 8.32 11 9 C11.99 9 12.98 9 14 9 C14.33 9.99 14.66 10.98 15 12 C10.70697803 10.58446303 7.99477764 8.48999477 4.6875 5.4375 C3.80449219 4.63183594 2.92148437 3.82617188 2.01171875 2.99609375 C1.34785156 2.33738281 0.68398438 1.67867187 0 1 C0 0.67 0 0.34 0 0 Z " fill="#844F94" transform="translate(44,142)"/>
<path d="M0 0 C0.22033069 3.85578703 -0.30834339 6.52270585 -2 10 C-2.66 10.66 -3.32 11.32 -4 12 C-5.25 8.8125 -5.25 8.8125 -6 5 C-3.0212766 0 -3.0212766 0 0 0 Z " fill="#A6419B" transform="translate(28,93)"/>
<path d="M0 0 C4.55015893 1.51671964 6.50057264 5.16891053 9 9 C7 8 5 7 3 6 C2.01 6.33 1.02 6.66 0 7 C0 4.69 0 2.38 0 0 Z " fill="#854998" transform="translate(58,135)"/>
<path d="M0 0 C3.3 0 6.6 0 10 0 C10 1.32 10 2.64 10 4 C6.7 4 3.4 4 0 4 C0 3.67 0 3.34 0 3 C1.65 2.67 3.3 2.34 5 2 C3.35 1.67 1.7 1.34 0 1 C0 0.67 0 0.34 0 0 Z " fill="#6D3F8D" transform="translate(126,100)"/>
<path d="M0 0 C3.96 0 7.92 0 12 0 C7.58119757 2.94586829 5.32232661 3.0985616 0 3 C0 2.01 0 1.02 0 0 Z " fill="#664A91" transform="translate(96,158)"/>
<path d="M0 0 C2.15377564 2.62198774 3.40072174 4.64404172 4 8 C2.35 8.33 0.7 8.66 -1 9 C-2.25541557 5.23375329 -1.37061958 3.62811066 0 0 Z " fill="#954EA2" transform="translate(52,122)"/>
<path d="M0 0 C3.96 0 7.92 0 12 0 C12 0.99 12 1.98 12 3 C4.5 3.375 4.5 3.375 0 0 Z " fill="#67388B" transform="translate(126,109)"/>
<path d="M0 0 C2.31 0 4.62 0 7 0 C7.33 0.99 7.66 1.98 8 3 C6.02 3.66 4.04 4.32 2 5 C1.34 3.35 0.68 1.7 0 0 Z " fill="#9D559E" transform="translate(57,91)"/>
<path d="M0 0 C0.625 1.75 0.625 1.75 1 4 C0.67 4.639375 0.34 5.27875 0 5.9375 C-1.31040647 8.64021335 -0.78610392 10.17002588 0 13 C-0.99 13.495 -0.99 13.495 -2 14 C-2.66 13.67 -3.32 13.34 -4 13 C-3.67 10.36 -3.34 7.72 -3 5 C-2.34 5 -1.68 5 -1 5 C-0.67 3.35 -0.34 1.7 0 0 Z " fill="#604893" transform="translate(156,127)"/>
<path d="M0 0 C2 2 2 2 2 5 C3.32 5.33 4.64 5.66 6 6 C6 4.02 6 2.04 6 0 C6.33 0 6.66 0 7 0 C7 2.31 7 4.62 7 7 C4.69 7 2.38 7 0 7 C0 4.69 0 2.38 0 0 Z " fill="#9664A0" transform="translate(66,106)"/>
<path d="M0 0 C0.66 0.33 1.32 0.66 2 1 C2.40729228 3.32156597 2.74438677 5.6568787 3 8 C1.68 8 0.36 8 -1 8 C-1.125 2.25 -1.125 2.25 0 0 Z " fill="#A13596" transform="translate(12,103)"/>
<path d="M0 0 C2.31 0 4.62 0 7 0 C6.34 1.65 5.68 3.3 5 5 C4.67 4.34 4.34 3.68 4 3 C2.02 3.33 0.04 3.66 -2 4 C-1.34 2.68 -0.68 1.36 0 0 Z " fill="#935D99" transform="translate(75,91)"/>
<path d="M0 0 C0.66 1.32 1.32 2.64 2 4 C0.625 6 0.625 6 -1 8 C-1.66 8 -2.32 8 -3 8 C-3.33 6.68 -3.66 5.36 -4 4 C-3.34 4 -2.68 4 -2 4 C-2 3.34 -2 2.68 -2 2 C-1.34 2 -0.68 2 0 2 C0 1.34 0 0.68 0 0 Z " fill="#763F91" transform="translate(157,57)"/>
<path d="M0 0 C4.08691793 0.90820398 5.61817132 1.4087814 7.9375 5 C8.288125 5.99 8.63875 6.98 9 8 C8.67 8.66 8.34 9.32 8 10 C6.66370254 8.52351062 5.33103329 7.0437367 4 5.5625 C3.2575 4.73878906 2.515 3.91507813 1.75 3.06640625 C0 1 0 1 0 0 Z " fill="#8D509D" transform="translate(132,51)"/>
<path d="M0 0 C0.66 0 1.32 0 2 0 C2 1.98 2 3.96 2 6 C0.02 6 -1.96 6 -4 6 C-4 5.34 -4 4.68 -4 4 C-3.01 4 -2.02 4 -1 4 C-0.67 2.68 -0.34 1.36 0 0 Z " fill="#784090" transform="translate(101,107)"/>
<path d="M0 0 C0.33 1.32 0.66 2.64 1 4 C-1.25 6.0625 -1.25 6.0625 -4 8 C-6.3125 7.75 -6.3125 7.75 -8 7 C-7.01 6.67 -6.02 6.34 -5 6 C-3.57142881 4.59894424 -3.57142881 4.59894424 -2.3125 2.9375 C-1.1678125 1.4834375 -1.1678125 1.4834375 0 0 Z " fill="#A35FA7" transform="translate(129,32)"/>
<path d="M0 0 C3.875 4.75 3.875 4.75 5 7 C2.69 7 0.38 7 -2 7 C-1.34 4.69 -0.68 2.38 0 0 Z " fill="#975290" transform="translate(27,106)"/>
<path d="M0 0 C0.33 0 0.66 0 1 0 C1 3.63 1 7.26 1 11 C0.34 10.01 -0.32 9.02 -1 8 C-1.99 8.495 -1.99 8.495 -3 9 C-2.01 6.03 -1.02 3.06 0 0 Z " fill="#EFDAF4" transform="translate(107,102)"/>
<path d="M0 0 C0.33 0 0.66 0 1 0 C1.08153933 1.58246707 1.13943557 3.16616273 1.1875 4.75 C1.22230469 5.63171875 1.25710937 6.5134375 1.29296875 7.421875 C0.94923684 10.44671583 -0.00227459 11.75583602 -2 14 C-2.625 12.1875 -2.625 12.1875 -3 10 C-2.34 9.01 -1.68 8.02 -1 7 C-0.60612212 4.67612053 -0.26513915 2.34206251 0 0 Z " fill="#986BAF" transform="translate(161,46)"/>
<path d="M0 0 C0.33 0.99 0.66 1.98 1 3 C-0.32 3.33 -1.64 3.66 -3 4 C-3 4.99 -3 5.98 -3 7 C-4.32 7 -5.64 7 -7 7 C-7 6.34 -7 5.68 -7 5 C-5.46875 3.7109375 -5.46875 3.7109375 -3.5 2.375 C-2.8503125 1.92898437 -2.200625 1.48296875 -1.53125 1.0234375 C-1.0259375 0.68570313 -0.520625 0.34796875 0 0 Z " fill="#664D98" transform="translate(129,151)"/>
<path d="M0 0 C0.66 0.33 1.32 0.66 2 1 C-0.97 3.64 -3.94 6.28 -7 9 C-7.66 8.67 -8.32 8.34 -9 8 C-6.03 5.36 -3.06 2.72 0 0 Z " fill="#F8E0F6" transform="translate(73,55)"/>
<path d="M0 0 C4.455 0.99 4.455 0.99 9 2 C9 2.33 9 2.66 9 3 C4.545 3.495 4.545 3.495 0 4 C0 2.68 0 1.36 0 0 Z " fill="#A3339A" transform="translate(85,43)"/>
<path d="M0 0 C5.26053037 -0.31563182 8.44573816 0.33409063 13 3 C9.57056481 4.18771723 7.62215325 3.80226223 4.25 2.5625 C3.45078125 2.27503906 2.6515625 1.98757812 1.828125 1.69140625 C1.22484375 1.46324219 0.6215625 1.23507813 0 1 C0 0.67 0 0.34 0 0 Z " fill="#A0599F" transform="translate(100,37)"/>
<path d="M0 0 C0.99 0 1.98 0 3 0 C3.33 1.65 3.66 3.3 4 5 C2.35 5 0.7 5 -1 5 C-0.67 3.35 -0.34 1.7 0 0 Z " fill="#9D3C92" transform="translate(16,100)"/>
<path d="M0 0 C2.15377564 2.62198774 3.40072174 4.64404172 4 8 C2.68 8 1.36 8 0 8 C0 5.36 0 2.72 0 0 Z " fill="#F0D3EF" transform="translate(113,30)"/>
<path d="M0 0 C1.32 0 2.64 0 4 0 C4.33 1.32 4.66 2.64 5 4 C4.01 4.33 3.02 4.66 2 5 C1.34 4.34 0.68 3.68 0 3 C0 2.01 0 1.02 0 0 Z " fill="#61359C" transform="translate(87,167)"/>
<path d="M0 0 C3.34373475 0.55728913 6.03312999 1.35173889 9 3 C7.3125 3.6875 7.3125 3.6875 5 4 C2.25 2.625 2.25 2.625 0 1 C0 0.67 0 0.34 0 0 Z " fill="#895CA0" transform="translate(59,154)"/>
<path d="M0 0 C2.29633824 3.44450737 2.54016485 5.93812283 3 10 C2.01 10 1.02 10 0 10 C0 6.7 0 3.4 0 0 Z " fill="#814C99" transform="translate(153,63)"/>
</svg>
