<?xml version="1.0" encoding="UTF-8"?>
<svg version="1.1" xmlns="http://www.w3.org/2000/svg" width="726" height="174">
<path d="M0 0 C9 0 9 0 11.25927734 2.13964844 C11.7795752 3.1196582 12.29987305 4.09966797 12.8359375 5.109375 C13.42503906 6.17414062 14.01414063 7.23890625 14.62109375 8.3359375 C15.19988281 9.46257813 15.77867187 10.58921875 16.375 11.75 C17.56896744 13.95385424 18.76422949 16.15700771 19.9609375 18.359375 C20.47446777 19.34389648 20.98799805 20.32841797 21.51708984 21.34277344 C22.8554579 23.74099503 24.29343306 25.85391098 26 28 C26.47945068 27.18732666 26.95890137 26.37465332 27.45288086 25.53735352 C29.22771889 22.53061723 31.00389913 19.5246826 32.78100586 16.51928711 C33.55075433 15.21687335 34.31996195 13.91413979 35.08862305 12.61108398 C36.19178451 10.74118619 37.2968681 8.8724366 38.40234375 7.00390625 C39.06741943 5.87799072 39.73249512 4.7520752 40.41772461 3.59204102 C42 1 42 1 43 0 C45.97 0 48.94 0 52 0 C52 18.15 52 36.3 52 55 C49.36 55 46.72 55 44 55 C43.67 41.47 43.34 27.94 43 14 C35.94961123 25.97078453 35.94961123 25.97078453 29 38 C26.69 38 24.38 38 22 38 C21.64695801 37.37955811 21.29391602 36.75911621 20.93017578 36.11987305 C19.32958086 33.30843676 17.72731003 30.49795913 16.125 27.6875 C15.56941406 26.71103516 15.01382813 25.73457031 14.44140625 24.72851562 C13.90644531 23.79072266 13.37148437 22.85292969 12.8203125 21.88671875 C12.32805176 21.02264404 11.83579102 20.15856934 11.32861328 19.26831055 C10.27874547 17.47589565 9.15225179 15.72837768 8 14 C7.67 27.53 7.34 41.06 7 55 C4.69 55 2.38 55 0 55 C0 36.85 0 18.7 0 0 Z " fill="#FFFFFF" transform="translate(183,46)"/>
<path d="M0 0 C31.71153846 0 31.71153846 0 40.4375 8.25 C46.29687908 15.98504434 46.83258776 24.56009651 46 34 C44.82589013 40.90715083 41.52092065 46.63005094 36 51 C27 55 27 55 0 55 C0 36.85 0 18.7 0 0 Z M8 6 C8 19.86 8 33.72 8 48 C21.46265712 49.1722096 21.46265712 49.1722096 33 44 C38.19743412 37.51089586 38.67036404 29.99561473 38 22 C36.59295133 15.61842491 33.63047106 11.42031404 28.125 7.75 C21.5391445 5.42558041 14.97032314 6 8 6 Z " fill="#FFFFFF" transform="translate(397,46)"/>
<path d="M0 0 C0 1.98 0 3.96 0 6 C-2.31 6.66 -4.62 7.32 -7 8 C-6.505 8.804375 -6.01 9.60875 -5.5 10.4375 C-3.15011432 16.0184785 -3.14938858 20.70334915 -5.25 26.375 C-7.72170925 30.08256388 -9.79858832 31.59952944 -14 33 C-16.02034678 33.04434232 -18.04204845 33.03927974 -20.0625 33 C-24.18740002 32.78848948 -24.18740002 32.78848948 -28 34 C-28 34.66 -28 35.32 -28 36 C-23.05622041 37.530815 -17.85687591 37.32809491 -12.7265625 37.5234375 C-8.05296077 38.12110984 -4.63426109 39.52916502 -1.125 42.6875 C0.56702062 46.16554239 0.85179536 49.28118611 0 53 C-2.22714494 56.92620396 -4.60091236 59.40769989 -8.77734375 61.17578125 C-15.44994601 62.88234983 -23.69640673 63.32277291 -30.1875 60.6875 C-35.63157895 57.42105263 -35.63157895 57.42105263 -36.875 52.625 C-37.01595032 48.53744081 -36.22962533 47.29984549 -34 44 C-33.83507784 40.14065627 -33.83507784 40.14065627 -34.75 37.0625 C-35 34 -35 34 -33.0625 31.125 C-32.381875 30.42375 -31.70125 29.7225 -31 29 C-31.474375 28.566875 -31.94875 28.13375 -32.4375 27.6875 C-34.72434417 25.21770829 -34.98825996 23.11974839 -35.3125 19.8125 C-34.92703068 15.10977429 -33.73718729 11.83378914 -31 8 C-26.1885435 4.05213826 -20.92225635 4.89327668 -15.0234375 5.28515625 C-11.26389399 4.93057398 -10.41752676 3.7817393 -8 1 C-5.07175348 0.02391783 -3.04386724 -0.08226668 0 0 Z M-27 13 C-27.99650464 16.86878271 -28.62671388 20.4332153 -27.1171875 24.20703125 C-25.66035593 26.54509311 -24.60936497 27.13021168 -22 28 C-17.97749297 28.59909679 -16.49827337 28.34662495 -13.125 26 C-10.75785321 22.65814571 -10.23908138 20.93959545 -10.51953125 16.9375 C-11.38897022 13.4314697 -13.08036827 11.98783437 -16 10 C-20.53635901 9.36331803 -24.04104046 9.24439751 -27 13 Z M-28.4375 45.83203125 C-30.31349288 47.97731032 -30.31349288 47.97731032 -29.9375 51.125 C-29.23305313 54.29174932 -29.23305313 54.29174932 -26 56 C-23.46828157 56.24769941 -21.09341828 56.37014685 -18.5625 56.375 C-17.24378906 56.40335938 -15.92507813 56.43171875 -14.56640625 56.4609375 C-10.96902775 56.29844333 -10.96902775 56.29844333 -8.5625 54.13671875 C-6.8364927 52.07796771 -6.8364927 52.07796771 -6.4375 49.4375 C-6.7699597 46.82521319 -6.7699597 46.82521319 -9.09375 45.375 C-12.6102343 43.711287 -15.18289632 43.56664931 -19.0625 43.5625 C-20.27035156 43.54316406 -21.47820313 43.52382812 -22.72265625 43.50390625 C-26.06086217 43.74414006 -26.06086217 43.74414006 -28.4375 45.83203125 Z " fill="#FFFFFF" transform="translate(589,55)"/>
<path d="M0 0 C2.64 0 5.28 0 8 0 C8.33 7.59 8.66 15.18 9 23 C14.57877048 16.88991805 19.96251123 10.69381322 25.15234375 4.25 C27 2 27 2 29 0 C31.1640625 -0.1953125 31.1640625 -0.1953125 33.625 -0.125 C34.85089844 -0.09792969 34.85089844 -0.09792969 36.1015625 -0.0703125 C37.04128906 -0.03550781 37.04128906 -0.03550781 38 0 C34.00747549 5.61111553 29.65950976 10.68145439 24.9597168 15.69824219 C22.15802773 18.69560635 19.52100233 21.76293832 17 25 C18.70044591 29.1442005 21.64159482 32.24365996 24.5625 35.5625 C25.64285786 36.80648393 26.72227391 38.05128637 27.80078125 39.296875 C28.33783691 39.91626953 28.87489258 40.53566406 29.42822266 41.17382812 C31.7384142 43.85792765 33.99904913 46.57843567 36.25 49.3125 C36.97703125 50.19550781 37.7040625 51.07851562 38.453125 51.98828125 C40 54 40 54 40 55 C36.33973941 56.1154293 33.66552525 56.14693957 30 55 C24.86627544 50.84692665 20.99575019 45.20531693 17 40 C16.13572985 38.92238356 15.2676381 37.84781304 14.39453125 36.77734375 C12.57315565 34.53689057 10.78234989 32.27162241 9 30 C8.67 38.25 8.34 46.5 8 55 C5.36 55 2.72 55 0 55 C0 36.85 0 18.7 0 0 Z " fill="#FFFFFF" transform="translate(57,46)"/>
<path d="M0 0 C3.76268375 2.98060167 6.11508028 7.58515448 6.69140625 12.33984375 C6.69140625 14.97984375 6.69140625 17.61984375 6.69140625 20.33984375 C-2.54859375 20.33984375 -11.78859375 20.33984375 -21.30859375 20.33984375 C-20.16909563 28.69865679 -20.16909563 28.69865679 -17.18359375 31.90234375 C-13.21004063 33.88912031 -10.74077673 33.6916043 -6.30859375 33.33984375 C-5.52484375 33.29859375 -4.74109375 33.25734375 -3.93359375 33.21484375 C-1.93943432 32.36326531 -1.93943432 32.36326531 -1.05859375 29.27734375 C-0.81109375 28.30796875 -0.56359375 27.33859375 -0.30859375 26.33984375 C2.00140625 26.33984375 4.31140625 26.33984375 6.69140625 26.33984375 C6.30265586 31.7823492 4.52587629 34.50537371 0.69140625 38.33984375 C-5.0837557 41.17439736 -11.48918283 41.45648216 -17.66015625 39.65234375 C-23.61934195 36.97405804 -26.22171876 33.16571871 -28.55859375 27.08984375 C-30.25686657 18.59847965 -29.95906883 10.9849083 -25.171875 3.58203125 C-19.0058008 -4.47082275 -8.49640016 -4.82320898 0 0 Z M-20.30859375 8.33984375 C-20.63859375 10.64984375 -20.96859375 12.95984375 -21.30859375 15.33984375 C-14.37859375 15.33984375 -7.44859375 15.33984375 -0.30859375 15.33984375 C-1.60222018 7.80085369 -1.60222018 7.80085369 -6.30859375 3.33984375 C-12.52058521 2.11838475 -16.58814874 2.87544014 -20.30859375 8.33984375 Z " fill="#FFFFFF" transform="translate(274.30859375,61.66015625)"/>
<path d="M0 0 C3.76268375 2.98060167 6.11508028 7.58515448 6.69140625 12.33984375 C6.69140625 14.97984375 6.69140625 17.61984375 6.69140625 20.33984375 C-2.54859375 20.33984375 -11.78859375 20.33984375 -21.30859375 20.33984375 C-20.16909563 28.69865679 -20.16909563 28.69865679 -17.18359375 31.90234375 C-13.21004063 33.88912031 -10.74077673 33.6916043 -6.30859375 33.33984375 C-5.52484375 33.29859375 -4.74109375 33.25734375 -3.93359375 33.21484375 C-1.93943432 32.36326531 -1.93943432 32.36326531 -1.05859375 29.27734375 C-0.81109375 28.30796875 -0.56359375 27.33859375 -0.30859375 26.33984375 C2.00140625 26.33984375 4.31140625 26.33984375 6.69140625 26.33984375 C6.30265586 31.7823492 4.52587629 34.50537371 0.69140625 38.33984375 C-5.0837557 41.17439736 -11.48918283 41.45648216 -17.66015625 39.65234375 C-23.61934195 36.97405804 -26.22171876 33.16571871 -28.55859375 27.08984375 C-30.25686657 18.59847965 -29.95906883 10.9849083 -25.171875 3.58203125 C-19.0058008 -4.47082275 -8.49640016 -4.82320898 0 0 Z M-20.30859375 8.33984375 C-20.63859375 10.64984375 -20.96859375 12.95984375 -21.30859375 15.33984375 C-14.37859375 15.33984375 -7.44859375 15.33984375 -0.30859375 15.33984375 C-1.60222018 7.80085369 -1.60222018 7.80085369 -6.30859375 3.33984375 C-12.52058521 2.11838475 -16.58814874 2.87544014 -20.30859375 8.33984375 Z " fill="#FFFFFF" transform="translate(128.30859375,61.66015625)"/>
<path d="M0 0 C4.12593192 2.87855716 7.06537651 6.00862953 8.6875 10.875 C8.6875 14.505 8.6875 18.135 8.6875 21.875 C-0.5525 21.875 -9.7925 21.875 -19.3125 21.875 C-16.8026134 32.70306384 -16.8026134 32.70306384 -11.3125 34.875 C-7.51489784 35.44612376 -4.31313003 35.38814361 -0.875 33.625 C0.84738127 31.69593298 1.33728759 30.41403996 1.6875 27.875 C3.9975 27.875 6.3075 27.875 8.6875 27.875 C8.43989109 32.08435149 8.10647739 34.35127827 5.4375 37.6875 C-0.40440012 42.334466 -6.08510088 42.54558342 -13.3125 41.875 C-18.51810436 40.13979855 -21.13295575 37.29103368 -24.3125 32.875 C-27.72999409 25.98005579 -27.48051661 17.13418615 -25.47265625 9.8125 C-23.24877269 4.78068265 -20.73865715 1.4919313 -15.55859375 -0.57421875 C-10.13644738 -1.90382334 -5.27945905 -1.79302383 0 0 Z M-17.3125 8.875 C-18.83098927 11.83966952 -19.3125 13.53261787 -19.3125 16.875 C-12.3825 16.875 -5.4525 16.875 1.6875 16.875 C1.28010869 10.24731073 1.28010869 10.24731073 -1.375 6.9375 C-4.69697273 4.60505106 -6.42036515 4.18397763 -10.3828125 4.453125 C-13.52110059 5.13922847 -15.16676451 6.5399349 -17.3125 8.875 Z " fill="#FFFFFF" transform="translate(477.3125,60.125)"/>
<path d="M0 0 C2.31 0 4.62 0 7 0 C7 5.94 7 11.88 7 18 C8.11375 17.175 9.2275 16.35 10.375 15.5 C15.21953103 12.4710925 19.41169833 12.13284974 25 13 C28.54018863 14.35581692 29.63759534 15.40835256 31.6105957 18.62939453 C33.19646214 22.47660452 33.38448576 25.72133229 33.29296875 29.8046875 C33.28872391 30.5286673 33.28447906 31.25264709 33.28010559 31.99856567 C33.26342972 34.29110287 33.22580081 36.58273246 33.1875 38.875 C33.17243871 40.43748722 33.15875284 41.99998835 33.14648438 43.5625 C33.11356293 47.37534505 33.06186002 51.18751911 33 55 C30.69 55 28.38 55 26 55 C25.9906543 54.08186523 25.98130859 53.16373047 25.97167969 52.21777344 C25.92760069 48.80294722 25.86596268 45.38936892 25.79248047 41.97509766 C25.76429912 40.49897804 25.74307034 39.02270831 25.72900391 37.54638672 C25.70753302 35.42076943 25.66086957 33.29695121 25.609375 31.171875 C25.58842773 29.8940918 25.56748047 28.61630859 25.54589844 27.29980469 C25.24671427 23.95093573 25.24671427 23.95093573 23.20800781 21.55175781 C20.41323964 19.58763281 18.42164357 19.82706722 15.09765625 20.25 C12.06509538 21.33426757 10.29427629 22.72986421 8 25 C7.2218269 28.27365752 7.2218269 28.27365752 7.29296875 31.953125 C7.27028679 32.94345734 7.27028679 32.94345734 7.24714661 33.95379639 C7.204318 36.0528796 7.19543798 38.1505237 7.1875 40.25 C7.16435136 41.67712146 7.13898523 43.10420879 7.11132812 44.53125 C7.04852854 48.02080563 7.01615209 51.50988132 7 55 C4.69 55 2.38 55 0 55 C0 36.85 0 18.7 0 0 Z " fill="#FFFFFF" transform="translate(335,46)"/>
<path d="M0 0 C2.59721801 2.03043902 3.60148325 4.1911685 4.62890625 7.2734375 C4.62890625 8.5934375 4.62890625 9.9134375 4.62890625 11.2734375 C2.31890625 11.2734375 0.00890625 11.2734375 -2.37109375 11.2734375 C-2.84546875 10.3040625 -3.31984375 9.3346875 -3.80859375 8.3359375 C-5.07303322 5.46866313 -5.07303322 5.46866313 -6.37109375 4.2734375 C-7.84758251 4.17519754 -9.32884792 4.14370231 -10.80859375 4.1484375 C-11.61167969 4.14585938 -12.41476562 4.14328125 -13.2421875 4.140625 C-15.42507306 4.13765424 -15.42507306 4.13765424 -17.37109375 5.2734375 C-17.37109375 7.2534375 -17.37109375 9.2334375 -17.37109375 11.2734375 C-16.20191406 11.64855469 -15.03273438 12.02367188 -13.828125 12.41015625 C-12.2796873 12.92630215 -10.73152443 13.44327303 -9.18359375 13.9609375 C-8.41466797 14.20521484 -7.64574219 14.44949219 -6.85351562 14.70117188 C-1.93853118 16.36762583 1.33234535 18.06968348 4.62890625 22.2734375 C5.76750643 25.29046564 5.9115426 28.06834134 5.62890625 31.2734375 C3.93496659 34.93234717 2.3342611 36.74442136 -0.87109375 39.1484375 C-7.43925647 41.25963266 -14.5370849 41.47425195 -20.93359375 38.6484375 C-24.52341313 36.53634002 -26.06291921 34.27972203 -27.37109375 30.2734375 C-27.55859375 27.3984375 -27.55859375 27.3984375 -27.37109375 25.2734375 C-25.06109375 25.2734375 -22.75109375 25.2734375 -20.37109375 25.2734375 C-19.91734375 26.4078125 -19.46359375 27.5421875 -18.99609375 28.7109375 C-17.80013569 32.32065442 -17.80013569 32.32065442 -15.37109375 33.2734375 C-13.3305437 33.34409367 -11.28775118 33.35765726 -9.24609375 33.3359375 C-8.15039062 33.32691406 -7.0546875 33.31789062 -5.92578125 33.30859375 C-5.08273437 33.29699219 -4.2396875 33.28539062 -3.37109375 33.2734375 C-3.37109375 30.6334375 -3.37109375 27.9934375 -3.37109375 25.2734375 C-8.23683199 22.57024959 -13.2309271 21.00165442 -18.56640625 19.43359375 C-21.69313393 18.14022589 -23.27661797 16.91681038 -25.37109375 14.2734375 C-26.47343945 11.25706866 -26.69740517 8.46465255 -26.37109375 5.2734375 C-24.75934635 1.91503874 -22.33176545 -0.12271172 -19.18359375 -2.1015625 C-12.36394107 -3.61704087 -6.16099598 -3.50990074 0 0 Z " fill="#FFFFFF" transform="translate(666.37109375,61.7265625)"/>
<path d="M0 0 C2.59721801 2.03043902 3.60148325 4.1911685 4.62890625 7.2734375 C4.62890625 8.5934375 4.62890625 9.9134375 4.62890625 11.2734375 C2.31890625 11.2734375 0.00890625 11.2734375 -2.37109375 11.2734375 C-2.84546875 10.3040625 -3.31984375 9.3346875 -3.80859375 8.3359375 C-5.07303322 5.46866313 -5.07303322 5.46866313 -6.37109375 4.2734375 C-7.84758251 4.17519754 -9.32884792 4.14370231 -10.80859375 4.1484375 C-11.61167969 4.14585938 -12.41476562 4.14328125 -13.2421875 4.140625 C-15.42507306 4.13765424 -15.42507306 4.13765424 -17.37109375 5.2734375 C-17.37109375 7.2534375 -17.37109375 9.2334375 -17.37109375 11.2734375 C-16.20191406 11.64855469 -15.03273438 12.02367188 -13.828125 12.41015625 C-12.2796873 12.92630215 -10.73152443 13.44327303 -9.18359375 13.9609375 C-8.41466797 14.20521484 -7.64574219 14.44949219 -6.85351562 14.70117188 C-1.93853118 16.36762583 1.33234535 18.06968348 4.62890625 22.2734375 C5.76750643 25.29046564 5.9115426 28.06834134 5.62890625 31.2734375 C3.93496659 34.93234717 2.3342611 36.74442136 -0.87109375 39.1484375 C-7.43925647 41.25963266 -14.5370849 41.47425195 -20.93359375 38.6484375 C-24.52341313 36.53634002 -26.06291921 34.27972203 -27.37109375 30.2734375 C-27.55859375 27.3984375 -27.55859375 27.3984375 -27.37109375 25.2734375 C-25.06109375 25.2734375 -22.75109375 25.2734375 -20.37109375 25.2734375 C-19.91734375 26.4078125 -19.46359375 27.5421875 -18.99609375 28.7109375 C-17.80013569 32.32065442 -17.80013569 32.32065442 -15.37109375 33.2734375 C-13.3305437 33.34409367 -11.28775118 33.35765726 -9.24609375 33.3359375 C-8.15039062 33.32691406 -7.0546875 33.31789062 -5.92578125 33.30859375 C-5.08273437 33.29699219 -4.2396875 33.28539062 -3.37109375 33.2734375 C-3.37109375 30.6334375 -3.37109375 27.9934375 -3.37109375 25.2734375 C-8.23683199 22.57024959 -13.2309271 21.00165442 -18.56640625 19.43359375 C-21.69313393 18.14022589 -23.27661797 16.91681038 -25.37109375 14.2734375 C-26.47343945 11.25706866 -26.69740517 8.46465255 -26.37109375 5.2734375 C-24.75934635 1.91503874 -22.33176545 -0.12271172 -19.18359375 -2.1015625 C-12.36394107 -3.61704087 -6.16099598 -3.50990074 0 0 Z " fill="#FFFFFF" transform="translate(521.37109375,61.7265625)"/>
<path d="M0 0 C2.64 0 5.28 0 8 0 C11.63 9.9 15.26 19.8 19 30 C22.02793072 22.73296627 24.91121468 15.70095393 27.3125 8.25 C27.57611328 7.445625 27.83972656 6.64125 28.11132812 5.8125 C28.74517111 3.8763978 29.3732477 1.93840919 30 0 C32.64 0 35.28 0 38 0 C33.52072253 13.14817568 28.98042863 26.27492435 24.1875 39.3125 C23.8272876 40.3128125 23.4670752 41.313125 23.09594727 42.34375 C21.31010811 47.14684162 19.72732445 51.33315952 16 55 C13.11788698 55.96070434 11.30149956 56.10581883 8.3125 56.0625 C7.10013672 56.04896484 7.10013672 56.04896484 5.86328125 56.03515625 C5.24839844 56.02355469 4.63351563 56.01195312 4 56 C4 54.02 4 52.04 4 50 C5.27875 49.773125 6.5575 49.54625 7.875 49.3125 C11.29488548 48.47401849 11.29488548 48.47401849 13.5625 45.8125 C14.55560309 39.42826588 12.37906034 33.77790172 10.05859375 27.94921875 C9.77146011 27.2092012 9.48432648 26.46918365 9.18849182 25.70674133 C8.27847408 23.36420029 7.35864687 21.02568463 6.4375 18.6875 C5.51423814 16.33093598 4.59313171 13.97357787 3.67579651 11.61470032 C3.10644661 10.15195004 2.53343078 8.69062033 1.95640564 7.23088074 C0 2.2229928 0 2.2229928 0 0 Z " fill="#FFFFFF" transform="translate(139,60)"/>
<path d="M0 0 C3.44485459 1.66091203 5.34975805 2.77070137 7.14404297 6.1628418 C8.21510455 9.71298631 8.24972945 13.03781559 8.1953125 16.70703125 C8.1924826 17.43242599 8.18965271 18.15782074 8.18673706 18.90519714 C8.17559799 21.20780368 8.15050566 23.51001227 8.125 25.8125 C8.11496206 27.37955165 8.10583763 28.94660943 8.09765625 30.51367188 C8.0756793 34.34259978 8.04119339 38.17123256 8 42 C5.69 42 3.38 42 1 42 C0.9906543 41.08186523 0.98130859 40.16373047 0.97167969 39.21777344 C0.92760069 35.80294722 0.86596268 32.38936892 0.79248047 28.97509766 C0.76429912 27.49897804 0.74307034 26.02270831 0.72900391 24.54638672 C0.70753302 22.42076943 0.66086957 20.29695121 0.609375 18.171875 C0.58842773 16.8940918 0.56748047 15.61630859 0.54589844 14.29980469 C0.24671427 10.95093573 0.24671427 10.95093573 -1.79199219 8.55175781 C-4.58676036 6.58763281 -6.57835643 6.82706722 -9.90234375 7.25 C-12.93490462 8.33426757 -14.70572371 9.72986421 -17 12 C-17.7781731 15.27365752 -17.7781731 15.27365752 -17.70703125 18.953125 C-17.72215256 19.61334656 -17.73727386 20.27356812 -17.75285339 20.95379639 C-17.795682 23.0528796 -17.80456202 25.1505237 -17.8125 27.25 C-17.83564864 28.67712146 -17.86101477 30.10420879 -17.88867188 31.53125 C-17.95147146 35.02080563 -17.98384791 38.50988132 -18 42 C-20.31 42 -22.62 42 -25 42 C-25 28.47 -25 14.94 -25 1 C-22.69 1 -20.38 1 -18 1 C-18 2.32 -18 3.64 -18 5 C-17.53851562 4.6390625 -17.07703125 4.278125 -16.6015625 3.90625 C-11.15042361 0.02796937 -6.64778514 -1.20060334 0 0 Z " fill="#FFFFFF" transform="translate(622,59)"/>
<path d="M0 0 C6.26871469 4.28107345 6.26871469 4.28107345 7.3125 9.5 C7.395 10.5725 7.4775 11.645 7.5625 12.75 C4.3125 13.125 4.3125 13.125 0.5625 12.75 C-1.75 9.8125 -1.75 9.8125 -3.4375 6.75 C-6.90587728 5.01581136 -10.76686161 5.56162857 -14.55078125 5.98828125 C-16.60020169 6.59118707 -16.60020169 6.59118707 -17.51953125 8.61328125 C-19.56644504 15.47646278 -19.99469165 21.71149375 -18.4375 28.75 C-16.60199377 31.7697038 -15.55022641 33.1936368 -12.4375 34.75 C-9.06392666 35.25070321 -9.06392666 35.25070321 -5.4375 34.75 C-2.27795695 32.20862841 -0.72209114 30.60377341 0.5625 26.75 C2.8725 26.75 5.1825 26.75 7.5625 26.75 C7.20856658 32.64889027 5.84814461 35.65482848 1.5625 39.75 C-3.45026682 42.3146714 -8.92068183 42.31698131 -14.4375 41.75 C-20.25003975 39.7759299 -23.82082587 35.98900097 -26.5546875 30.51171875 C-28.6775678 23.87067286 -28.76058871 14.54937664 -25.8125 8.125 C-20.09401359 -1.21587283 -10.09387853 -3.67050128 0 0 Z " fill="#FFFFFF" transform="translate(316.4375,60.25)"/>
<path d="M0 0 C2.31 0 4.62 0 7 0 C7 13.53 7 27.06 7 41 C4.69 41 2.38 41 0 41 C0 27.47 0 13.94 0 0 Z " fill="#FFFFFF" transform="translate(537,60)"/>
<path d="M0 0 C2.5625 0.1875 2.5625 0.1875 4.5625 2.1875 C4.00694444 6.74305556 4.00694444 6.74305556 2.5625 8.1875 C0.125 8.375 0.125 8.375 -2.4375 8.1875 C-3.0975 7.5275 -3.7575 6.8675 -4.4375 6.1875 C-3.71780303 0.28598485 -3.71780303 0.28598485 0 0 Z " fill="#FFFFFF" transform="translate(540.4375,44.8125)"/>
</svg>
