<?xml version="1.0" encoding="UTF-8"?>
<svg version="1.1" xmlns="http://www.w3.org/2000/svg" width="272" height="272">
<path d="M0 0 C89.76 0 179.52 0 272 0 C272 89.76 272 179.52 272 272 C182.24 272 92.48 272 0 272 C0 182.24 0 92.48 0 0 Z " fill="#000000" transform="translate(0,0)"/>
<path d="M0 0 C5.02432445 2.61459991 8.76836044 6.36184325 12.8125 10.25 C17.49286712 14.71986257 22.21443306 19.1033634 27.10473633 23.34326172 C29.93555277 25.81781026 32.6872956 28.37410193 35.4375 30.9375 C36.9999052 32.39297252 38.5610275 33.8419867 40.16369629 35.25315857 C42 37 42 37 43.58178711 39.02345276 C47.780045 43.82071396 51.50273687 45.47360425 57.71072388 45.91345119 C62.33222633 46.06892283 66.94320013 46.04868602 71.56640625 46 C73.57138133 46.00752567 75.57634602 46.01856592 77.58128357 46.03295898 C82.83413363 46.06129715 88.08575933 46.04216561 93.33856201 46.01287842 C98.7082097 45.9914287 104.07764021 46.01524254 109.44726562 46.03515625 C119.96511944 46.06753747 130.48223615 46.04973141 141 46 C141.66 44.68 142.32 43.36 143 42 C145.80362763 41.77267884 147.46186517 41.65918128 149.875 43.1875 C151 45 151 45 150.8125 47.5625 C150 50 150 50 148 52 C144.26703674 52.38286803 143.22373677 52.14915785 140 50 C137.31088945 49.70919661 137.31088945 49.70919661 134.2434082 49.77294922 C132.47191154 49.77317581 132.47191154 49.77317581 130.66462708 49.77340698 C128.75202339 49.78889084 128.75202339 49.78889084 126.80078125 49.8046875 C124.84279854 49.80893234 124.84279854 49.80893234 122.84526062 49.81326294 C119.37804485 49.82089253 115.91099712 49.84053507 112.44384766 49.8626709 C108.90464552 49.88314395 105.36541618 49.89226777 101.82617188 49.90234375 C94.88404563 49.9237817 87.94203089 49.95790944 81 50 C81.226875 51.2375 81.45375 52.475 81.6875 53.75 C82.24011827 56.7642815 82.23516765 57.64011283 80.51953125 60.265625 C80.01808594 60.83796875 79.51664062 61.4103125 79 62 C89.28311864 61.89266515 99.56616467 61.78006622 109.84915066 61.66066074 C114.62344948 61.60538912 119.39775438 61.55196248 124.17211914 61.50268555 C128.77571693 61.45510435 133.37923781 61.40276407 137.98274422 61.34705925 C139.74307413 61.3266073 141.50342515 61.30789902 143.26379204 61.29092598 C145.72077988 61.26694456 148.17762099 61.23688191 150.63452148 61.20532227 C151.36963455 61.1995668 152.10474762 61.19381134 152.86213684 61.18788147 C156.21726521 61.42956431 156.21726521 61.42956431 159 60 C161.4375 59.8125 161.4375 59.8125 164 60 C164.66 60.66 165.32 61.32 166 62 C165.44444444 66.55555556 165.44444444 66.55555556 164 68 C162.33382885 68.04063832 160.66611905 68.042721 159 68 C158.67 67.34 158.34 66.68 158 66 C156.02255295 66.01118614 156.02255295 66.01118614 154.00515747 66.02259827 C141.55822192 66.08712279 129.11199805 66.10415894 116.6649189 66.07515812 C110.26618463 66.06176339 103.86835997 66.06487677 97.46972656 66.10620117 C91.29009341 66.14549581 85.11189213 66.14079401 78.93224716 66.10607719 C76.57923726 66.10049474 74.22613474 66.11054619 71.87326431 66.13676643 C51.11494896 66.35103426 51.11494896 66.35103426 44.78076172 60.70483398 C43.48574152 59.1651397 42.22368476 57.5969757 41 56 C39.40102365 54.51317931 37.77815428 53.05133868 36.125 51.625 C32.39714454 48.2710987 28.69306233 44.89211567 25 41.5 C21.28510333 38.08821522 17.56016892 34.68830719 13.8125 31.3125 C13.01714844 30.57386719 12.22179687 29.83523437 11.40234375 29.07421875 C9.05435594 26.94560276 9.05435594 26.94560276 6.37890625 25.33203125 C3.48860318 23.36157502 1.82467405 22.01092787 0 19 C-1.08831935 12.72583202 -0.51511394 6.30855591 0 0 Z " fill="#100F0F" transform="translate(0,143)"/>
<path d="M0 0 C5.7349894 4.10391113 10.91602558 8.55708315 16 13.4375 C20.61179239 17.83761832 25.26915213 22.14700143 30.08496094 26.32348633 C33.54226757 29.35017229 36.88576844 32.49919659 40.2421875 35.63671875 C41.03882812 36.37728516 41.03882812 36.37728516 41.8515625 37.1328125 C42.31385254 37.56480957 42.77614258 37.99680664 43.25244141 38.44189453 C43.82913574 38.95606934 44.40583008 39.47024414 45 40 C45.75071777 40.84353531 46.50143555 41.68707062 47.27490234 42.5561676 C52.15989564 46.57180848 58.33988384 45.70027525 64.34912109 45.65942383 C65.70960964 45.66788312 67.07008607 45.67853002 68.43054199 45.69119263 C72.11205706 45.71928907 75.79298849 45.71687649 79.47457838 45.70889878 C83.3263705 45.70576969 87.17797804 45.73081979 91.0296936 45.75285339 C98.31813318 45.79027912 105.60638618 45.8024405 112.89491236 45.8054778 C121.19486243 45.81017024 129.49462578 45.84309946 137.79449344 45.87837565 C154.8629819 45.95028902 171.9313672 45.98682352 189 46 C189.66 44.68 190.32 43.36 191 42 C193.7648665 41.77582164 195.46277487 41.67766492 197.875 43.125 C199 45 199 45 198.75 48.125 C198 51 198 51 197 52 C194.0625 52.1875 194.0625 52.1875 191 52 C190.34 51.34 189.68 50.68 189 50 C186.08497733 49.70620173 186.08497733 49.70620173 182.62255859 49.77294922 C181.96877731 49.77265717 181.31499603 49.77236511 180.6414032 49.77206421 C178.47694704 49.77345935 176.31283364 49.7890288 174.1484375 49.8046875 C172.64914132 49.80841698 171.1498427 49.81126426 169.65054321 49.81326294 C165.70163257 49.82090452 161.75286871 49.8405574 157.80401611 49.8626709 C153.77561428 49.8831181 149.74718876 49.89226224 145.71875 49.90234375 C137.81243259 49.92380289 129.90623455 49.95794505 122 50 C122.50144531 50.41894531 123.00289063 50.83789062 123.51953125 51.26953125 C124.00808594 51.84058594 124.49664062 52.41164062 125 53 C124.6875 56.6875 124.6875 56.6875 124 60 C118.25 60.125 118.25 60.125 116 59 C116 58.34 116 57.68 116 57 C114.77637505 57.01665459 114.77637505 57.01665459 113.5280304 57.03364563 C105.83309768 57.13391112 98.13848252 57.20999645 90.4430666 57.25906086 C86.48690697 57.28513382 82.53128795 57.32048809 78.57543945 57.37719727 C74.75637198 57.43160179 70.9378238 57.46143786 67.11839867 57.47438622 C65.66270969 57.48361119 64.20704854 57.50162618 62.75158119 57.52865028 C60.70917421 57.56505743 58.66890097 57.56994116 56.6262207 57.56762695 C54.88415092 57.58428154 54.88415092 57.58428154 53.10688782 57.60127258 C49.05699755 56.81750177 47.63692268 55.08893242 45 52 C40.23288089 47.15585383 35.44665483 42.43203831 30.2890625 38.00390625 C27.35036996 35.43129657 24.48874265 32.78046293 21.625 30.125 C12.32468886 21.12943095 12.32468886 21.12943095 2.23828125 13.109375 C0 11 0 11 -0.48828125 8.203125 C-0.43027344 7.22859375 -0.37226562 6.2540625 -0.3125 5.25 C-0.24482422 3.77273437 -0.24482422 3.77273437 -0.17578125 2.265625 C-0.11777344 1.51796875 -0.05976562 0.7703125 0 0 Z " fill="#0E0E0D" transform="translate(0,126)"/>
<path d="M0 0 C4.81868271 3.4168841 9.12747805 6.99033691 13.23828125 11.23046875 C15.61913804 13.62188366 18.16149132 15.79595012 20.71484375 18 C23.43037326 20.37666856 26.09326977 22.80814922 28.75 25.25 C29.25426514 25.7130957 29.75853027 26.17619141 30.27807617 26.65332031 C32.95479218 29.11375733 35.6269017 31.57912453 38.296875 34.046875 C38.83344727 34.54155273 39.37001953 35.03623047 39.92285156 35.54589844 C41.41864593 36.92499306 42.91250424 38.30618672 44.40625 39.6875 C49.43664584 44.28152319 49.43664584 44.28152319 55.95214844 45.43237305 C56.93286316 45.45216721 57.91357788 45.47196136 58.92401123 45.49235535 C60.5007663 45.50194023 60.5007663 45.50194023 62.109375 45.51171875 C63.19132141 45.52966995 64.27326782 45.54762115 65.38800049 45.56611633 C68.84196074 45.62027636 72.29578235 45.65413403 75.75 45.6875 C78.09246723 45.72066796 80.43491616 45.75515713 82.77734375 45.79101562 C88.51810484 45.87600611 94.25888375 45.94433199 100 46 C100.66 44.68 101.32 43.36 102 42 C104.375 41.875 104.375 41.875 107 42 C109 44 109 44 109.25 47 C109 50 109 50 107 52 C103.26703674 52.38286803 102.22373677 52.14915785 99 50 C96.77514259 49.72521627 96.77514259 49.72521627 94.33203125 49.8046875 C93.43935547 49.81113281 92.54667969 49.81757813 91.62695312 49.82421875 C90.69818359 49.84097656 89.76941406 49.85773438 88.8125 49.875 C87.40194336 49.88853516 87.40194336 49.88853516 85.96289062 49.90234375 C83.64167032 49.92590944 81.32096356 49.95880884 79 50 C79.66 50.99 80.32 51.98 81 53 C81.1875 55.625 81.1875 55.625 81 58 C80 59 80 59 77.5 59.125 C75 59 75 59 74 58 C72.44235395 57.98850793 70.88421324 58.03488065 69.328125 58.10546875 C51.37916124 58.48771105 51.37916124 58.48771105 45.24291992 53.09667969 C43.18127563 50.98034729 41.21794861 48.80901202 39.32617188 46.53955078 C37.38443865 44.28539582 35.18327474 42.38313189 32.9375 40.4375 C29.22422207 37.11064449 25.54385761 33.75057813 21.875 30.375 C18.5291404 27.29964097 15.17110048 24.24178591 11.75 21.25 C10.82960938 20.43015625 10.82960938 20.43015625 9.890625 19.59375 C7.98409209 17.93955839 7.98409209 17.93955839 5.734375 16.40625 C0.22964097 12.32581778 0.22964097 12.32581778 -0.5 8.11328125 C-0.5 5.36232644 -0.35496875 2.72635718 0 0 Z " fill="#101010" transform="translate(0,168)"/>
<path d="M0 0 C2.31 0 4.62 0 7 0 C7 15.51 7 31.02 7 47 C5.02 47 3.04 47 1 47 C0.67 46.01 0.34 45.02 0 44 C-1.03447266 44.72896484 -1.03447266 44.72896484 -2.08984375 45.47265625 C-5.49355977 47.25903607 -7.73827361 47.43306868 -11.5625 47.4375 C-13.23505859 47.46650391 -13.23505859 47.46650391 -14.94140625 47.49609375 C-18.7148695 46.88405054 -19.66320568 45.97494754 -22 43 C-22.50170898 40.20678711 -22.50170898 40.20678711 -22.49609375 37.02734375 C-22.49673828 35.88072266 -22.49738281 34.73410156 -22.49804688 33.55273438 C-22.47806641 32.35970703 -22.45808594 31.16667969 -22.4375 29.9375 C-22.44813477 28.1421582 -22.44813477 28.1421582 -22.45898438 26.31054688 C-22.39492657 17.55433703 -22.39492657 17.55433703 -20.6875 15.15771484 C-17.89595035 13.24256316 -14.82111124 13.60939331 -11.5625 13.6875 C-10.24378906 13.69136719 -8.92507812 13.69523437 -7.56640625 13.69921875 C-4 14 -4 14 0 16 C0 10.72 0 5.44 0 0 Z " fill="#E8E8E8" transform="translate(162,111)"/>
<path d="M0 0 C0.91652344 -0.00386719 1.83304688 -0.00773437 2.77734375 -0.01171875 C4.20240234 0.00568359 4.20240234 0.00568359 5.65625 0.0234375 C6.60628906 0.01183594 7.55632812 0.00023438 8.53515625 -0.01171875 C9.45167969 -0.00785156 10.36820313 -0.00398438 11.3125 0 C12.14587891 0.00338379 12.97925781 0.00676758 13.83789062 0.01025391 C16.71764506 0.49243688 18.09253246 1.34613304 20.15625 3.3984375 C20.45493585 6.29867713 20.53582186 8.71099013 20.40625 11.5859375 C20.32375 14.1640625 20.24125 16.7421875 20.15625 19.3984375 C12.56625 19.3984375 4.97625 19.3984375 -2.84375 19.3984375 C-2.51375 21.7084375 -2.18375 24.0184375 -1.84375 26.3984375 C3.43625 26.7284375 8.71625 27.0584375 14.15625 27.3984375 C14.15625 26.0784375 14.15625 24.7584375 14.15625 23.3984375 C16.13625 23.3984375 18.11625 23.3984375 20.15625 23.3984375 C20.45551419 26.69034355 20.58010739 28.72245804 18.796875 31.56640625 C14.65459148 34.44026863 10.57767643 34.01769751 5.65625 33.9609375 C4.23119141 33.99670898 4.23119141 33.99670898 2.77734375 34.03320312 C-1.33680352 34.02452349 -3.99904989 33.96031391 -7.46875 31.65234375 C-9.66831836 26.44711523 -9.41978348 21.36189793 -9.34375 15.7734375 C-9.35921875 14.62875 -9.3746875 13.4840625 -9.390625 12.3046875 C-9.38546875 11.20898438 -9.3803125 10.11328125 -9.375 8.984375 C-9.37048828 7.9845459 -9.36597656 6.9847168 -9.36132812 5.95458984 C-8.84375 3.3984375 -8.84375 3.3984375 -7.11328125 1.57421875 C-4.52924458 0.23550096 -2.89808937 0.01176718 0 0 Z " fill="#F2F2F2" transform="translate(185.84375,124.6015625)"/>
<path d="M0 0 C0.92425781 -0.00386719 1.84851563 -0.00773437 2.80078125 -0.01171875 C4.24517578 0.00568359 4.24517578 0.00568359 5.71875 0.0234375 C6.68167969 0.01183594 7.64460938 0.00023438 8.63671875 -0.01171875 C9.56097656 -0.00785156 10.48523438 -0.00398438 11.4375 0 C12.28248047 0.00338379 13.12746094 0.00676758 13.99804688 0.01025391 C16.21875 0.3984375 16.21875 0.3984375 17.99926758 1.49487305 C19.85591094 4.39302085 19.55489142 6.8432654 19.51171875 10.25390625 C19.50747391 10.91554276 19.50322906 11.57717926 19.49885559 12.25886536 C19.48208693 14.3683066 19.44444099 16.47678596 19.40625 18.5859375 C19.39120068 20.01756431 19.3775127 21.44920612 19.36523438 22.88085938 C19.3321903 26.38703038 19.28042167 29.89264004 19.21875 33.3984375 C17.23875 33.3984375 15.25875 33.3984375 13.21875 33.3984375 C13.21875 32.4084375 13.21875 31.4184375 13.21875 30.3984375 C12.7134375 30.883125 12.208125 31.3678125 11.6875 31.8671875 C8.2940736 33.97197097 5.68716734 33.86719012 1.71875 33.8984375 C-0.24578125 33.94484375 -0.24578125 33.94484375 -2.25 33.9921875 C-5.78125 33.3984375 -5.78125 33.3984375 -8.21875 31.21484375 C-9.93079871 28.12887594 -10.32023067 26.33932501 -10.28125 22.8359375 C-10.2915625 21.90652344 -10.301875 20.97710937 -10.3125 20.01953125 C-9.78125 17.3984375 -9.78125 17.3984375 -8.359375 15.07421875 C-4.39385984 12.4966339 -0.64786198 12.97113778 3.96875 13.1484375 C4.85691406 13.16648438 5.74507812 13.18453125 6.66015625 13.203125 C8.84745848 13.25016376 11.03254816 13.31586741 13.21875 13.3984375 C12.88875 11.0884375 12.55875 8.7784375 12.21875 6.3984375 C10.09436661 6.31765109 7.9691177 6.25934609 5.84375 6.2109375 C4.66039063 6.17613281 3.47703125 6.14132813 2.2578125 6.10546875 C1.25492188 6.20214844 0.25203125 6.29882812 -0.78125 6.3984375 C-1.77125 7.8834375 -1.77125 7.8834375 -2.78125 9.3984375 C-5.40625 9.5859375 -5.40625 9.5859375 -7.78125 9.3984375 C-8.14754064 3.90407785 -8.14754064 3.90407785 -6.56835938 1.72412109 C-4.25510199 0.00813918 -2.86323969 0.01146606 0 0 Z " fill="#F2F2F2" transform="translate(111.78125,124.6015625)"/>
<path d="M0 0 C4.11989139 2.12236829 6.9518078 4.84851617 10.13671875 8.12890625 C11.90561372 9.90521797 13.72589244 11.55226844 15.625 13.1875 C19.28144434 16.34082893 22.83474567 19.59282508 26.375 22.875 C36.58272499 32.34527064 36.58272499 32.34527064 47.125 41.4375 C48.07375 42.283125 49.0225 43.12875 50 44 C50 44.66 50 45.32 50 46 C71.78 46 93.56 46 116 46 C116 46.66 116 47.32 116 48 C117.98 48.33 119.96 48.66 122 49 C122 49.33 122 49.66 122 50 C128.27 50.33 134.54 50.66 141 51 C141 51.33 141 51.66 141 52 C129.54278099 52.34947941 118.08685398 52.61502281 106.62536621 52.77718258 C101.30137261 52.8550666 95.98105649 52.96044557 90.65917969 53.1315918 C85.51056597 53.2961059 80.36545786 53.38456448 75.2144165 53.42315865 C73.26215444 53.45061101 71.31005777 53.50422322 69.35931396 53.58595085 C59.25504824 53.99194921 51.91024336 53.70110943 44.09393311 46.76278782 C41.47587422 44.19032456 38.99648722 41.53004901 36.58175659 38.76652718 C34.46616095 36.40380132 32.14386153 34.32600901 29.75 32.25 C26.09554851 28.98929412 22.47857927 25.69159334 18.875 22.375 C15.46385495 19.2406827 12.04120927 16.12192981 8.5625 13.0625 C7.94503906 12.51851562 7.32757812 11.97453125 6.69140625 11.4140625 C4.83727313 9.81898377 4.83727313 9.81898377 2 7.9375 C-0 6 -0 6 -0.3125 2.75 C-0.209375 1.8425 -0.10625 0.935 0 0 Z " fill="#0B0B0B" transform="translate(0,137)"/>
<path d="M0 0 C1.98 0 3.96 0 6 0 C6 1.32 6 2.64 6 4 C6.54785156 3.51144531 7.09570312 3.02289063 7.66015625 2.51953125 C10.49210019 0.68042241 12.09038429 0.62714979 15.4375 0.6875 C16.36433594 0.69136719 17.29117188 0.69523437 18.24609375 0.69921875 C21.14281444 1.01559817 23.35881903 1.7968486 26 3 C26.66 2.34 27.32 1.68 28 1 C30.4609375 0.69921875 30.4609375 0.69921875 33.375 0.6875 C34.80972656 0.66236328 34.80972656 0.66236328 36.2734375 0.63671875 C39.54090235 1.07206865 40.7050172 1.64094868 43 4 C43.45410156 7.09448242 43.45410156 7.09448242 43.390625 10.85546875 C43.38496521 11.51710526 43.37930542 12.17874176 43.37347412 12.86042786 C43.35111247 14.97019332 43.30092371 17.07824952 43.25 19.1875 C43.2299344 20.61911606 43.21168372 22.0507588 43.1953125 23.48242188 C43.15125069 26.98883515 43.08222777 30.49425072 43 34 C41.02 34 39.04 34 37 34 C37 25.09 37 16.18 37 7 C29.50847518 6.26039974 29.50847518 6.26039974 26 9 C25.48987435 11.61196291 25.48987435 11.61196291 25.48828125 14.6640625 C25.45283203 15.78554687 25.41738281 16.90703125 25.38085938 18.0625 C25.35830078 19.238125 25.33574219 20.41375 25.3125 21.625 C25.27833984 22.80835938 25.24417969 23.99171875 25.20898438 25.2109375 C25.12629425 28.1405306 25.05721286 31.0698164 25 34 C23.02 34 21.04 34 19 34 C18.97494385 33.21761963 18.9498877 32.43523926 18.92407227 31.62915039 C18.80850212 28.10675051 18.68560051 24.5846444 18.5625 21.0625 C18.52318359 19.83080078 18.48386719 18.59910156 18.44335938 17.33007812 C18.40146484 16.16025391 18.35957031 14.99042969 18.31640625 13.78515625 C18.27974854 12.70113525 18.24309082 11.61711426 18.20532227 10.50024414 C18.27635735 8.060737 18.27635735 8.060737 17 7 C12.41335104 6.50784737 12.41335104 6.50784737 8.30541992 8.16918945 C6.51831853 10.67554317 6.56929183 12.48076888 6.48828125 15.54296875 C6.45283203 16.61611328 6.41738281 17.68925781 6.38085938 18.79492188 C6.35830078 19.91447266 6.33574219 21.03402344 6.3125 22.1875 C6.27833984 23.31865234 6.24417969 24.44980469 6.20898438 25.61523438 C6.12643686 28.4100574 6.05730818 31.20456398 6 34 C4.02 34 2.04 34 0 34 C0 22.78 0 11.56 0 0 Z " fill="#EAEAEA" transform="translate(52,124)"/>
<path d="M0 0 C5.14742452 3.61414913 9.63446554 7.50790851 14.01953125 12.01171875 C16.46347428 14.46530258 19.05210417 16.70323502 21.67578125 18.9609375 C24.62410901 21.54753765 27.49902207 24.20849454 30.375 26.875 C34.42148003 30.62206628 38.47433399 34.36080759 42.5625 38.0625 C43.32691406 38.75472656 44.09132812 39.44695312 44.87890625 40.16015625 C49.55155647 44.32703475 49.55155647 44.32703475 55.54315186 45.39872742 C56.90187157 45.41753464 56.90187157 45.41753464 58.28804016 45.4367218 C59.27418808 45.43528671 60.260336 45.43385162 61.27636719 45.43237305 C62.84269142 45.44766052 62.84269142 45.44766052 64.44065857 45.46325684 C67.89278481 45.49345544 71.34463387 45.50266348 74.796875 45.51171875 C77.19013394 45.5285603 79.58338401 45.54670982 81.97662354 45.56611633 C88.27631864 45.61367909 94.57597777 45.64344801 100.87579346 45.66955566 C107.30398667 45.69932941 113.73205586 45.7458707 120.16015625 45.79101562 C132.77337013 45.87712022 145.38661409 45.9450031 158 46 C158.33 46.66 158.66 47.32 159 48 C142.17 47.67 125.34 47.34 108 47 C107.505 47.99 107.505 47.99 107 49 C106.21625 48.938125 105.4325 48.87625 104.625 48.8125 C103.325625 48.9053125 103.325625 48.9053125 102 49 C101.34 49.99 100.68 50.98 100 52 C97.95309448 52.40786743 97.95309448 52.40786743 95.40185547 52.45166016 C94.44681122 52.4740274 93.49176697 52.49639465 92.50778198 52.5194397 C90.95318771 52.52915298 90.95318771 52.52915298 89.3671875 52.5390625 C88.30138458 52.55141937 87.23558167 52.56377625 86.13748169 52.57650757 C83.87621569 52.59611147 81.61486385 52.6073125 79.35351562 52.61083984 C75.90868198 52.62486289 72.46753541 52.69208614 69.0234375 52.76171875 C66.82553695 52.77412494 64.62761562 52.7833405 62.4296875 52.7890625 C60.89331131 52.82913925 60.89331131 52.82913925 59.32589722 52.87002563 C52.74875883 52.80820621 49.36230833 51.54061296 44.71057129 46.83843994 C44.14608276 46.23175476 43.58159424 45.62506958 43 45 C41.77061572 43.84860751 40.53460534 42.70420554 39.2890625 41.5703125 C38.06676468 40.4228794 36.84542585 39.27442395 35.625 38.125 C29.81359018 32.67666822 23.94245601 27.3054088 18 22 C15.46511564 19.7135576 12.93129329 17.42621621 10.40625 15.12890625 C8.83773663 13.74117932 7.23403436 12.3919526 5.59375 11.08984375 C0.10025362 6.68924366 0.10025362 6.68924366 -0.5 2.5625 C-0.335 1.716875 -0.17 0.87125 0 0 Z " fill="#0A0A0A" transform="translate(0,162)"/>
<path d="M0 0 C5.7349894 4.10391113 10.91602558 8.55708315 16 13.4375 C20.61179239 17.83761832 25.26915213 22.14700143 30.08496094 26.32348633 C33.54226757 29.35017229 36.88576844 32.49919659 40.2421875 35.63671875 C41.03882812 36.37728516 41.03882812 36.37728516 41.8515625 37.1328125 C42.31385254 37.56480957 42.77614258 37.99680664 43.25244141 38.44189453 C43.82913574 38.95606934 44.40583008 39.47024414 45 40 C45.75071777 40.84353531 46.50143555 41.68707062 47.27490234 42.5561676 C52.15989564 46.57180848 58.33988384 45.70027525 64.34912109 45.65942383 C65.70960964 45.66788312 67.07008607 45.67853002 68.43054199 45.69119263 C72.11205706 45.71928907 75.79298849 45.71687649 79.47457838 45.70889878 C83.3263705 45.70576969 87.17797804 45.73081979 91.0296936 45.75285339 C98.31813318 45.79027912 105.60638618 45.8024405 112.89491236 45.8054778 C121.19486243 45.81017024 129.49462578 45.84309946 137.79449344 45.87837565 C154.8629819 45.95028902 171.9313672 45.98682352 189 46 C189.66 44.68 190.32 43.36 191 42 C193.7648665 41.77582164 195.46277487 41.67766492 197.875 43.125 C199 45 199 45 198.75 48.125 C198 51 198 51 197 52 C195.00041636 52.04080783 192.99954746 52.04254356 191 52 C190.01 50.02 190.01 50.02 189 48 C187.93512564 48.00967883 187.93512564 48.00967883 186.84873867 48.01955318 C169.56349253 48.17423995 152.27842251 48.29002615 134.99263668 48.3626852 C126.63326577 48.398758 118.27435728 48.44792483 109.9152832 48.52807617 C102.62825236 48.59791479 95.34155645 48.64302352 88.05420023 48.65861946 C84.19649287 48.66773436 80.33974352 48.68910623 76.48234367 48.7401104 C72.84839197 48.78776891 69.21578897 48.80225295 65.58155441 48.79175377 C63.618215 48.79458575 61.65502122 48.83218218 59.69206238 48.87094116 C50.03796946 48.79216 50.03796946 48.79216 45.87159729 44.64173889 C44.90444494 43.43574091 43.9468387 42.22201116 43 41 C41.85632381 39.95347405 40.69148261 38.92925652 39.5 37.9375 C35.39489656 34.40165895 31.45001646 30.70667803 27.5 27 C23.07815965 22.85354788 18.63647263 18.75451624 14.05078125 14.7890625 C11.17642389 12.28152789 8.33201718 9.74270037 5.5 7.1875 C4.95835205 6.70643799 4.4167041 6.22537598 3.85864258 5.72973633 C2.53373131 4.5278144 1.26175397 3.26806274 0 2 C0 1.34 0 0.68 0 0 Z " fill="#73716F" transform="translate(0,126)"/>
<path d="M0 0 C5.95905689 5.01102511 11.68674325 10.26053919 17.41064453 15.53564453 C27.84362848 25.21261182 27.84362848 25.21261182 38.48245239 34.65907288 C41 37 41 37 42.80636597 39.35740662 C46.75470611 44.05172472 49.98994868 46.12114496 56.02838135 46.82620239 C62.47724697 47.25631813 68.92381104 47.16963495 75.3828125 47.09765625 C77.76749901 47.10331386 80.15217912 47.11293069 82.53683472 47.12632751 C88.78764843 47.15087698 95.03709417 47.12191188 101.28778076 47.08154297 C107.67627572 47.04983878 114.06459877 47.06909955 120.453125 47.08398438 C132.9691026 47.10567826 145.48422759 47.07079998 158 47 C158.33 46.01 158.66 45.02 159 44 C161.375 43.875 161.375 43.875 164 44 C164.66 44.66 165.32 45.32 166 46 C165.44444444 50.55555556 165.44444444 50.55555556 164 52 C162.33382885 52.04063832 160.66611905 52.042721 159 52 C158.67 51.34 158.34 50.68 158 50 C156.02255295 50.01118614 156.02255295 50.01118614 154.00515747 50.02259827 C141.55822192 50.08712279 129.11199805 50.10415894 116.6649189 50.07515812 C110.26618463 50.06176339 103.86835997 50.06487677 97.46972656 50.10620117 C91.29009341 50.14549581 85.11189213 50.14079401 78.93224716 50.10607719 C76.57923726 50.10049474 74.22613474 50.11054619 71.87326431 50.13676643 C51.11494896 50.35103426 51.11494896 50.35103426 44.78076172 44.70483398 C43.48574152 43.1651397 42.22368476 41.5969757 41 40 C39.40102365 38.51317931 37.77815428 37.05133868 36.125 35.625 C32.39714454 32.2710987 28.69306233 28.89211567 25 25.5 C21.28510333 22.08821522 17.56016892 18.68830719 13.8125 15.3125 C13.01714844 14.59449219 12.22179687 13.87648437 11.40234375 13.13671875 C9.7444459 11.66213318 8.06868136 10.20747699 6.37890625 8.76953125 C5.55261719 8.06183594 4.72632813 7.35414063 3.875 6.625 C2.75738281 5.68527344 2.75738281 5.68527344 1.6171875 4.7265625 C0 3 0 3 0 0 Z " fill="#6D6B6A" transform="translate(0,159)"/>
<path d="M0 0 C2.33682478 1.99603783 4.67008578 3.99591669 7 6 C7.59039063 6.50660156 8.18078125 7.01320312 8.7890625 7.53515625 C13.69796135 11.78605377 18.46293071 16.18321396 23.22338867 20.59838867 C26.66549156 23.78541026 30.1017494 26.96531541 33.76318359 29.90161133 C36 32 36 32 38.25073242 35.14550781 C42.42460882 40.54881928 46.66568914 44.29947634 53.49325562 45.73391724 C62.97946282 46.74517097 72.49476859 46.56703777 82.0199585 46.35620117 C85.96886052 46.28292363 89.91771296 46.28452582 93.8671875 46.27929688 C101.57994378 46.25831379 109.288663 46.15588697 117 46 C117.33 45.01 117.66 44.02 118 43 C119.98 43 121.96 43 124 43 C125.125 49.75 125.125 49.75 124 52 C118.25 52.125 118.25 52.125 116 51 C116 50.34 116 49.68 116 49 C114.77637505 49.01665459 114.77637505 49.01665459 113.5280304 49.03364563 C105.83309768 49.13391112 98.13848252 49.20999645 90.4430666 49.25906086 C86.48690697 49.28513382 82.53128795 49.32048809 78.57543945 49.37719727 C74.75637198 49.43160179 70.9378238 49.46143786 67.11839867 49.47438622 C65.66270969 49.48361119 64.20704854 49.50162618 62.75158119 49.52865028 C60.70917421 49.56505743 58.66890097 49.56994116 56.6262207 49.56762695 C54.88415092 49.58428154 54.88415092 49.58428154 53.10688782 49.60127258 C49.05699755 48.81750177 47.63692268 47.08893242 45 44 C40.23288089 39.15585383 35.44665483 34.43203831 30.2890625 30.00390625 C27.35036996 27.43129657 24.48874265 24.78046293 21.625 22.125 C12.22349519 13.17160882 12.22349519 13.17160882 2.21875 4.9375 C1.4865625 4.298125 0.754375 3.65875 0 3 C0 2.01 0 1.02 0 0 Z " fill="#61605F" transform="translate(0,134)"/>
<path d="M0 0 C1.98 0 3.96 0 6 0 C6 4.29 6 8.58 6 13 C9.63 13 13.26 13 17 13 C17 14.65 17 16.3 17 18 C13.37 18 9.74 18 6 18 C6.33 24.93 6.66 31.86 7 39 C10.3 39.33 13.6 39.66 17 40 C17 41.98 17 43.96 17 46 C14.91846065 46.13536022 12.83438794 46.23215465 10.75 46.3125 C9.58984375 46.37050781 8.4296875 46.42851562 7.234375 46.48828125 C4 46 4 46 1.82226562 44.06054688 C-0.70759204 39.81157907 -0.50564593 36.395702 -0.390625 31.54296875 C-0.38496521 30.64000565 -0.37930542 29.73704254 -0.37347412 28.80671692 C-0.35114895 25.93309697 -0.30096018 23.06074072 -0.25 20.1875 C-0.22992999 18.2350441 -0.2116801 16.28256858 -0.1953125 14.33007812 C-0.15129682 9.55290122 -0.08229626 4.7766646 0 0 Z " fill="#ECECEC" transform="translate(247,112)"/>
<path d="M0 0 C0.95390625 -0.03738281 1.9078125 -0.07476562 2.890625 -0.11328125 C6.65792205 0.44769604 8.20633604 1.48569929 10.75 4.3125 C11.37890625 7.625 11.37890625 7.625 11.3125 11.3125 C11.31443359 13.1378125 11.31443359 13.1378125 11.31640625 15 C10.75 18.3125 10.75 18.3125 9.13671875 20.734375 C5.93902478 22.84872584 3.79887176 22.71445487 0 22.5625 C-1.17046875 22.52640625 -2.3409375 22.4903125 -3.546875 22.453125 C-4.43890625 22.40671875 -5.3309375 22.3603125 -6.25 22.3125 C-6.27887814 18.83335059 -6.29675687 15.35423169 -6.3125 11.875 C-6.32087891 10.88177734 -6.32925781 9.88855469 -6.33789062 8.86523438 C-6.34111328 7.92099609 -6.34433594 6.97675781 -6.34765625 6.00390625 C-6.35289307 5.12935791 -6.35812988 4.25480957 -6.36352539 3.35375977 C-6.13773585 -0.70608179 -3.49662938 0.08881813 0 0 Z " fill="#080808" transform="translate(152.25,129.6875)"/>
<path d="M0 0 C5.02432445 2.61459991 8.76836044 6.36184325 12.8125 10.25 C17.49286712 14.71986257 22.21443306 19.1033634 27.10473633 23.34326172 C29.93555277 25.81781026 32.6872956 28.37410193 35.4375 30.9375 C36.99997656 32.39303901 38.56100986 33.84196875 40.16455078 35.25230408 C42 37 42 37 43.57409668 39.03114319 C46.99560986 42.96464186 50.1253593 45.11783765 55.32350159 45.70274353 C60.81122414 46.03132595 66.29242269 45.90027285 71.78515625 45.78125 C73.81251281 45.76631205 75.83989844 45.75493238 77.86729431 45.74694824 C83.17972841 45.71653651 88.49038703 45.63806857 93.80212402 45.54931641 C99.23177069 45.46718764 104.66170687 45.43087916 110.09179688 45.390625 C120.72864076 45.30506327 131.36417221 45.16868984 142 45 C141.67 46.32 141.34 47.64 141 49 C129.29026784 49.07796346 117.58150737 49.10725336 105.87152958 49.07515812 C100.43340659 49.06176638 94.99635383 49.06486309 89.55834961 49.10620117 C84.30582901 49.14551334 79.05499248 49.14078231 73.80245781 49.10607719 C71.80308665 49.10049718 69.80360635 49.11053506 67.80439949 49.13676643 C52.12297915 49.32733513 52.12297915 49.32733513 46.81646729 46.00958252 C44.58471756 43.78700935 42.80277654 41.57246275 41 39 C39.23898427 37.50479796 37.45286237 36.0377012 35.625 34.625 C30.57461093 30.58468874 26.06955945 26.1668527 21.55078125 21.55859375 C18.84360196 18.84312295 16.03256525 16.32378517 13.125 13.828125 C10.39113758 11.47619924 7.68843411 9.09101853 5 6.6875 C4.05125 5.84574219 3.1025 5.00398437 2.125 4.13671875 C0 2 0 2 0 0 Z " fill="#706E6C" transform="translate(0,143)"/>
<path d="M0 0 C4.81868271 3.4168841 9.12747805 6.99033691 13.23828125 11.23046875 C15.61913804 13.62188366 18.16149132 15.79595012 20.71484375 18 C23.43037326 20.37666856 26.09326977 22.80814922 28.75 25.25 C29.25426514 25.7130957 29.75853027 26.17619141 30.27807617 26.65332031 C32.95479218 29.11375733 35.6269017 31.57912453 38.296875 34.046875 C38.83344727 34.54155273 39.37001953 35.03623047 39.92285156 35.54589844 C41.41864593 36.92499306 42.91250424 38.30618672 44.40625 39.6875 C49.43664584 44.28152319 49.43664584 44.28152319 55.95214844 45.43237305 C56.93286316 45.45216721 57.91357788 45.47196136 58.92401123 45.49235535 C60.5007663 45.50194023 60.5007663 45.50194023 62.109375 45.51171875 C63.19132141 45.52966995 64.27326782 45.54762115 65.38800049 45.56611633 C68.84196074 45.62027636 72.29578235 45.65413403 75.75 45.6875 C78.09246723 45.72066796 80.43491616 45.75515713 82.77734375 45.79101562 C88.51810484 45.87600611 94.25888375 45.94433199 100 46 C100.66 44.68 101.32 43.36 102 42 C104.375 41.875 104.375 41.875 107 42 C109 44 109 44 109.25 47 C109 50 109 50 107 52 C104.375 52.125 104.375 52.125 102 52 C101.01 50.02 101.01 50.02 100 48 C99.41134659 48.03552979 98.82269318 48.07105957 98.21620178 48.10766602 C92.00292187 48.46592104 85.79262785 48.70458486 79.5715332 48.87890625 C77.26139994 48.95862698 74.95205448 49.06726608 72.64477539 49.20703125 C51.44378561 50.45766435 51.44378561 50.45766435 42.53038025 42.54663086 C39.82149104 39.82225529 37.29148175 36.99110772 34.82116699 34.04983521 C31.84089073 30.69535138 28.42113226 27.88919961 25 25 C22.85630774 23.06159096 20.7398312 21.0948161 18.625 19.125 C13.80149071 14.63840884 8.91079756 10.24533734 3.92578125 5.9375 C2.03929276 4.03953186 1.02378069 2.45269386 0 0 Z " fill="#797775" transform="translate(0,168)"/>
<path d="M0 0 C5.47124452 3.80154592 10.14195443 8.02321484 14.79296875 12.78515625 C17.3485135 15.34974717 20.03233092 17.70495419 22.77734375 20.0625 C25.51993082 22.45322616 28.19864182 24.91082309 30.875 27.375 C35.53163545 31.66152288 40.22108184 35.9084869 44.94140625 40.125 C47 42 47 42 48.31396484 43.59448242 C50.60848945 45.50725076 52.07539648 45.37315868 55.03515625 45.36328125 C56.49598633 45.36231445 56.49598633 45.36231445 57.98632812 45.36132812 C59.00146484 45.34521484 60.01660156 45.32910156 61.0625 45.3125 C62.08150391 45.31572266 63.10050781 45.31894531 64.15039062 45.32226562 C69.62401972 45.63948978 69.62401972 45.63948978 74 43 C77 42.75 77 42.75 80 43 C82 45 82 45 82.3125 47.4375 C82 50 82 50 80.8125 51.875 C79 53 79 53 76.4375 52.875 C74 52 74 52 72 49 C69.91607729 48.72089912 69.91607729 48.72089912 67.51953125 48.98046875 C50.59962105 49.67260604 50.59962105 49.67260604 43.49829102 43.28393555 C41.06272778 40.802029 38.71092514 38.2697495 36.43945312 35.63671875 C34.72735259 33.68998843 32.87185574 32.025294 30.875 30.375 C27.38416264 27.36984436 24.0033526 24.25515106 20.625 21.125 C16.5783778 17.37808424 12.52566881 13.63919495 8.4375 9.9375 C7.67308594 9.24527344 6.90867187 8.55304688 6.12109375 7.83984375 C4.03874913 5.96293332 4.03874913 5.96293332 1.72265625 4.44140625 C1.15417969 3.96574219 0.58570312 3.49007812 0 3 C0 2.01 0 1.02 0 0 Z " fill="#72716F" transform="translate(0,151)"/>
<path d="M0 0 C2.7648665 -0.22417836 4.46277487 -0.32233508 6.875 1.125 C8 3 8 3 7.75 6.125 C7 9 7 9 6 10 C4.00041636 10.04080783 1.99954746 10.04254356 0 10 C-0.99 8.02 -0.99 8.02 -2 6 C-69.815 5.505 -69.815 5.505 -139 5 C-139 4.67 -139 4.34 -139 4 C-93.79 4 -48.58 4 -2 4 C-1.34 2.68 -0.68 1.36 0 0 Z " fill="#60605E" transform="translate(191,168)"/>
<path d="M0 0 C11.07177146 9.38693667 21.72445216 19.25742839 32.37109375 29.12109375 C37.72609525 34.08088366 43.0838872 39.02201185 48.609375 43.79296875 C49.42841966 44.50388111 50.23311326 45.23311326 51 46 C54.63899175 46.25156269 58.29083673 46.18522226 61.9375 46.1875 C62.96552734 46.19974609 63.99355469 46.21199219 65.05273438 46.22460938 C66.03435547 46.22654297 67.01597656 46.22847656 68.02734375 46.23046875 C69.38460571 46.23663208 69.38460571 46.23663208 70.76928711 46.24291992 C73.20418778 46.21341297 73.20418778 46.21341297 75 44 C77.5625 43.8125 77.5625 43.8125 80 44 C81 45 81 45 81.125 47.5 C81 50 81 50 80 51 C77.5 51.125 77.5 51.125 75 51 C74.67 50.67 74.34 50.34 74 50 C72.44235395 49.98850793 70.88421324 50.03488065 69.328125 50.10546875 C51.37916124 50.48771105 51.37916124 50.48771105 45.24291992 45.09667969 C43.18127563 42.98034729 41.21794861 40.80901202 39.32617188 38.53955078 C37.38443865 36.28539582 35.18327474 34.38313189 32.9375 32.4375 C29.22422207 29.11064449 25.54385761 25.75057813 21.875 22.375 C16.58905176 17.51640144 11.26647404 12.70328886 5.734375 8.125 C4.99703125 7.50625 4.2596875 6.8875 3.5 6.25 C2.8296875 5.69828125 2.159375 5.1465625 1.46875 4.578125 C0 3 0 3 0 0 Z " fill="#706F6D" transform="translate(0,176)"/>
<path d="M0 0 C1.98 0 3.96 0 6 0 C6 11.22 6 22.44 6 34 C4.02 34 2.04 34 0 34 C0 22.78 0 11.56 0 0 Z " fill="#E2E2E2" transform="translate(232,124)"/>
<path d="M0 0 C2.625 0.25 2.625 0.25 4.5 1.4375 C5.625 3.25 5.625 3.25 5.4375 5.8125 C4.625 8.25 4.625 8.25 2.625 10.25 C-1.10796326 10.63286803 -2.15126323 10.39915785 -5.375 8.25 C-8.2425444 8.03646257 -11.01616862 7.93869807 -13.88549805 7.93115234 C-14.75400391 7.92110672 -15.62250977 7.9110611 -16.51733398 7.90071106 C-19.39045545 7.86979956 -22.26348341 7.85282181 -25.13671875 7.8359375 C-27.12784128 7.81723226 -29.11895583 7.79765934 -31.11006165 7.7772522 C-36.35266421 7.72585697 -41.59529249 7.68627081 -46.8380127 7.64910889 C-52.18699545 7.60911555 -57.53587054 7.55800193 -62.88476562 7.5078125 C-73.38143486 7.41096571 -83.87816478 7.32658895 -94.375 7.25 C-94.375 6.92 -94.375 6.59 -94.375 6.25 C-64.675 6.25 -34.975 6.25 -4.375 6.25 C-4.045 4.6 -3.715 2.95 -3.375 1.25 C-2.375 0.25 -2.375 0.25 0 0 Z " fill="#1F1E1E" transform="translate(145.375,184.75)"/>
<path d="M0 0 C1.1653125 -0.00257813 2.330625 -0.00515625 3.53125 -0.0078125 C6.5 0.125 6.5 0.125 8.5 1.125 C8.5 3.765 8.5 6.405 8.5 9.125 C2.89 9.125 -2.72 9.125 -8.5 9.125 C-8.5 6.485 -8.5 3.845 -8.5 1.125 C-5.64804778 -0.30097611 -3.17538825 -0.0070252 0 0 Z " fill="#181818" transform="translate(191.5,129.875)"/>
<path d="M0 0 C0.75410156 0.00451172 1.50820312 0.00902344 2.28515625 0.01367188 C4.14847127 0.02546501 6.01174555 0.04340058 7.875 0.0625 C7.28145161 5.40443548 7.28145161 5.40443548 5.7265625 7.921875 C2.91537318 9.65366252 0.51202922 9.38482881 -2.75 9.3125 C-4.50183594 9.28929687 -4.50183594 9.28929687 -6.2890625 9.265625 C-9.125 9.0625 -9.125 9.0625 -10.125 8.0625 C-10.16592937 5.72952567 -10.16741723 3.39544775 -10.125 1.0625 C-6.93675432 -0.53162284 -3.49603338 -0.03924735 0 0 Z " fill="#181818" transform="translate(118.125,142.9375)"/>
<path d="M0 0 C5.47124452 3.80154592 10.14195443 8.02321484 14.79296875 12.78515625 C17.34723312 15.34846227 20.02941668 17.70267149 22.7734375 20.05859375 C25.5392971 22.47022922 28.23888924 24.95132496 30.9375 27.4375 C35.90931833 32.01446739 40.92998611 36.53173018 46 41 C45.34 41.66 44.68 42.32 44 43 C43.443125 42.43152344 42.88625 41.86304688 42.3125 41.27734375 C38.09959716 37.01462618 33.83539774 32.90723392 29.2890625 29.00390625 C26.35036935 26.43129603 23.48875808 23.78044712 20.625 21.125 C16.57854183 17.37791061 12.52566557 13.63919202 8.4375 9.9375 C7.67308594 9.24527344 6.90867187 8.55304688 6.12109375 7.83984375 C4.03874913 5.96293332 4.03874913 5.96293332 1.72265625 4.44140625 C1.15417969 3.96574219 0.58570312 3.49007812 0 3 C0 2.01 0 1.02 0 0 Z " fill="#706F6D" transform="translate(0,151)"/>
<path d="M0 0 C4.81868271 3.4168841 9.12747805 6.99033691 13.23828125 11.23046875 C15.61530058 13.61802918 18.15288507 15.78894643 20.703125 17.98828125 C23.48839553 20.42776139 26.21432585 22.92930201 28.9375 25.4375 C33.90938142 30.01440049 38.92998428 34.53172857 44 39 C43.34 39.66 42.68 40.32 42 41 C41.443125 40.43152344 40.88625 39.86304688 40.3125 39.27734375 C36.09959716 35.01462618 31.83539774 30.90723392 27.2890625 27.00390625 C23.77485158 23.92747246 20.36346746 20.74132807 16.94311523 17.5612793 C12.67704926 13.60139924 8.33013426 9.74355301 3.92578125 5.9375 C2.03929276 4.03953186 1.02378069 2.45269386 0 0 Z " fill="#72716F" transform="translate(0,168)"/>
<path d="M0 0 C0.55413574 0.32452148 1.10827148 0.64904297 1.67919922 0.98339844 C4.34662608 2.15183579 6.22952517 2.25824956 9.1328125 2.265625 C10.58880859 2.26949219 10.58880859 2.26949219 12.07421875 2.2734375 C13.08097656 2.26570312 14.08773437 2.25796875 15.125 2.25 C16.64673828 2.26160156 16.64673828 2.26160156 18.19921875 2.2734375 C19.16730469 2.27085937 20.13539062 2.26828125 21.1328125 2.265625 C22.01855957 2.26336914 22.90430664 2.26111328 23.81689453 2.25878906 C26.20904409 2.20359025 26.20904409 2.20359025 28 0 C30.5625 -0.1875 30.5625 -0.1875 33 0 C34 1 34 1 34.125 3.5 C34 6 34 6 33 7 C30.5 7.125 30.5 7.125 28 7 C27.67 6.67 27.34 6.34 27 6 C25.33939728 5.90321123 23.67511743 5.86799439 22.01171875 5.859375 C20.48708008 5.83037109 20.48708008 5.83037109 18.93164062 5.80078125 C16.78078521 5.76711343 14.62963294 5.74871227 12.47851562 5.74609375 C4.59704311 5.55689858 4.59704311 5.55689858 1.26953125 2.453125 C0.85058594 1.64359375 0.43164062 0.8340625 0 0 Z " fill="#747371" transform="translate(47,220)"/>
<path d="M0 0 C2.5 0.4375 2.5 0.4375 4.375 1.5625 C5.5 3.4375 5.5 3.4375 5.25 6.5625 C4.5 9.4375 4.5 9.4375 3.5 10.4375 C1.50041636 10.47830783 -0.50045254 10.48004356 -2.5 10.4375 C-3.16 9.1175 -3.82 7.7975 -4.5 6.4375 C-6.15 6.4375 -7.8 6.4375 -9.5 6.4375 C-8.901875 6.19 -8.30375 5.9425 -7.6875 5.6875 C-5.364026 4.57315925 -5.364026 4.57315925 -4.0625 2.3125 C-2.5 0.4375 -2.5 0.4375 0 0 Z " fill="#777674" transform="translate(193.5,167.5625)"/>
<path d="M0 0 C2.5625 0.3125 2.5625 0.3125 4.4375 1.5 C5.5625 3.3125 5.5625 3.3125 5.375 5.875 C4.5625 8.3125 4.5625 8.3125 2.5625 10.3125 C0.0625 10.625 0.0625 10.625 -2.4375 10.3125 C-4.58665785 7.08876323 -4.82036803 6.04546326 -4.4375 2.3125 C-2.4375 0.3125 -2.4375 0.3125 0 0 Z " fill="#696866" transform="translate(145.4375,184.6875)"/>
<path d="M0 0 C4.90179411 4.12196323 9.646492 8.3976513 14.35742188 12.73486328 C19.20363048 17.19550875 24.09449781 21.60458322 29 26 C28.34 26.66 27.68 27.32 27 28 C26.443125 27.43152344 25.88625 26.86304688 25.3125 26.27734375 C19.53419844 20.43071768 13.52096023 15.01074935 7.27734375 9.671875 C6.36082031 8.87265625 5.44429688 8.0734375 4.5 7.25 C3.6440625 6.51265625 2.788125 5.7753125 1.90625 5.015625 C0 3 0 3 0 0 Z " fill="#6A6967" transform="translate(0,159)"/>
<path d="M0 0 C1.4540625 0.0309375 1.4540625 0.0309375 2.9375 0.0625 C4.0625 6.8125 4.0625 6.8125 2.9375 9.0625 C0.9575 9.0625 -1.0225 9.0625 -3.0625 9.0625 C-4.42873674 6.33002652 -4.190926 4.08051098 -4.0625 1.0625 C-3.0625 0.0625 -3.0625 0.0625 0 0 Z " fill="#A4A2A0" transform="translate(121.0625,176.9375)"/>
<path d="M0 0 C2.5625 0.1875 2.5625 0.1875 4.5625 2.1875 C4.00694444 6.74305556 4.00694444 6.74305556 2.5625 8.1875 C0.89632885 8.22813832 -0.77138095 8.230221 -2.4375 8.1875 C-2.81813221 5.8614143 -3.15019945 3.52694736 -3.4375 1.1875 C-2.4375 0.1875 -2.4375 0.1875 0 0 Z " fill="#DBD8D5" transform="translate(161.4375,202.8125)"/>
<path d="M0 0 C2.96325944 1.35108966 5.20785165 2.88706648 7.625 5.0625 C8.30820312 5.67351562 8.99140625 6.28453125 9.6953125 6.9140625 C10.45585938 7.60242188 11.21640625 8.29078125 12 9 C12.90492187 9.81210938 13.80984375 10.62421875 14.7421875 11.4609375 C17.16503746 13.63669794 19.58397556 15.81666644 22 18 C21.34 18.66 20.68 19.32 20 20 C19.27296875 19.25556641 19.27296875 19.25556641 18.53125 18.49609375 C15.04293497 14.96082063 11.52904121 11.53747126 7.75 8.3125 C4.78947356 5.77157573 2.30555301 3.17013538 0 0 Z " fill="#72716F" transform="translate(28,186)"/>
<path d="M0 0 C4.23380191 1.68319442 7.13172992 4.72242586 10.375 7.8125 C14.47768457 11.68992035 18.62779493 15.42694419 23 19 C22.34 19.66 21.68 20.32 21 21 C20.443125 20.43152344 19.88625 19.86304688 19.3125 19.27734375 C15.54292354 15.46319459 11.76868445 11.73168843 7.6875 8.25 C4.7467775 5.73189631 2.28801172 3.14601612 0 0 Z " fill="#797775" transform="translate(25,200)"/>
<path d="M0 0 C2.5 0.125 2.5 0.125 3.5 1.125 C3.625 3.625 3.625 3.625 3.5 6.125 C2.5 7.125 2.5 7.125 0 7.25 C-2.5 7.125 -2.5 7.125 -3.5 6.125 C-3.625 3.625 -3.625 3.625 -3.5 1.125 C-2.5 0.125 -2.5 0.125 0 0 Z " fill="#EDEAE6" transform="translate(77.5,219.875)"/>
<path d="M0 0 C2.31 0 4.62 0 7 0 C7 1.98 7 3.96 7 6 C4.69 6 2.38 6 0 6 C0 4.02 0 2.04 0 0 Z " fill="#B7B7B7" transform="translate(232,111)"/>
<path d="M0 0 C1.65 0.33 3.3 0.66 5 1 C5 2.65 5 4.3 5 6 C3.35 6 1.7 6 0 6 C-1.125 2.25 -1.125 2.25 0 0 Z " fill="#0E0E0D" transform="translate(102,212)"/>
<path d="M0 0 C1.65 0.33 3.3 0.66 5 1 C4.67 2.65 4.34 4.3 4 6 C2.35 5.67 0.7 5.34 -1 5 C-0.67 3.35 -0.34 1.7 0 0 Z " fill="#111010" transform="translate(192,170)"/>
<path d="M0 0 C1.65 0.33 3.3 0.66 5 1 C4.67 2.65 4.34 4.3 4 6 C2.35 5.67 0.7 5.34 -1 5 C-0.67 3.35 -0.34 1.7 0 0 Z " fill="#0E0E0E" transform="translate(75,195)"/>
<path d="M0 0 C1.65 0 3.3 0 5 0 C5 1.98 5 3.96 5 6 C3.35 6 1.7 6 0 6 C0 4.02 0 2.04 0 0 Z " fill="#0F0F0F" transform="translate(143,187)"/>
<path d="M0 0 C5.08335725 0.15404113 7.35754718 3.02068432 10.64453125 6.50390625 C11.09183594 6.99761719 11.53914063 7.49132812 12 8 C11.34 8.66 10.68 9.32 10 10 C8.33037631 8.52417192 6.6643694 7.04425109 5 5.5625 C4.071875 4.73878906 3.14375 3.91507813 2.1875 3.06640625 C1.465625 2.38449219 0.74375 1.70257813 0 1 C0 0.67 0 0.34 0 0 Z " fill="#696866" transform="translate(29,171)"/>
<path d="M0 0 C0.66 1.32 1.32 2.64 2 4 C0.8125 5.5625 0.8125 5.5625 -1 7 C-3.6875 6.6875 -3.6875 6.6875 -6 6 C-6 5.01 -6 4.02 -6 3 C-4.35 3 -2.7 3 -1 3 C-0.67 2.01 -0.34 1.02 0 0 Z " fill="#656362" transform="translate(80,197)"/>
<path d="M0 0 C1.2684375 0.12375 1.2684375 0.12375 2.5625 0.25 C3.2225 1.24 3.8825 2.23 4.5625 3.25 C3.9025 4.57 3.2425 5.89 2.5625 7.25 C2.2325 5.93 1.9025 4.61 1.5625 3.25 C0.2425 2.92 -1.0775 2.59 -2.4375 2.25 C-2.7675 2.91 -3.0975 3.57 -3.4375 4.25 C-3.4375 0.3525641 -3.4375 0.3525641 0 0 Z " fill="#6A6967" transform="translate(104.4375,209.75)"/>
<path d="M0 0 C1.32 0 2.64 0 4 0 C4 1.65 4 3.3 4 5 C2.35 4.67 0.7 4.34 -1 4 C-0.67 2.68 -0.34 1.36 0 0 Z " fill="#F3F1EE" transform="translate(118,179)"/>
<path d="M0 0 C0.66 0.99 1.32 1.98 2 3 C4.58380177 3.25030977 4.58380177 3.25030977 7 3 C7 3.99 7 4.98 7 6 C5.02 6 3.04 6 1 6 C-0.0625 4.125 -0.0625 4.125 -1 2 C-0.67 1.34 -0.34 0.68 0 0 Z " fill="#6C6B69" transform="translate(190,172)"/>
<path d="M0 0 C1.65 0 3.3 0 5 0 C5 1.32 5 2.64 5 4 C3.35 4 1.7 4 0 4 C0 2.68 0 1.36 0 0 Z " fill="#FFFFFF" transform="translate(233,112)"/>
</svg>
