<?xml version="1.0" encoding="UTF-8"?>
<svg version="1.1" xmlns="http://www.w3.org/2000/svg" width="377" height="174">
<path d="M0 0 C9 0 9 0 11.25927734 2.13964844 C11.7795752 3.1196582 12.29987305 4.09966797 12.8359375 5.109375 C13.42503906 6.17414062 14.01414062 7.23890625 14.62109375 8.3359375 C15.19988281 9.46257813 15.77867188 10.58921875 16.375 11.75 C17.56896744 13.95385424 18.76422949 16.15700771 19.9609375 18.359375 C20.47446777 19.34389648 20.98799805 20.32841797 21.51708984 21.34277344 C22.8554579 23.74099503 24.29343306 25.85391098 26 28 C26.47945068 27.18732666 26.95890137 26.37465332 27.45288086 25.53735352 C29.22771889 22.53061723 31.00389913 19.5246826 32.78100586 16.51928711 C33.55075433 15.21687335 34.31996195 13.91413979 35.08862305 12.61108398 C36.19178451 10.74118619 37.2968681 8.8724366 38.40234375 7.00390625 C39.06741943 5.87799072 39.73249512 4.7520752 40.41772461 3.59204102 C42 1 42 1 43 0 C45.97 0 48.94 0 52 0 C52 18.15 52 36.3 52 55 C49.36 55 46.72 55 44 55 C43.67 41.47 43.34 27.94 43 14 C35.94961123 25.97078453 35.94961123 25.97078453 29 38 C26.69 38 24.38 38 22 38 C21.64695801 37.37955811 21.29391602 36.75911621 20.93017578 36.11987305 C19.32958086 33.30843676 17.72731003 30.49795913 16.125 27.6875 C15.56941406 26.71103516 15.01382813 25.73457031 14.44140625 24.72851562 C13.90644531 23.79072266 13.37148437 22.85292969 12.8203125 21.88671875 C12.32805176 21.02264404 11.83579102 20.15856934 11.32861328 19.26831055 C10.27874547 17.47589565 9.15225179 15.72837768 8 14 C7.67 27.53 7.34 41.06 7 55 C4.69 55 2.38 55 0 55 C0 36.85 0 18.7 0 0 Z " fill="#FFFFFF" transform="translate(57,46)"/>
<path d="M0 0 C2.64 0 5.28 0 8 0 C8 18.15 8 36.3 8 55 C5.69 55 3.38 55 1 55 C0.34 54.01 -0.32 53.02 -1 52 C-1.598125 52.474375 -2.19625 52.94875 -2.8125 53.4375 C-7.20714989 56.57653564 -11.79681148 56.59737106 -17 56 C-20.64765609 54.88366081 -23.114109 53.28979268 -25.28515625 50.12890625 C-29.54253148 42.05667866 -30.36710125 33.07407325 -27.9375 24.25 C-25.96829301 18.9104195 -22.02380625 15.51190313 -17 13 C-11.24528709 12.40150986 -7.01029401 12.86856625 -2 16 C-1.67 16.33 -1.34 16.66 -1 17 C-0.67 11.39 -0.34 5.78 0 0 Z M-19 23 C-21.87008642 28.76024338 -21.51422111 34.71068029 -21 41 C-19.555779 45.18824089 -17.99705669 47.94437084 -14 50 C-9.96818643 50.61353685 -8.31515173 50.18181831 -4.75 48.125 C-2.03655974 46.12133595 -2.03655974 46.12133595 0 44 C0.28045302 41.03605437 0.41637765 38.21651671 0.4375 35.25 C0.47037109 34.45078125 0.50324219 33.6515625 0.53710938 32.828125 C0.57547078 28.587446 0.32554768 25.84085442 -2.40234375 22.484375 C-5.45313491 19.56662586 -6.13984412 19.08114678 -10.3125 18.6875 C-14.63730212 19.05400865 -16.04850506 19.8798482 -19 23 Z " fill="#FFFFFF" transform="translate(192,46)"/>
<path d="M0 0 C3.75772582 2.33307647 4.68642305 4.56566438 5.94189453 8.70288086 C7.09674269 14.62008844 6.80288081 20.62223961 6.6875 26.625 C6.67241956 27.98110486 6.65873712 29.33722602 6.64648438 30.69335938 C6.61135836 33.98349602 6.5621664 37.27278183 6.5 40.5625 C3.125 40.75 3.125 40.75 -0.5 40.5625 C-1.16 39.5725 -1.82 38.5825 -2.5 37.5625 C-3.634375 38.2225 -4.76875 38.8825 -5.9375 39.5625 C-11.75903553 42.45781236 -16.75647602 42.47700799 -22.875 40.4375 C-26.21716985 38.05023582 -27.26381352 36.48920999 -28.5 32.5625 C-28.7790326 27.76821254 -28.21186635 24.54655054 -25.375 20.625 C-18.29076053 15.54282821 -9.9412676 16.00739344 -1.5 15.5625 C-1.78127421 14.08132199 -2.07533732 12.60256751 -2.375 11.125 C-2.53742188 10.30128906 -2.69984375 9.47757813 -2.8671875 8.62890625 C-3.18042969 7.60603516 -3.18042969 7.60603516 -3.5 6.5625 C-5.8396669 5.39266655 -7.33391527 5.3963759 -9.9375 5.375 C-10.71996094 5.36082031 -11.50242188 5.34664063 -12.30859375 5.33203125 C-14.79205987 5.42163936 -14.79205987 5.42163936 -17.5 7.5625 C-18.71284876 10.61679073 -18.71284876 10.61679073 -19.5 13.5625 C-21.81 13.5625 -24.12 13.5625 -26.5 13.5625 C-26.13444109 6.37317472 -26.13444109 6.37317472 -23.25 2.6875 C-16.51931401 -2.51348463 -7.87692739 -3.1886268 0 0 Z M-10.4375 21.3125 C-11.47777344 21.45171875 -12.51804688 21.5909375 -13.58984375 21.734375 C-16.97573568 22.69787713 -18.35047489 23.80682918 -20.5 26.5625 C-20.94912849 29.70639944 -21.004106 31.61730125 -19.5 34.4375 C-16.26628001 36.25646749 -13.05738948 36.18790117 -9.5 35.5625 C-6.35655565 33.81614203 -4.03137274 32.09387274 -1.5 29.5625 C-1.25746187 27.35177023 -1.25746187 27.35177023 -1.375 24.9375 C-1.39304688 24.12023437 -1.41109375 23.30296875 -1.4296875 22.4609375 C-1.45289063 21.83445312 -1.47609375 21.20796875 -1.5 20.5625 C-4.56557708 20.5625 -7.40349469 20.87746339 -10.4375 21.3125 Z " fill="#FFFFFF" transform="translate(147.5,60.4375)"/>
<path d="M0 0 C4.12593192 2.87855716 7.06537651 6.00862953 8.6875 10.875 C8.6875 14.505 8.6875 18.135 8.6875 21.875 C-0.5525 21.875 -9.7925 21.875 -19.3125 21.875 C-16.8026134 32.70306384 -16.8026134 32.70306384 -11.3125 34.875 C-7.51489784 35.44612376 -4.31313003 35.38814361 -0.875 33.625 C0.84738127 31.69593298 1.33728759 30.41403996 1.6875 27.875 C3.9975 27.875 6.3075 27.875 8.6875 27.875 C8.43989109 32.08435149 8.10647739 34.35127827 5.4375 37.6875 C-0.40440012 42.334466 -6.08510088 42.54558342 -13.3125 41.875 C-18.51810436 40.13979855 -21.13295575 37.29103368 -24.3125 32.875 C-27.72999409 25.98005579 -27.48051661 17.13418615 -25.47265625 9.8125 C-23.24877269 4.78068265 -20.73865715 1.4919313 -15.55859375 -0.57421875 C-10.13644738 -1.90382334 -5.27945905 -1.79302383 0 0 Z M-17.3125 8.875 C-18.83098927 11.83966952 -19.3125 13.53261787 -19.3125 16.875 C-12.3825 16.875 -5.4525 16.875 1.6875 16.875 C1.28010869 10.24731073 1.28010869 10.24731073 -1.375 6.9375 C-4.69697273 4.60505106 -6.42036515 4.18397763 -10.3828125 4.453125 C-13.52110059 5.13922847 -15.16676451 6.5399349 -17.3125 8.875 Z " fill="#FFFFFF" transform="translate(236.3125,60.125)"/>
<path d="M0 0 C12.87 0 25.74 0 39 0 C39 1.98 39 3.96 39 6 C33.72 6 28.44 6 23 6 C23 22.17 23 38.34 23 55 C20.36 55 17.72 55 15 55 C15 38.83 15 22.66 15 6 C10.05 6 5.1 6 0 6 C0 4.02 0 2.04 0 0 Z " fill="#FFFFFF" transform="translate(288,46)"/>
<path d="M0 0 C2.64 0 5.28 0 8 0 C8 18.15 8 36.3 8 55 C5.36 55 2.72 55 0 55 C0 36.85 0 18.7 0 0 Z " fill="#FFFFFF" transform="translate(273,46)"/>
</svg>
