<?xml version="1.0" encoding="UTF-8"?>
<svg version="1.1" xmlns="http://www.w3.org/2000/svg" width="526" height="175">
<path d="M0 0 C31.71153846 0 31.71153846 0 40.4375 8.25 C46.29687908 15.98504434 46.83258776 24.56009651 46 34 C44.82589013 40.90715083 41.52092065 46.63005094 36 51 C27 55 27 55 0 55 C0 36.85 0 18.7 0 0 Z M8 6 C8 19.86 8 33.72 8 48 C21.46265712 49.1722096 21.46265712 49.1722096 33 44 C38.19743412 37.51089586 38.67036404 29.99561473 38 22 C36.59295133 15.61842491 33.63047106 11.42031404 28.125 7.75 C21.5391445 5.42558041 14.97032314 6 8 6 Z " fill="#FFFFFF" transform="translate(166,47)"/>
<path d="M0 0 C2.5625 1.6875 2.5625 1.6875 4.5625 4.6875 C5.9546875 3.4809375 5.9546875 3.4809375 7.375 2.25 C11.44979986 -1.28149321 15.10973968 -1.60381468 20.34375 -1.52734375 C23.45254101 -1.22631645 25.1943186 -0.33241943 27.5625 1.6875 C31.63783863 7.0727689 31.69021306 12.84605383 31.66015625 19.3984375 C31.65693359 20.64238281 31.65371094 21.88632813 31.65039062 23.16796875 C31.63782227 25.09576172 31.63782227 25.09576172 31.625 27.0625 C31.62048828 28.37089844 31.61597656 29.67929688 31.61132812 31.02734375 C31.59957594 34.24744281 31.58314543 37.4674477 31.5625 40.6875 C28.9225 40.6875 26.2825 40.6875 23.5625 40.6875 C23.54791748 39.76936523 23.53333496 38.85123047 23.51831055 37.90527344 C23.45716485 34.49062091 23.38299783 31.07676328 23.30004883 27.66259766 C23.26684645 26.18646862 23.23879983 24.71021406 23.21606445 23.23388672 C23.18243049 21.10850668 23.13011481 18.98427196 23.07421875 16.859375 C23.04803467 15.5815918 23.02185059 14.30380859 22.99487305 12.98730469 C22.54667954 9.5667607 21.89901744 8.15729958 19.5625 5.6875 C18.345625 5.790625 17.12875 5.89375 15.875 6 C15.19050781 6.05800781 14.50601563 6.11601563 13.80078125 6.17578125 C10.78818687 6.86452447 8.99720703 7.75318361 6.5625 9.6875 C5.77838287 12.96611071 5.77838287 12.96611071 5.85546875 16.76171875 C5.84034744 17.4455513 5.82522614 18.12938385 5.80964661 18.8339386 C5.76671337 21.0146263 5.75792766 23.19393152 5.75 25.375 C5.72685957 26.85485461 5.70149516 28.33467623 5.67382812 29.81445312 C5.61092468 33.43877494 5.57863019 37.06263428 5.5625 40.6875 C2.9225 40.6875 0.2825 40.6875 -2.4375 40.6875 C-2.45208252 39.73383545 -2.46666504 38.7801709 -2.48168945 37.79760742 C-2.53967792 34.25816415 -2.61690958 30.71935676 -2.69995117 27.18041992 C-2.73319818 25.64894941 -2.76123093 24.11735644 -2.78393555 22.58569336 C-2.81748718 20.38342113 -2.8697991 18.18227088 -2.92578125 15.98046875 C-2.93217117 15.29599167 -2.9385611 14.61151459 -2.94514465 13.90629578 C-3.03209512 11.09302445 -3.15970736 9.10957865 -4.72729492 6.7277832 C-7.22183391 5.21040553 -9.49017352 5.65809292 -12.3046875 5.97265625 C-15.38521534 7.00514086 -17.12667244 8.39679711 -19.4375 10.6875 C-20.2156731 13.96115752 -20.2156731 13.96115752 -20.14453125 17.640625 C-20.15965256 18.30084656 -20.17477386 18.96106812 -20.19035339 19.64129639 C-20.233182 21.7403796 -20.24206202 23.8380237 -20.25 25.9375 C-20.27314864 27.36462146 -20.29851477 28.79170879 -20.32617188 30.21875 C-20.38897146 33.70830563 -20.42134791 37.19738132 -20.4375 40.6875 C-22.7475 40.6875 -25.0575 40.6875 -27.4375 40.6875 C-27.4375 27.1575 -27.4375 13.6275 -27.4375 -0.3125 C-25.1275 -0.3125 -22.8175 -0.3125 -20.4375 -0.3125 C-20.1075 0.6775 -19.7775 1.6675 -19.4375 2.6875 C-18.468125 2.0275 -17.49875 1.3675 -16.5 0.6875 C-10.97929559 -2.45281972 -5.83527948 -2.2280158 0 0 Z " fill="#FFFFFF" transform="translate(376.4375,61.3125)"/>
<path d="M0 0 C3.75772582 2.33307647 4.68642305 4.56566438 5.94189453 8.70288086 C7.09674269 14.62008844 6.80288081 20.62223961 6.6875 26.625 C6.67241956 27.98110486 6.65873712 29.33722602 6.64648438 30.69335938 C6.61135836 33.98349602 6.5621664 37.27278183 6.5 40.5625 C3.125 40.75 3.125 40.75 -0.5 40.5625 C-1.16 39.5725 -1.82 38.5825 -2.5 37.5625 C-3.634375 38.2225 -4.76875 38.8825 -5.9375 39.5625 C-11.75903553 42.45781236 -16.75647602 42.47700799 -22.875 40.4375 C-26.21716985 38.05023582 -27.26381352 36.48920999 -28.5 32.5625 C-28.7790326 27.76821254 -28.21186635 24.54655054 -25.375 20.625 C-18.29076053 15.54282821 -9.9412676 16.00739344 -1.5 15.5625 C-1.78127421 14.08132199 -2.07533732 12.60256751 -2.375 11.125 C-2.53742188 10.30128906 -2.69984375 9.47757813 -2.8671875 8.62890625 C-3.18042969 7.60603516 -3.18042969 7.60603516 -3.5 6.5625 C-5.8396669 5.39266655 -7.33391527 5.3963759 -9.9375 5.375 C-10.71996094 5.36082031 -11.50242187 5.34664063 -12.30859375 5.33203125 C-14.79205987 5.42163936 -14.79205987 5.42163936 -17.5 7.5625 C-18.71284876 10.61679073 -18.71284876 10.61679073 -19.5 13.5625 C-21.81 13.5625 -24.12 13.5625 -26.5 13.5625 C-26.13444109 6.37317472 -26.13444109 6.37317472 -23.25 2.6875 C-16.51931401 -2.51348463 -7.87692739 -3.1886268 0 0 Z M-10.4375 21.3125 C-11.47777344 21.45171875 -12.51804687 21.5909375 -13.58984375 21.734375 C-16.97573568 22.69787713 -18.35047489 23.80682918 -20.5 26.5625 C-20.94912849 29.70639944 -21.004106 31.61730125 -19.5 34.4375 C-16.26628001 36.25646749 -13.05738948 36.18790117 -9.5 35.5625 C-6.35655565 33.81614203 -4.03137274 32.09387274 -1.5 29.5625 C-1.25746187 27.35177023 -1.25746187 27.35177023 -1.375 24.9375 C-1.39304687 24.12023437 -1.41109375 23.30296875 -1.4296875 22.4609375 C-1.45289063 21.83445312 -1.47609375 21.20796875 -1.5 20.5625 C-4.56557708 20.5625 -7.40349469 20.87746339 -10.4375 21.3125 Z " fill="#FFFFFF" transform="translate(330.5,61.4375)"/>
<path d="M0 0 C3.77392376 3.54520111 4.94596399 7.66044913 5.40307617 12.66967773 C5.3795105 14.62562866 5.3795105 14.62562866 5.35546875 16.62109375 C5.35122391 17.32146255 5.34697906 18.02183136 5.34260559 18.74342346 C5.32597156 20.95436 5.2883518 23.16434457 5.25 25.375 C5.23493326 26.88475235 5.22124836 28.39451916 5.20898438 29.90429688 C5.17611921 33.58233434 5.12444582 37.25982407 5.0625 40.9375 C2.4225 40.9375 -0.2175 40.9375 -2.9375 40.9375 C-2.96255615 39.97859863 -2.9876123 39.01969727 -3.01342773 38.03173828 C-3.1074862 34.47951523 -3.20771058 30.92748844 -3.30981445 27.37548828 C-3.35316926 25.83712347 -3.39484395 24.29871037 -3.43481445 22.76025391 C-3.49250398 20.5509586 -3.55620179 18.34190652 -3.62109375 16.1328125 C-3.63780624 15.44317413 -3.65451874 14.75353577 -3.67173767 14.04299927 C-3.74556995 10.36635736 -3.74556995 10.36635736 -4.9375 6.9375 C-9.02650075 5.89520569 -11.29074684 5.68123931 -15.25 7.25 C-17.96274187 8.814192 -17.96274187 8.814192 -19.9375 10.9375 C-20.31072427 14.04506015 -20.31072427 14.04506015 -20.3515625 17.6953125 C-20.37092865 18.35836395 -20.3902948 19.02141541 -20.4102478 19.70455933 C-20.47005954 21.82374177 -20.51643388 23.9429785 -20.5625 26.0625 C-20.60067845 27.49872169 -20.63973011 28.93492045 -20.6796875 30.37109375 C-20.77576125 33.89301936 -20.85978642 37.41511608 -20.9375 40.9375 C-23.5775 40.9375 -26.2175 40.9375 -28.9375 40.9375 C-28.9375 27.4075 -28.9375 13.8775 -28.9375 -0.0625 C-26.6275 -0.0625 -24.3175 -0.0625 -21.9375 -0.0625 C-21.2775 0.9275 -20.6175 1.9175 -19.9375 2.9375 C-18.98875 2.2775 -18.04 1.6175 -17.0625 0.9375 C-11.62244621 -2.16952259 -5.81470691 -2.10319186 0 0 Z " fill="#FFFFFF" transform="translate(287.9375,61.0625)"/>
<path d="M0 0 C2.64 0 5.28 0 8 0 C11.63 9.9 15.26 19.8 19 30 C22.02793072 22.73296627 24.91121468 15.70095393 27.3125 8.25 C27.57611328 7.445625 27.83972656 6.64125 28.11132812 5.8125 C28.74517111 3.8763978 29.3732477 1.93840919 30 0 C32.64 0 35.28 0 38 0 C33.52072253 13.14817568 28.98042863 26.27492435 24.1875 39.3125 C23.8272876 40.3128125 23.4670752 41.313125 23.09594727 42.34375 C21.31010811 47.14684162 19.72732445 51.33315952 16 55 C13.11788698 55.96070434 11.30149956 56.10581883 8.3125 56.0625 C7.10013672 56.04896484 7.10013672 56.04896484 5.86328125 56.03515625 C5.24839844 56.02355469 4.63351563 56.01195312 4 56 C4 54.02 4 52.04 4 50 C5.27875 49.773125 6.5575 49.54625 7.875 49.3125 C11.29488548 48.47401849 11.29488548 48.47401849 13.5625 45.8125 C14.55560309 39.42826588 12.37906034 33.77790172 10.05859375 27.94921875 C9.77146011 27.2092012 9.48432648 26.46918365 9.18849182 25.70674133 C8.27847408 23.36420029 7.35864687 21.02568463 6.4375 18.6875 C5.51423814 16.33093598 4.59313171 13.97357787 3.67579651 11.61470032 C3.10644661 10.15195004 2.53343078 8.69062033 1.95640564 7.23088074 C0 2.2229928 0 2.2229928 0 0 Z " fill="#FFFFFF" transform="translate(216,61)"/>
<path d="M0 0 C3.44485459 1.66091203 5.34975805 2.77070137 7.14404297 6.1628418 C8.21510455 9.71298631 8.24972945 13.03781559 8.1953125 16.70703125 C8.1924826 17.43242599 8.18965271 18.15782074 8.18673706 18.90519714 C8.17559799 21.20780368 8.15050566 23.51001227 8.125 25.8125 C8.11496206 27.37955165 8.10583763 28.94660943 8.09765625 30.51367188 C8.0756793 34.34259978 8.04119339 38.17123256 8 42 C5.69 42 3.38 42 1 42 C0.9906543 41.08186523 0.98130859 40.16373047 0.97167969 39.21777344 C0.92760069 35.80294722 0.86596268 32.38936892 0.79248047 28.97509766 C0.76429912 27.49897804 0.74307034 26.02270831 0.72900391 24.54638672 C0.70753302 22.42076943 0.66086957 20.29695121 0.609375 18.171875 C0.58842773 16.8940918 0.56748047 15.61630859 0.54589844 14.29980469 C0.24671427 10.95093573 0.24671427 10.95093573 -1.79199219 8.55175781 C-4.58676036 6.58763281 -6.57835643 6.82706722 -9.90234375 7.25 C-12.93490462 8.33426757 -14.70572371 9.72986421 -17 12 C-17.7781731 15.27365752 -17.7781731 15.27365752 -17.70703125 18.953125 C-17.72215256 19.61334656 -17.73727386 20.27356812 -17.75285339 20.95379639 C-17.795682 23.0528796 -17.80456202 25.1505237 -17.8125 27.25 C-17.83564864 28.67712146 -17.86101477 30.10420879 -17.88867188 31.53125 C-17.95147146 35.02080563 -17.98384791 38.50988132 -18 42 C-20.31 42 -22.62 42 -25 42 C-25 28.47 -25 14.94 -25 1 C-22.69 1 -20.38 1 -18 1 C-18 2.32 -18 3.64 -18 5 C-17.53851563 4.6390625 -17.07703125 4.278125 -16.6015625 3.90625 C-11.15042361 0.02796937 -6.64778514 -1.20060334 0 0 Z " fill="#FFFFFF" transform="translate(82,60)"/>
<path d="M0 0 C4.23633219 1.93772973 6.77269026 3.84769232 8.609375 8.27734375 C9.296875 11.08984375 9.296875 11.08984375 9.609375 13.27734375 C6.969375 13.27734375 4.329375 13.27734375 1.609375 13.27734375 C1.155625 12.30796875 0.701875 11.33859375 0.234375 10.33984375 C-1.04848721 7.20654793 -1.04848721 7.20654793 -3.390625 6.27734375 C-8.33829414 5.90393476 -11.50155483 6.05497132 -15.390625 9.27734375 C-18.28578247 15.00692111 -17.9101465 21.01159964 -17.390625 27.27734375 C-15.87268163 31.54204179 -15.14158819 32.77670163 -11.390625 35.27734375 C-5.49423515 35.76164777 -5.49423515 35.76164777 -0.390625 33.27734375 C0.90169142 30.23534903 0.90169142 30.23534903 1.609375 27.27734375 C4.249375 27.27734375 6.889375 27.27734375 9.609375 27.27734375 C9.19663822 32.53973766 8.48988473 35.60107138 4.609375 39.27734375 C-0.92961686 42.48995903 -6.04690075 43.14239706 -12.390625 42.27734375 C-17.39913099 40.88997014 -20.46109475 38.67315519 -23.328125 34.33984375 C-24.99325933 31.29454774 -26.14068825 28.77645831 -26.390625 25.27734375 C-26.4834375 24.20033203 -26.4834375 24.20033203 -26.578125 23.1015625 C-26.9073841 16.48551242 -25.66526857 11.06360715 -22.390625 5.27734375 C-16.12027661 -0.99300464 -8.52253053 -2.57625514 0 0 Z " fill="#FFFFFF" transform="translate(462.390625,60.72265625)"/>
<path d="M0 0 C4.93264249 -1.14507772 4.93264249 -1.14507772 8 0 C11.23527953 4.04956441 13.62640284 8.40431187 16 13 C18.7301622 10.59009143 20.06003698 8.04410995 21.6875 4.8125 C24.34728295 0.19640315 24.34728295 0.19640315 27.16796875 -0.65234375 C29.375 -0.625 29.375 -0.625 33 0 C31.41467191 4.55564061 29.00996919 8.31475769 26.375 12.3125 C25.95476562 12.95767578 25.53453125 13.60285156 25.1015625 14.26757812 C24.07161759 15.84760724 23.03634372 17.42416047 22 19 C25.99632124 26.56812483 30.3169561 33.83688255 35 41 C30.02545455 41.87272727 30.02545455 41.87272727 27 41 C24.0989412 38.00185853 22.07663579 34.60125447 20 31 C19.43925781 30.06542969 18.87851563 29.13085938 18.30078125 28.16796875 C17.87152344 27.45253906 17.44226563 26.73710938 17 26 C14.91799713 28.40231101 13.1445685 30.71218125 11.71484375 33.55859375 C10.31246635 36.31256608 9.0369194 38.67019023 7 41 C3.84400149 41.85227456 1.18386469 41.63677294 -2 41 C-0.95966892 39.35332211 0.08235447 37.70771339 1.125 36.0625 C1.75664063 35.0621875 2.38828125 34.061875 3.0390625 33.03125 C5.26072569 29.59696587 7.61401558 26.27168792 10.03125 22.97265625 C11.27255388 20.44500118 10.87396261 19.6312918 10 17 C8.98030347 15.05724415 8.98030347 15.05724415 7.71484375 13.14453125 C7.26689453 12.44005859 6.81894531 11.73558594 6.35742188 11.00976562 C5.88884766 10.28466797 5.42027344 9.55957031 4.9375 8.8125 C4.00722816 7.36188511 3.07874047 5.91012394 2.15234375 4.45703125 C1.73976318 3.81741455 1.32718262 3.17779785 0.90209961 2.51879883 C0 1 0 1 0 0 Z " fill="#FFFFFF" transform="translate(97,61)"/>
<path d="M0 0 C2.31 0 4.62 0 7 0 C7 2.97 7 5.94 7 9 C10.3 9 13.6 9 17 9 C17 10.98 17 12.96 17 15 C13.7 15 10.4 15 7 15 C7.13867261 19.10444167 7.28716103 23.2084704 7.4375 27.3125 C7.47681641 28.47974609 7.51613281 29.64699219 7.55664062 30.84960938 C7.61948242 32.52700195 7.61948242 32.52700195 7.68359375 34.23828125 C7.72025146 35.26993408 7.75690918 36.30158691 7.79467773 37.36450195 C7.90161242 40.10748258 7.90161242 40.10748258 9 43 C11.64 43.33 14.28 43.66 17 44 C17 45.98 17 47.96 17 50 C7.07849011 50.62552427 7.07849011 50.62552427 2.875 48.1875 C-0.30811327 44.47386785 -0.11899196 41.29722401 -0.09765625 36.58203125 C-0.09443359 35.32841797 -0.09121094 34.07480469 -0.08789062 32.78320312 C-0.07951172 31.47287109 -0.07113281 30.16253906 -0.0625 28.8125 C-0.05748317 27.47721519 -0.05292059 26.14192859 -0.04882812 24.80664062 C-0.03702695 21.53771527 -0.02056297 18.26888009 0 15 C-2.31 15 -4.62 15 -7 15 C-7 13.02 -7 11.04 -7 9 C-4.69 9 -2.38 9 0 9 C0 6.03 0 3.06 0 0 Z " fill="#FFFFFF" transform="translate(140,52)"/>
<path d="M0 0 C2.31 0 4.62 0 7 0 C7 13.53 7 27.06 7 41 C4.69 41 2.38 41 0 41 C0 27.47 0 13.94 0 0 Z " fill="#FFFFFF" transform="translate(419,61)"/>
<path d="M0 0 C2.5625 0.1875 2.5625 0.1875 4.5625 2.1875 C4.00694444 6.74305556 4.00694444 6.74305556 2.5625 8.1875 C0.125 8.375 0.125 8.375 -2.4375 8.1875 C-3.0975 7.5275 -3.7575 6.8675 -4.4375 6.1875 C-3.71780303 0.28598485 -3.71780303 0.28598485 0 0 Z " fill="#FFFFFF" transform="translate(422.4375,45.8125)"/>
</svg>
