<?xml version="1.0" encoding="UTF-8"?>
<svg version="1.1" xmlns="http://www.w3.org/2000/svg" width="200" height="200">
<path d="M0 0 C66 0 132 0 200 0 C200 66 200 132 200 200 C134 200 68 200 0 200 C0 134 0 68 0 0 Z " fill="#FDFDFC" transform="translate(0,0)"/>
<path d="M0 0 C-1.65426401 3.40233579 -3.57727389 6.39610555 -5.75 9.5 C-6.13631592 10.05333008 -6.52263184 10.60666016 -6.9206543 11.17675781 C-7.79208764 12.424021 -8.6648073 13.67038611 -9.53857422 14.91601562 C-11.1236768 17.17636238 -12.70461404 19.43958727 -14.28515625 21.703125 C-21.33169847 31.78894538 -28.41175938 41.85077941 -35.51464844 51.89697266 C-37.05618438 54.07954837 -38.59482858 56.26413881 -40.1328125 58.44921875 C-40.65061279 59.18414551 -41.16841309 59.91907227 -41.7019043 60.67626953 C-42.72042474 62.12285447 -43.73755417 63.57041997 -44.75317383 65.01904297 C-46.97421738 68.17754719 -49.21300628 71.30955857 -51.56640625 74.37109375 C-52.30761719 75.34175781 -53.04882812 76.31242187 -53.8125 77.3125 C-54.78123047 78.54419922 -54.78123047 78.54419922 -55.76953125 79.80078125 C-57.21713389 81.86596516 -57.21713389 81.86596516 -56.72558594 83.91748047 C-55.95266854 86.13584703 -55.0229032 87.6396973 -53.62109375 89.51953125 C-53.12029297 90.20015625 -52.61949219 90.88078125 -52.10351562 91.58203125 C-51.55373047 92.31808594 -51.00394531 93.05414063 -50.4375 93.8125 C-45.1783237 100.96639638 -40.04813342 108.19566995 -35 115.5 C-30.13237704 122.53165696 -25.21752638 129.52102463 -20.1875 136.4375 C-15.15920173 143.35160286 -10.27105317 150.34936404 -5.45703125 157.4140625 C-2.75087738 161.38224612 0.03948935 165.28875578 2.85546875 169.1796875 C4 171 4 171 4 173 C-3.36320419 173.38215824 -10.72383792 173.64369263 -18.09472656 173.82397461 C-20.59797673 173.89914971 -23.10057368 174.00133196 -25.6015625 174.1315918 C-45.66828908 175.15010598 -45.66828908 175.15010598 -50.99435425 171.71295166 C-54.31113105 168.35122171 -56.18642566 164.36670746 -58.04003906 160.07131958 C-59.58826892 156.73068488 -61.70594817 153.83653137 -63.83203125 150.84375 C-64.65097882 149.64162269 -65.46711241 148.43757387 -66.28051758 147.23168945 C-66.69298737 146.62378571 -67.10545715 146.01588196 -67.53042603 145.38955688 C-68.86027178 143.42959259 -70.18937039 141.46912335 -71.51831055 139.50854492 C-73.86740431 136.04314211 -76.217069 132.57812686 -78.56689453 129.11322021 C-82.36504238 123.51256974 -86.16241424 117.91139382 -89.95883179 112.30957031 C-91.27075403 110.37408794 -92.58323338 108.43898426 -93.89575195 106.50390625 C-98.96559156 99.02569612 -104.00099727 91.52578083 -109 84 C-105.4658413 77.36177073 -101.52426709 71.10149696 -97.3125 64.875 C-95.54518569 62.24533371 -93.77845222 59.6153478 -92.01708984 56.98168945 C-90.58843403 54.86983114 -89.14357421 52.77900382 -87.67431641 50.69604492 C-83.37921605 44.52634262 -79.62295749 38.42614852 -76.45115662 31.59764099 C-59.44851242 -4.6457969 -37.53104366 -5.25280683 0 0 Z " fill="#0119A7" transform="translate(184,13)"/>
<path d="M0 0 C2.92746334 2.77741931 5.24630978 5.61085151 7.49609375 8.95703125 C8.45805664 10.37918945 8.45805664 10.37918945 9.43945312 11.83007812 C10.09880859 12.81427734 10.75816406 13.79847656 11.4375 14.8125 C12.74799665 16.75698323 14.0591799 18.70100391 15.37109375 20.64453125 C15.98839355 21.56830566 16.60569336 22.49208008 17.24169922 23.44384766 C18.76819075 25.66300433 20.37456509 27.76838951 22.03515625 29.88671875 C24 33 24 33 24.17578125 35.41796875 C22.35145033 39.42422369 19.81924238 42.79862822 17.1875 46.3125 C16.60871094 47.09923096 16.02992187 47.88596191 15.43359375 48.6965332 C13.63241345 51.13864981 11.81833572 53.57063662 10 56 C9.43619629 56.75506836 8.87239258 57.51013672 8.29150391 58.28808594 C6.21584381 61.06588899 4.138812 63.8425157 2.04760742 66.60864258 C1.58845947 67.21603271 1.12931152 67.82342285 0.65625 68.44921875 C0.26244141 68.96830811 -0.13136719 69.48739746 -0.53710938 70.0222168 C-2.0151574 71.89179759 -2.0151574 71.89179759 -2.84611511 73.75566101 C-4.04553384 75.95062252 -5.0703216 77.39371206 -7 79 C-11.1002519 79.99049197 -15.10388961 79.81483178 -19.30078125 79.68359375 C-20.49229294 79.67368912 -21.68380463 79.66378448 -22.91142273 79.65357971 C-26.71303948 79.61442826 -30.5117576 79.52659303 -34.3125 79.4375 C-36.89123432 79.40238766 -39.47001393 79.37044855 -42.04882812 79.34179688 C-48.36687259 79.26466313 -54.68322924 79.14756197 -61 79 C-60.60004822 78.46686691 -60.20009644 77.93373383 -59.7880249 77.38444519 C-59.25695129 76.67645279 -58.72587769 75.96846039 -58.17871094 75.23901367 C-57.65500916 74.54088058 -57.13130737 73.8427475 -56.59173584 73.12345886 C-55.10648264 71.14205341 -53.623074 69.15928523 -52.140625 67.17578125 C-43.6695004 55.84904214 -35.08293371 44.62460523 -26.32275391 33.52001953 C-22.6065274 28.79821053 -18.95400815 24.0295781 -15.3125 19.25 C-2.69877532 2.69877532 -2.69877532 2.69877532 0 0 Z " fill="#E26504" transform="translate(61,109)"/>
<path d="M0 0 C7.4687827 -0.40833512 14.93466416 -0.68688146 22.41210938 -0.87890625 C24.95031211 -0.95899204 27.4877852 -1.06791161 30.0234375 -1.20703125 C50.45438114 -2.29925151 50.45438114 -2.29925151 56.2699585 1.47201538 C60.07041533 5.1215158 62.60647274 9.36825306 64.97924805 14.03851318 C66.31834677 16.61173823 67.97811953 18.86645259 69.7265625 21.17578125 C70.69523445 22.55291409 71.66153822 23.93171703 72.625 25.3125 C73.12644531 26.02599609 73.62789063 26.73949219 74.14453125 27.47460938 C80.01974373 35.84639338 80.01974373 35.84639338 79.74584961 37.97729492 C78.49988454 41.35628694 76.49516955 44.29399583 74.5625 47.3125 C74.12091553 48.00947998 73.67933105 48.70645996 73.22436523 49.42456055 C70.04769152 54.41567389 66.82326624 59.37595219 63.5625 64.3125 C63.15008057 64.94003174 62.73766113 65.56756348 62.31274414 66.21411133 C60.41197569 69.06271606 58.56655924 71.71402923 56 74 C49.39248714 65.84604795 42.91214079 57.62284149 36.64794922 49.2019043 C32.78688479 44.02192427 28.848771 38.90644483 24.875 33.8125 C24.28396484 33.05469238 23.69292969 32.29688477 23.08398438 31.51611328 C21.9291909 30.0360123 20.77424725 28.55602848 19.61914062 27.07617188 C0 1.91917973 0 1.91917973 0 0 Z " fill="#E26504" transform="translate(5,12)"/>
<path d="M0 0 C8.72742322 0.37945318 15.43502116 4.99547534 21.3125 11.25 C29.83576672 21.47792006 33.18330424 32.78643597 32 46 C29.78455779 57.20340712 23.61591766 67.32739693 14.08203125 73.77734375 C6.55337572 78.19848668 6.55337572 78.19848668 3 79 C-1.26730625 77.86649678 -2.94583765 74.55011681 -5.25 71 C-5.95640625 69.9275 -6.6628125 68.855 -7.390625 67.75 C-9 65 -9 65 -9 63 C-8.41992188 62.90203125 -7.83984375 62.8040625 -7.2421875 62.703125 C1.22604319 61.08214355 5.79448857 57.76882168 10.80078125 50.8046875 C14.47954082 45.26857374 13.64940373 38.37943666 13 32 C11.01215783 26.09717096 7.9161813 22.17187283 2.5625 19 C-1.19835625 17.19606386 -4.94365464 15.94935743 -9 15 C-7.38325319 11.57053707 -5.42402323 8.43736948 -3.375 5.25 C-2.74335938 4.26515625 -2.11171875 3.2803125 -1.4609375 2.265625 C-0.97882813 1.51796875 -0.49671875 0.7703125 0 0 Z " fill="#E16607" transform="translate(168,57)"/>
<path d="M0 0 C2.55579442 0.07530379 5.11180118 0.14373403 7.66796875 0.20507812 C13.90830343 0.3697679 20.14066456 0.62012664 26.375 0.9375 C25.01562915 3.7980891 23.72979531 5.79677699 21.375 7.9375 C21.375 6.2875 21.375 4.6375 21.375 2.9375 C14.73627713 3.05504271 8.09772025 3.17987526 1.45922852 3.30981445 C-0.79985433 3.3531678 -3.05897003 3.39484258 -5.31811523 3.43481445 C-8.56243804 3.49250713 -11.8065954 3.55620469 -15.05078125 3.62109375 C-16.56965691 3.64616249 -16.56965691 3.64616249 -18.11921692 3.67173767 C-19.05996567 3.69168289 -20.00071442 3.71162811 -20.9699707 3.73217773 C-22.21240288 3.75549416 -22.21240288 3.75549416 -23.47993469 3.77928162 C-25.81053247 3.86290723 -25.81053247 3.86290723 -28.625 4.9375 C-28.563125 5.88625 -28.50125 6.835 -28.4375 7.8125 C-28.499375 8.84375 -28.56125 9.875 -28.625 10.9375 C-29.615 11.5975 -30.605 12.2575 -31.625 12.9375 C-31.955 12.6075 -32.285 12.2775 -32.625 11.9375 C-34.11 14.4125 -34.11 14.4125 -35.625 16.9375 C-36.285 16.6075 -36.945 16.2775 -37.625 15.9375 C-30.64595018 -2.70084963 -17.82776819 -0.91074899 0 0 Z " fill="#14258C" transform="translate(157.625,12.0625)"/>
<path d="M0 0 C0.33 0 0.66 0 1 0 C1.05397335 2.4377963 1.09365616 4.87439685 1.125 7.3125 C1.15013672 8.34793945 1.15013672 8.34793945 1.17578125 9.40429688 C1.21217794 13.17135396 1.14378864 14.78431704 -1 18 C-1.66 18 -2.32 18 -3 18 C-3.2475 18.556875 -3.495 19.11375 -3.75 19.6875 C-5.73526655 23.36024312 -7.66950191 26.26472474 -11.375 28.3125 C-14.34254735 29.08971478 -16.94493013 29.14209627 -20 29 C-20.33 30.32 -20.66 31.64 -21 33 C-21.66 31.35 -22.32 29.7 -23 28 C-22.41992188 27.90203125 -21.83984375 27.8040625 -21.2421875 27.703125 C-12.77395681 26.08214355 -8.20551143 22.76882168 -3.19921875 15.8046875 C-0.959521 12.43419772 -0.73749733 9.90353552 -0.4375 5.875 C-0.35371094 4.77929688 -0.26992187 3.68359375 -0.18359375 2.5546875 C-0.09271484 1.29011719 -0.09271484 1.29011719 0 0 Z " fill="#DB7C32" transform="translate(182,92)"/>
<path d="M0 0 C3.08236365 2.78407039 3.95206337 3.80825346 5 8 C-9.85 8 -24.7 8 -40 8 C-40 7.67 -40 7.34 -40 7 C-38.90010742 6.97494385 -37.80021484 6.9498877 -36.66699219 6.92407227 C-32.58175235 6.82981794 -28.49667539 6.72964135 -24.41162109 6.62768555 C-22.64440728 6.58440486 -20.8771535 6.54272495 -19.10986328 6.50268555 C-16.5679114 6.44481649 -14.02615941 6.38117019 -11.484375 6.31640625 C-10.30134796 6.29133751 -10.30134796 6.29133751 -9.09442139 6.26576233 C-5.58040451 6.1711086 -2.38480368 5.93726476 1 5 C0.505 2.525 0.505 2.525 0 0 Z " fill="#071B99" transform="translate(182,177)"/>
<path d="M0 0 C0.598125 0.185625 1.19625 0.37125 1.8125 0.5625 C4.16408762 1.22093687 4.16408762 1.22093687 7 0 C8 1 8 1 8.09765625 4.81640625 C8.09098089 6.39846682 8.07901875 7.98051159 8.0625 9.5625 C8.05798828 10.36880859 8.05347656 11.17511719 8.04882812 12.00585938 C8.03700518 14.00393756 8.01906914 16.00197783 8 18 C6.0532063 14.24546929 4.53603833 10.37359823 3 6.4375 C2.09421867 4.229658 1.09797631 2.11752575 0 0 Z " fill="#FDF6E9" transform="translate(192,72)"/>
<path d="M0 0 C0.66 0 1.32 0 2 0 C0.79618552 2.49361571 -0.45428722 4.68143083 -2 7 C-1.64846262 10.15008918 -0.3726183 12.16984226 1.50390625 14.671875 C1.99697266 15.33574219 2.49003906 15.99960938 2.99804688 16.68359375 C3.51431641 17.36550781 4.03058594 18.04742187 4.5625 18.75 C5.08263672 19.44738281 5.60277344 20.14476563 6.13867188 20.86328125 C7.42014181 22.57974556 8.70932798 24.29044431 10 26 C9.34 26.66 8.68 27.32 8 28 C7.71125 27.360625 7.4225 26.72125 7.125 26.0625 C6.17176549 23.84793921 6.17176549 23.84793921 4 23 C4 22.34 4 21.68 4 21 C3.34 21 2.68 21 2 21 C1.7525 20.278125 1.505 19.55625 1.25 18.8125 C0.13449715 15.89939024 0.13449715 15.89939024 -2.125 13.6875 C-4.75283132 9.92094177 -4.30646911 7.52041941 -4 3 C-2.68 2.67 -1.36 2.34 0 2 C0 1.34 0 0.68 0 0 Z " fill="#1F2F98" transform="translate(129,88)"/>
<path d="M0 0 C0.66 0.33 1.32 0.66 2 1 C2 2.32 2 3.64 2 5 C2.66 5 3.32 5 4 5 C4.33 4.34 4.66 3.68 5 3 C6.65 3 8.3 3 10 3 C7.22920113 6.80984844 3.37131855 7.06840752 -1 8 C-5 3.25 -5 3.25 -5 1 C-2.525 1.495 -2.525 1.495 0 2 C0 1.34 0 0.68 0 0 Z " fill="#DC6C15" transform="translate(170,128)"/>
<path d="M0 0 C0.33 0.66 0.66 1.32 1 2 C0.109375 3.734375 0.109375 3.734375 -1.25 5.75 C-3.41561171 9.07705709 -5.43069155 12.33828028 -7 16 C-6.67 16.66 -6.34 17.32 -6 18 C-10.625 21 -10.625 21 -14 21 C-7.07 10.605 -7.07 10.605 0 0 Z " fill="#1C2D9D" transform="translate(114,37)"/>
<path d="M0 0 C0.88075189 2.43984684 1.14936265 3.60615818 0.21484375 6.0703125 C-2.06617252 9.73947017 -3.2743415 11.67139993 -7.3125 13.5 C-8.199375 13.665 -9.08625 13.83 -10 14 C-6.84577733 9.17403931 -3.71080883 4.42442592 0 0 Z " fill="#D86C17" transform="translate(38,138)"/>
<path d="M0 0 C0.66 1.32 1.32 2.64 2 4 C0.02 4.99 0.02 4.99 -2 6 C-2 6.66 -2 7.32 -2 8 C-2.66 8 -3.32 8 -4 8 C-4.33 10.97 -4.66 13.94 -5 17 C-5.33 16.34 -5.66 15.68 -6 15 C-7.32 15.33 -8.64 15.66 -10 16 C-6.99935973 10.36901124 -3.81213639 5.11915459 0 0 Z " fill="#142598" transform="translate(89,75)"/>
<path d="M0 0 C0.66 0.99 1.32 1.98 2 3 C1.34 3 0.68 3 0 3 C0.061875 3.94875 0.12375 4.8975 0.1875 5.875 C0.125625 6.90625 0.06375 7.9375 0 9 C-0.99 9.66 -1.98 10.32 -3 11 C-3.33 10.67 -3.66 10.34 -4 10 C-5.485 12.475 -5.485 12.475 -7 15 C-7.66 14.67 -8.32 14.34 -9 14 C-6.03 9.38 -3.06 4.76 0 0 Z " fill="#122399" transform="translate(129,14)"/>
<path d="M0 0 C0.33 1.32 0.66 2.64 1 4 C0.34 4 -0.32 4 -1 4 C-1.33 6.31 -1.66 8.62 -2 11 C-1.34 11 -0.68 11 0 11 C0 11.66 0 12.32 0 13 C-2.31 12.67 -4.62 12.34 -7 12 C-5.61735163 9.13132769 -4.07851447 6.43975968 -2.375 3.75 C-1.92898437 3.04359375 -1.48296875 2.3371875 -1.0234375 1.609375 C-0.68570313 1.07828125 -0.34796875 0.5471875 0 0 Z " fill="#D37426" transform="translate(166,60)"/>
<path d="M0 0 C0.33 0.66 0.66 1.32 1 2 C-1.01511972 7.28163799 -3.55993084 12.38216587 -8 16 C-8.66 15.67 -9.32 15.34 -10 15 C-5.05 7.575 -5.05 7.575 0 0 Z " fill="#FCE8CE" transform="translate(73,68)"/>
<path d="M0 0 C0.33 0 0.66 0 1 0 C1.93224112 15.91024842 1.93224112 15.91024842 -4 23 C-4.33 23 -4.66 23 -5 23 C-5 21.35 -5 19.7 -5 18 C-4.01 18 -3.02 18 -2 18 C-1.34 12.06 -0.68 6.12 0 0 Z " fill="#FCEAD0" transform="translate(181,89)"/>
<path d="M0 0 C2.9375 0.8125 2.9375 0.8125 6 2 C6.97608217 4.92824652 7.08226668 6.95613276 7 10 C4.4000702 7.48972295 2.00908773 5.0136316 0 2 C0 1.34 0 0.68 0 0 Z " fill="#0D219C" transform="translate(103,137)"/>
<path d="M0 0 C-1 3 -1 3 -3.1875 4.1875 C-6.25390311 5.07334979 -8.82438155 5.14770318 -12 5 C-12.33 6.32 -12.66 7.64 -13 9 C-13.66 7.35 -14.32 5.7 -15 4 C-14.39671875 3.87882812 -13.7934375 3.75765625 -13.171875 3.6328125 C-12.37265625 3.46523437 -11.5734375 3.29765625 -10.75 3.125 C-9.96109375 2.96257812 -9.1721875 2.80015625 -8.359375 2.6328125 C-5.40895851 1.84147563 -3.04850362 0 0 0 Z " fill="#D37427" transform="translate(174,116)"/>
<path d="M0 0 C0.66 0.33 1.32 0.66 2 1 C1.67 1.66 1.34 2.32 1 3 C0.67 3 0.34 3 0 3 C0 5.31 0 7.62 0 10 C-2.475 9.01 -2.475 9.01 -5 8 C-5 8.66 -5 9.32 -5 10 C-5.66 10 -6.32 10 -7 10 C-5.33248852 6.05860922 -2.77289351 3.2107188 0 0 Z " fill="#D56F1E" transform="translate(61,109)"/>
<path d="M0 0 C0.66 0.33 1.32 0.66 2 1 C-0.31 4.3 -2.62 7.6 -5 11 C-5.66 9.68 -6.32 8.36 -7 7 C-5.6875 5 -5.6875 5 -4 3 C-3.01 3 -2.02 3 -1 3 C-0.67 2.01 -0.34 1.02 0 0 Z " fill="#0F2197" transform="translate(142,70)"/>
<path d="M0 0 C1.32 0.33 2.64 0.66 4 1 C1.36 4.63 -1.28 8.26 -4 12 C-4.33 10.68 -4.66 9.36 -5 8 C-3.6875 6.5625 -3.6875 6.5625 -2 5 C-0.80972016 2.40084462 -0.80972016 2.40084462 0 0 Z " fill="#FEEDD4" transform="translate(45,124)"/>
<path d="M0 0 C3.21880117 3.7935871 5.6163187 7.65829477 8 12 C7.34 12 6.68 12 6 12 C6 11.34 6 10.68 6 10 C5.34 10 4.68 10 4 10 C3.34 8.35 2.68 6.7 2 5 C0.35 5.33 -1.3 5.66 -3 6 C-3 5.34 -3 4.68 -3 4 C-2.34 3.67 -1.68 3.34 -1 3 C-0.67 2.01 -0.34 1.02 0 0 Z " fill="#FBECD5" transform="translate(158,120)"/>
<path d="M0 0 C0.33 0.66 0.66 1.32 1 2 C0.05988318 3.70116376 -0.94895617 5.36504293 -2 7 C-2.68096422 8.32608822 -3.35330586 9.65686601 -4 11 C-4.66 11 -5.32 11 -6 11 C-6 11.99 -6 12.98 -6 14 C-6.99 13.67 -7.98 13.34 -9 13 C-6.03 8.71 -3.06 4.42 0 0 Z " fill="#1A2999" transform="translate(99,60)"/>
<path d="M0 0 C2.49361571 1.20381448 4.68143083 2.45428722 7 4 C7 4.66 7 5.32 7 6 C7.99 6.33 8.98 6.66 10 7 C9.01 7.99 8.02 8.98 7 10 C5.83043409 8.52312468 4.66441854 7.04343707 3.5 5.5625 C2.8503125 4.73878906 2.200625 3.91507812 1.53125 3.06640625 C0 1 0 1 0 0 Z " fill="#D57529" transform="translate(54,76)"/>
<path d="M0 0 C0.61328125 1.828125 0.61328125 1.828125 1 4 C-0.8125 6.75 -0.8125 6.75 -3 9 C-3.66 9 -4.32 9 -5 9 C-5 9.66 -5 10.32 -5 11 C-5.66 11 -6.32 11 -7 11 C-5.22054913 6.95579349 -2.60470327 3.53921513 0 0 Z " fill="#DA7526" transform="translate(11,173)"/>
<path d="M0 0 C1 2 1 2 0.25 4.5625 C-1 7 -1 7 -4 8 C-5.68538601 9.99665314 -5.68538601 9.99665314 -7 12 C-7.66 11.67 -8.32 11.34 -9 11 C-6.03 7.37 -3.06 3.74 0 0 Z " fill="#D5752A" transform="translate(53,119)"/>
<path d="M0 0 C0.33 0.66 0.66 1.32 1 2 C-0.88829424 5.67720457 -3.26200503 8.90871536 -6 12 C-6.66 12 -7.32 12 -8 12 C-6.59023295 8.96147295 -4.91129772 6.4060405 -2.875 3.75 C-2.06675781 2.69039062 -2.06675781 2.69039062 -1.2421875 1.609375 C-0.83226562 1.07828125 -0.42234375 0.5471875 0 0 Z " fill="#FDEAD2" transform="translate(62,176)"/>
<path d="M0 0 C0.66 0 1.32 0 2 0 C0.79618552 2.49361571 -0.45428722 4.68143083 -2 7 C-2.16713569 9.62531524 -2.16713569 9.62531524 -2 12 C-2.66 11.67 -3.32 11.34 -4 11 C-4 8.36 -4 5.72 -4 3 C-2.68 2.67 -1.36 2.34 0 2 C0 1.34 0 0.68 0 0 Z " fill="#0D2092" transform="translate(129,88)"/>
<path d="M0 0 C0.33 0.66 0.66 1.32 1 2 C-2.95623632 8.70459519 -2.95623632 8.70459519 -7.3125 9.9375 C-8.199375 9.958125 -9.08625 9.97875 -10 10 C-6.66666667 6.66666667 -3.33333333 3.33333333 0 0 Z " fill="#FDE9CE" transform="translate(190,122)"/>
<path d="M0 0 C0.66 0.33 1.32 0.66 2 1 C-0.31 3.97 -2.62 6.94 -5 10 C-5.33 9.01 -5.66 8.02 -6 7 C-5.34 7 -4.68 7 -4 7 C-4 6.01 -4 5.02 -4 4 C-3.34 4 -2.68 4 -2 4 C-2 3.01 -2 2.02 -2 1 C-1.34 0.67 -0.68 0.34 0 0 Z " fill="#FFF3DE" transform="translate(29,147)"/>
<path d="M0 0 C2 2 2 2 2 6 C2.99 6.33 3.98 6.66 5 7 C4.67 7.99 4.34 8.98 4 10 C2.99406757 8.8803014 1.9954151 7.7540588 1 6.625 C0.443125 5.99851562 -0.11375 5.37203125 -0.6875 4.7265625 C-2 3 -2 3 -2 1 C-1.34 0.67 -0.68 0.34 0 0 Z " fill="#D47224" transform="translate(28,38)"/>
<path d="M0 0 C0.99 0.33 1.98 0.66 3 1 C3 1.66 3 2.32 3 3 C4.32 2.67 5.64 2.34 7 2 C6.67 3.98 6.34 5.96 6 8 C1.125 3.375 1.125 3.375 0 0 Z " fill="#D6711F" transform="translate(45,64)"/>
<path d="M0 0 C0.33 0.66 0.66 1.32 1 2 C0.07421875 3.9453125 0.07421875 3.9453125 -1.3125 6.125 C-1.76238281 6.84945312 -2.21226563 7.57390625 -2.67578125 8.3203125 C-3.11277344 8.87460938 -3.54976563 9.42890625 -4 10 C-4.66 10 -5.32 10 -6 10 C-4.34832443 6.4213696 -2.21713508 3.25179812 0 0 Z " fill="#FDE4C5" transform="translate(69,166)"/>
<path d="M0 0 C0.33 0.66 0.66 1.32 1 2 C0.22265625 3.9453125 0.22265625 3.9453125 -0.9375 6.125 C-1.31777344 6.84945312 -1.69804688 7.57390625 -2.08984375 8.3203125 C-2.39019531 8.87460938 -2.69054687 9.42890625 -3 10 C-3.99 10 -4.98 10 -6 10 C-4.34832443 6.4213696 -2.21713508 3.25179812 0 0 Z " fill="#FDEBD0" transform="translate(78,154)"/>
<path d="M0 0 C-0.33 2.31 -0.66 4.62 -1 7 C-2.37562854 5.71034824 -3.70766393 4.37310707 -5 3 C-5 2.34 -5 1.68 -5 1 C-2 0 -2 0 0 0 Z " fill="#0B1D9C" transform="translate(94,115)"/>
<path d="M0 0 C2.96404505 2.80804268 5.44499019 5.18315774 7 9 C6.01 9 5.02 9 4 9 C0 2.25 0 2.25 0 0 Z " fill="#1C2D99" transform="translate(146,126)"/>
<path d="M0 0 C0.99 0.33 1.98 0.66 3 1 C3 3.97 3 6.94 3 10 C1.19669467 6.39338934 0.53400897 3.91606575 0 0 Z " fill="#FEEED4" transform="translate(197,80)"/>
<path d="M0 0 C0 0.66 0 1.32 0 2 C-0.66 2 -1.32 2 -2 2 C-1.67 3.65 -1.34 5.3 -1 7 C-2.65 5.35 -4.3 3.7 -6 2 C-3 0 -3 0 0 0 Z " fill="#D56C19" transform="translate(13,14)"/>
<path d="M0 0 C2.0625 0.4375 2.0625 0.4375 4 1 C2.35 2.65 0.7 4.3 -1 6 C-1.042721 4.33388095 -1.04063832 2.66617115 -1 1 C-0.67 0.67 -0.34 0.34 0 0 Z " fill="#DA701D" transform="translate(70,160)"/>
<path d="M0 0 C0.33 0.66 0.66 1.32 1 2 C0.0625 4.125 0.0625 4.125 -1 6 C-1.66 6 -2.32 6 -3 6 C-3.33 6.99 -3.66 7.98 -4 9 C-4.66 8.67 -5.32 8.34 -6 8 C-4.02 5.36 -2.04 2.72 0 0 Z " fill="#D77F38" transform="translate(34,143)"/>
<path d="M0 0 C0.66 0.33 1.32 0.66 2 1 C0.69593116 3.01920337 -0.63823419 5.01924973 -2 7 C-2.33 7 -2.66 7 -3 7 C-3.1875 4.625 -3.1875 4.625 -3 2 C-2.01 1.34 -1.02 0.68 0 0 Z " fill="#FDECD5" transform="translate(163,62)"/>
<path d="M0 0 C0.66 0.33 1.32 0.66 2 1 C0.35 3.64 -1.3 6.28 -3 9 C-3.33 7.68 -3.66 6.36 -4 5 C-3.34 4.01 -2.68 3.02 -2 2 C-1.34 2 -0.68 2 0 2 C0 1.34 0 0.68 0 0 Z " fill="#D1742B" transform="translate(79,56)"/>
</svg>
