<?xml version="1.0" encoding="UTF-8"?>
<svg version="1.1" xmlns="http://www.w3.org/2000/svg" width="703" height="174">
<path d="M0 0 C0 1.98 0 3.96 0 6 C-2.31 6.66 -4.62 7.32 -7 8 C-6.505 8.804375 -6.01 9.60875 -5.5 10.4375 C-3.15011432 16.0184785 -3.14938858 20.70334915 -5.25 26.375 C-7.72170925 30.08256388 -9.79858832 31.59952944 -14 33 C-16.02034678 33.04434232 -18.04204845 33.03927974 -20.0625 33 C-24.18740002 32.78848948 -24.18740002 32.78848948 -28 34 C-28 34.66 -28 35.32 -28 36 C-23.05622041 37.530815 -17.85687591 37.32809491 -12.7265625 37.5234375 C-8.05296077 38.12110984 -4.63426109 39.52916502 -1.125 42.6875 C0.56702062 46.16554239 0.85179536 49.28118611 0 53 C-2.22714494 56.92620396 -4.60091236 59.40769989 -8.77734375 61.17578125 C-15.44994601 62.88234983 -23.69640673 63.32277291 -30.1875 60.6875 C-35.63157895 57.42105263 -35.63157895 57.42105263 -36.875 52.625 C-37.01595032 48.53744081 -36.22962533 47.29984549 -34 44 C-33.83507784 40.14065627 -33.83507784 40.14065627 -34.75 37.0625 C-35 34 -35 34 -33.0625 31.125 C-32.381875 30.42375 -31.70125 29.7225 -31 29 C-31.474375 28.566875 -31.94875 28.13375 -32.4375 27.6875 C-34.72434417 25.21770829 -34.98825996 23.11974839 -35.3125 19.8125 C-34.92703068 15.10977429 -33.73718729 11.83378914 -31 8 C-26.1885435 4.05213826 -20.92225635 4.89327668 -15.0234375 5.28515625 C-11.26389399 4.93057398 -10.41752676 3.7817393 -8 1 C-5.07175348 0.02391783 -3.04386724 -0.08226668 0 0 Z M-27 13 C-27.99650464 16.86878271 -28.62671388 20.4332153 -27.1171875 24.20703125 C-25.66035593 26.54509311 -24.60936497 27.13021168 -22 28 C-17.97749297 28.59909679 -16.49827337 28.34662495 -13.125 26 C-10.75785321 22.65814571 -10.23908138 20.93959545 -10.51953125 16.9375 C-11.38897022 13.4314697 -13.08036827 11.98783437 -16 10 C-20.53635901 9.36331803 -24.04104046 9.24439751 -27 13 Z M-28.4375 45.83203125 C-30.31349288 47.97731032 -30.31349288 47.97731032 -29.9375 51.125 C-29.23305313 54.29174932 -29.23305313 54.29174932 -26 56 C-23.46828157 56.24769941 -21.09341828 56.37014685 -18.5625 56.375 C-17.24378906 56.40335938 -15.92507813 56.43171875 -14.56640625 56.4609375 C-10.96902775 56.29844333 -10.96902775 56.29844333 -8.5625 54.13671875 C-6.8364927 52.07796771 -6.8364927 52.07796771 -6.4375 49.4375 C-6.7699597 46.82521319 -6.7699597 46.82521319 -9.09375 45.375 C-12.6102343 43.711287 -15.18289632 43.56664931 -19.0625 43.5625 C-20.27035156 43.54316406 -21.47820313 43.52382812 -22.72265625 43.50390625 C-26.06086217 43.74414006 -26.06086217 43.74414006 -28.4375 45.83203125 Z " fill="#FFFFFF" transform="translate(614,55)"/>
<path d="M0 0 C2.93359179 2.00947936 4.37183952 4.05732776 5.84765625 7.265625 C6.09765625 10.640625 6.09765625 10.640625 5.84765625 13.265625 C3.20765625 13.265625 0.56765625 13.265625 -2.15234375 13.265625 C-2.42046875 12.316875 -2.68859375 11.368125 -2.96484375 10.390625 C-3.90220963 7.01295227 -3.90220963 7.01295227 -7.15234375 5.265625 C-9.98638018 4.87219982 -9.98638018 4.87219982 -13.08984375 4.890625 C-14.13011719 4.86226562 -15.17039062 4.83390625 -16.2421875 4.8046875 C-19.8297212 5.37291431 -20.9967691 6.38979825 -23.15234375 9.265625 C-23.39911381 12.36855793 -23.39911381 12.36855793 -22.15234375 15.265625 C-18.34073667 18.03962793 -14.31898842 19.27720813 -9.83984375 20.640625 C3.70790564 24.96003021 3.70790564 24.96003021 7.0234375 30.08203125 C8.63333582 34.34711732 8.37945721 38.79071448 7.84765625 43.265625 C5.2968552 48.36722711 2.40621741 51.28015922 -2.890625 53.3203125 C-10.71809687 55.58887321 -19.08846435 55.28711081 -26.34375 51.453125 C-29.0975462 49.64501691 -30.59094906 48.19324005 -32.15234375 45.265625 C-32.73760041 42.2687073 -33.01951222 39.31410856 -33.15234375 36.265625 C-30.51234375 36.265625 -27.87234375 36.265625 -25.15234375 36.265625 C-24.81203125 37.9053125 -24.81203125 37.9053125 -24.46484375 39.578125 C-23.51167933 43.30349103 -23.51167933 43.30349103 -20.94921875 44.9765625 C-17.75574632 46.44841432 -15.59057789 46.63565919 -12.08984375 46.578125 C-11.06761719 46.57425781 -10.04539062 46.57039063 -8.9921875 46.56640625 C-6.18053277 46.26861063 -4.50400034 45.80261996 -2.15234375 44.265625 C-0.5977407 41.15641891 -0.42513682 37.63479472 -1.15234375 34.265625 C-4.96885456 30.17432541 -11.23441319 29.17329404 -16.421875 27.60351562 C-22.31149958 25.74647094 -27.35626971 23.75695351 -31.08984375 18.578125 C-32.80741473 13.22334488 -32.01278484 8.68561556 -30.15234375 3.453125 C-22.57690961 -4.8325061 -9.49626327 -4.89462571 0 0 Z " fill="#FFFFFF" transform="translate(412.15234375,47.734375)"/>
<path d="M0 0 C3.61220423 1.8715406 5.97865101 3.6909164 8 7.3125 C8.75 11.125 8.75 11.125 9 14.3125 C6.36 14.3125 3.72 14.3125 1 14.3125 C0.34 12.0025 -0.32 9.6925 -1 7.3125 C-4.22400573 6.35442283 -7.14285676 6.17827708 -10.5 6.1875 C-11.4384375 6.18492188 -12.376875 6.18234375 -13.34375 6.1796875 C-16.2563002 6.23930967 -16.2563002 6.23930967 -20 7.3125 C-20 10.2825 -20 13.2525 -20 16.3125 C-13.76324017 19.74908195 -7.38803906 21.85851319 -0.5859375 23.87109375 C4.29655229 25.83366318 7.89345223 28.24373677 10.4375 33 C11.40578754 38.70213774 11.20296379 44.0068194 8.5 49.1875 C2.01248835 54.70188491 -4.41240661 55.97911125 -12.83984375 55.703125 C-18.5743391 54.9942875 -22.89482549 52.93186501 -27.4375 49.4375 C-30.30623824 45.53601599 -31 42.10475211 -31 37.3125 C-28.36 37.3125 -25.72 37.3125 -23 37.3125 C-22.82984375 37.86679688 -22.6596875 38.42109375 -22.484375 38.9921875 C-22.24203125 39.71664062 -21.9996875 40.44109375 -21.75 41.1875 C-21.51796875 41.90679687 -21.2859375 42.62609375 -21.046875 43.3671875 C-19.68669423 45.89468759 -18.70728481 46.40072014 -16 47.3125 C-13.12269942 47.66585815 -13.12269942 47.66585815 -10.0625 47.625 C-9.04285156 47.64175781 -8.02320312 47.65851563 -6.97265625 47.67578125 C-3.59372186 47.26284971 -1.72615941 46.31688554 1 44.3125 C2.39935013 41.51379973 2.25265405 39.40751208 2 36.3125 C-0.19836896 33.44537155 -2.56475097 32.55679703 -5.9375 31.4375 C-10.13910092 29.97364436 -14.30517177 28.46340564 -18.4375 26.8125 C-19.40558594 26.4309375 -20.37367187 26.049375 -21.37109375 25.65625 C-25.37818756 23.60804752 -27.57091593 21.59975222 -29 17.3125 C-29.40875175 13.11493396 -29.45211454 9.44278634 -27.875 5.5 C-20.84670379 -2.69967892 -9.73762975 -4.01151524 0 0 Z " fill="#FFFFFF" transform="translate(84,46.6875)"/>
<path d="M0 0 C2.31 0 4.62 0 7 0 C7.33 5.94 7.66 11.88 8 18 C9.65 16.68 11.3 15.36 13 14 C16.45844824 12.27077588 20.21165265 12.64863557 24 13 C28.71542836 14.69043658 31.27288958 16.81193758 34 21 C37.22778276 29.05784618 37.6392843 39.07930506 34.3125 47.1875 C31.88074416 51.7664445 28.94343398 54.35218867 24 56 C18.23105563 56.5714002 14.03101794 56.14438622 9 53 C8.67 52.67 8.34 52.34 8 52 C7.67 52.99 7.34 53.98 7 55 C4.69 55 2.38 55 0 55 C0 36.85 0 18.7 0 0 Z M9 23 C6.30918316 27.03622526 6.59641001 30.13513459 6.5625 34.875 C6.52962891 35.67808594 6.49675781 36.48117188 6.46289062 37.30859375 C6.42389999 41.61174189 6.59339845 43.4578646 9.25 47 C13.13124805 49.82272586 16.23812262 50.58581971 21 50 C24.62462427 48.14624206 26.69616081 45.91151756 28 42 C28.17431213 39.37960286 28.27684435 36.80937916 28.3125 34.1875 C28.35600586 33.13852539 28.35600586 33.13852539 28.40039062 32.06835938 C28.46280518 26.93596216 27.36506524 24.0767859 24 20 C18.28600782 17.14300391 13.61107947 19.24679578 9 23 Z " fill="#FFFFFF" transform="translate(239,46)"/>
<path d="M0 0 C2.31 0 4.62 0 7 0 C7 18.15 7 36.3 7 55 C4.69 55 2.38 55 0 55 C-0.33 54.01 -0.66 53.02 -1 52 C-2.134375 52.66 -3.26875 53.32 -4.4375 54 C-9.01251795 56.26726553 -12.95814614 56.9167007 -18 56 C-22.86979684 53.61104306 -25.31913003 50.66669958 -28 46 C-30.25504035 39.23487895 -30.08436493 29.07055743 -27.875 22.3125 C-25.19194858 17.5724425 -22.28455005 14.76151668 -17 13 C-14.984375 12.76171875 -14.984375 12.76171875 -12.75 12.6875 C-12.02296875 12.65011719 -11.2959375 12.61273438 -10.546875 12.57421875 C-8 13 -8 13 -1 17 C-0.67 11.39 -0.34 5.78 0 0 Z M-17.8125 21.0625 C-22.34391942 27.14754893 -22.3462872 32.88375348 -21.5234375 40.1796875 C-20.7962198 44.0979799 -19.94911832 46.27206555 -17 49 C-13.92404141 50.07015289 -11.23626205 50.34774393 -8 50 C-4.15323647 48.04164766 -2.39033825 46.58550738 0 43 C0.24891491 40.34587245 0.37018799 37.84132157 0.375 35.1875 C0.39949219 34.48818359 0.42398438 33.78886719 0.44921875 33.06835938 C0.47800941 27.93882424 -0.67875526 25.09102857 -4 21 C-8.36955625 17.68516423 -13.48632378 17.88997077 -17.8125 21.0625 Z " fill="#FFFFFF" transform="translate(219,46)"/>
<path d="M0 0 C3.17825352 2.32555136 4.65318356 4.42292788 6.5625 7.875 C6.89913684 10.62564877 7.03474142 12.94848366 6.953125 15.6796875 C6.94746521 16.4036673 6.94180542 17.12764709 6.93597412 17.87356567 C6.91373667 20.16640788 6.86356987 22.45763716 6.8125 24.75 C6.79241841 26.31247729 6.77417055 27.87497929 6.7578125 29.4375 C6.71391416 33.2506133 6.64497971 37.06253402 6.5625 40.875 C4.2525 40.875 1.9425 40.875 -0.4375 40.875 C-0.7675 39.555 -1.0975 38.235 -1.4375 36.875 C-2.8296875 37.8340625 -2.8296875 37.8340625 -4.25 38.8125 C-9.25516944 42.05113905 -13.60143922 42.61197696 -19.4375 41.875 C-23.2401029 39.8699912 -25.05540841 38.44813738 -27.4375 34.875 C-28.04112041 30.68885326 -27.85448873 26.94063786 -26.3125 23 C-21.00168881 16.98108065 -13.00172215 16.67970448 -5.4375 15.875 C-3.77108838 15.8458434 -2.1036785 15.83466421 -0.4375 15.875 C-0.88659061 14.39300098 -1.34706564 12.91444764 -1.8125 11.4375 C-2.06773438 10.61378906 -2.32296875 9.79007813 -2.5859375 8.94140625 C-3.24632227 6.69701984 -3.24632227 6.69701984 -5.4375 5.875 C-7.54604036 5.6397268 -7.54604036 5.6397268 -9.875 5.625 C-11.04869141 5.58632812 -11.04869141 5.58632812 -12.24609375 5.546875 C-14.96516211 5.95400823 -15.79132891 6.71248331 -17.4375 8.875 C-18.15947162 11.48111077 -18.15947162 11.48111077 -18.4375 13.875 C-20.7475 13.875 -23.0575 13.875 -25.4375 13.875 C-25.40387698 6.15851617 -25.40387698 6.15851617 -23.17578125 3.19921875 C-16.74925902 -2.2884161 -7.81070856 -2.55623189 0 0 Z M-10.4375 21.625 C-11.984375 21.83382812 -11.984375 21.83382812 -13.5625 22.046875 C-16.93192372 23.01741553 -18.33610205 24.09001476 -20.4375 26.875 C-20.52666154 30.50149951 -20.52666154 30.50149951 -19.4375 33.875 C-15.73651576 36.34232283 -12.73214299 36.55694709 -8.4375 35.875 C-5.29405565 34.12864203 -2.96887274 32.40637274 -0.4375 29.875 C-0.19496187 27.66427023 -0.19496187 27.66427023 -0.3125 25.25 C-0.33054688 24.43273437 -0.34859375 23.61546875 -0.3671875 22.7734375 C-0.39039063 22.14695312 -0.41359375 21.52046875 -0.4375 20.875 C-3.90065129 20.875 -7.02084004 21.12958431 -10.4375 21.625 Z " fill="#FFFFFF" transform="translate(128.4375,60.125)"/>
<path d="M0 0 C3.76268375 2.98060167 6.11508028 7.58515448 6.69140625 12.33984375 C6.69140625 14.97984375 6.69140625 17.61984375 6.69140625 20.33984375 C-2.54859375 20.33984375 -11.78859375 20.33984375 -21.30859375 20.33984375 C-20.16909563 28.69865679 -20.16909563 28.69865679 -17.18359375 31.90234375 C-13.21004063 33.88912031 -10.74077673 33.6916043 -6.30859375 33.33984375 C-5.52484375 33.29859375 -4.74109375 33.25734375 -3.93359375 33.21484375 C-1.93943432 32.36326531 -1.93943432 32.36326531 -1.05859375 29.27734375 C-0.81109375 28.30796875 -0.56359375 27.33859375 -0.30859375 26.33984375 C2.00140625 26.33984375 4.31140625 26.33984375 6.69140625 26.33984375 C6.30265586 31.7823492 4.52587629 34.50537371 0.69140625 38.33984375 C-5.0837557 41.17439736 -11.48918283 41.45648216 -17.66015625 39.65234375 C-23.61934195 36.97405804 -26.22171876 33.16571871 -28.55859375 27.08984375 C-30.25686657 18.59847965 -29.95906883 10.9849083 -25.171875 3.58203125 C-19.0058008 -4.47082275 -8.49640016 -4.82320898 0 0 Z M-20.30859375 8.33984375 C-20.63859375 10.64984375 -20.96859375 12.95984375 -21.30859375 15.33984375 C-14.37859375 15.33984375 -7.44859375 15.33984375 -0.30859375 15.33984375 C-1.60222018 7.80085369 -1.60222018 7.80085369 -6.30859375 3.33984375 C-12.52058521 2.11838475 -16.58814874 2.87544014 -20.30859375 8.33984375 Z " fill="#FFFFFF" transform="translate(538.30859375,61.66015625)"/>
<path d="M0 0 C3.77392376 3.54520111 4.94596399 7.66044913 5.40307617 12.66967773 C5.3795105 14.62562866 5.3795105 14.62562866 5.35546875 16.62109375 C5.35122391 17.32146255 5.34697906 18.02183136 5.34260559 18.74342346 C5.32597156 20.95436 5.2883518 23.16434457 5.25 25.375 C5.23493326 26.88475235 5.22124836 28.39451916 5.20898438 29.90429688 C5.17611921 33.58233434 5.12444582 37.25982407 5.0625 40.9375 C2.4225 40.9375 -0.2175 40.9375 -2.9375 40.9375 C-2.96255615 39.97859863 -2.9876123 39.01969727 -3.01342773 38.03173828 C-3.1074862 34.47951523 -3.20771058 30.92748844 -3.30981445 27.37548828 C-3.35316926 25.83712347 -3.39484395 24.29871037 -3.43481445 22.76025391 C-3.49250398 20.5509586 -3.55620179 18.34190652 -3.62109375 16.1328125 C-3.63780624 15.44317413 -3.65451874 14.75353577 -3.67173767 14.04299927 C-3.74556995 10.36635736 -3.74556995 10.36635736 -4.9375 6.9375 C-9.02650075 5.89520569 -11.29074684 5.68123931 -15.25 7.25 C-17.96274187 8.814192 -17.96274187 8.814192 -19.9375 10.9375 C-20.31072427 14.04506015 -20.31072427 14.04506015 -20.3515625 17.6953125 C-20.37092865 18.35836395 -20.3902948 19.02141541 -20.4102478 19.70455933 C-20.47005954 21.82374177 -20.51643388 23.9429785 -20.5625 26.0625 C-20.60067845 27.49872169 -20.63973011 28.93492045 -20.6796875 30.37109375 C-20.77576125 33.89301936 -20.85978642 37.41511608 -20.9375 40.9375 C-23.5775 40.9375 -26.2175 40.9375 -28.9375 40.9375 C-28.9375 27.4075 -28.9375 13.8775 -28.9375 -0.0625 C-26.6275 -0.0625 -24.3175 -0.0625 -21.9375 -0.0625 C-21.2775 0.9275 -20.6175 1.9175 -19.9375 2.9375 C-18.98875 2.2775 -18.04 1.6175 -17.0625 0.9375 C-11.62244621 -2.16952259 -5.81470691 -2.10319186 0 0 Z " fill="#FFFFFF" transform="translate(494.9375,60.0625)"/>
<path d="M0 0 C3.77392376 3.54520111 4.94596399 7.66044913 5.40307617 12.66967773 C5.3795105 14.62562866 5.3795105 14.62562866 5.35546875 16.62109375 C5.35122391 17.32146255 5.34697906 18.02183136 5.34260559 18.74342346 C5.32597156 20.95436 5.2883518 23.16434457 5.25 25.375 C5.23493326 26.88475235 5.22124836 28.39451916 5.20898438 29.90429688 C5.17611921 33.58233434 5.12444582 37.25982407 5.0625 40.9375 C2.4225 40.9375 -0.2175 40.9375 -2.9375 40.9375 C-2.96255615 39.97859863 -2.9876123 39.01969727 -3.01342773 38.03173828 C-3.1074862 34.47951523 -3.20771058 30.92748844 -3.30981445 27.37548828 C-3.35316926 25.83712347 -3.39484395 24.29871037 -3.43481445 22.76025391 C-3.49250398 20.5509586 -3.55620179 18.34190652 -3.62109375 16.1328125 C-3.63780624 15.44317413 -3.65451874 14.75353577 -3.67173767 14.04299927 C-3.74556995 10.36635736 -3.74556995 10.36635736 -4.9375 6.9375 C-9.02650075 5.89520569 -11.29074684 5.68123931 -15.25 7.25 C-17.96274187 8.814192 -17.96274187 8.814192 -19.9375 10.9375 C-20.31072427 14.04506015 -20.31072427 14.04506015 -20.3515625 17.6953125 C-20.37092865 18.35836395 -20.3902948 19.02141541 -20.4102478 19.70455933 C-20.47005954 21.82374177 -20.51643388 23.9429785 -20.5625 26.0625 C-20.60067845 27.49872169 -20.63973011 28.93492045 -20.6796875 30.37109375 C-20.77576125 33.89301936 -20.85978642 37.41511608 -20.9375 40.9375 C-23.5775 40.9375 -26.2175 40.9375 -28.9375 40.9375 C-28.9375 27.4075 -28.9375 13.8775 -28.9375 -0.0625 C-26.6275 -0.0625 -24.3175 -0.0625 -21.9375 -0.0625 C-21.2775 0.9275 -20.6175 1.9175 -19.9375 2.9375 C-18.98875 2.2775 -18.04 1.6175 -17.0625 0.9375 C-11.62244621 -2.16952259 -5.81470691 -2.10319186 0 0 Z " fill="#FFFFFF" transform="translate(175.9375,60.0625)"/>
<path d="M0 0 C5.3173102 3.74628673 9.3296676 8.02308662 10.5625 14.63671875 C11.18303003 22.2511393 10.69410424 28.99714122 6.1484375 35.31640625 C2.73598635 39.27218062 -0.44091359 41.70818682 -5.73828125 42.140625 C-11.31374548 42.23316383 -15.55192448 42.29326823 -20.25 38.9375 C-26.44829465 32.45746468 -27.6563534 27.43528812 -27.61572266 18.60986328 C-27.4465721 12.26438959 -26.12657658 7.99097835 -21.7890625 3.38671875 C-15.73379436 -2.06917006 -7.56814572 -2.47420149 0 0 Z M-18.25 9.9375 C-20.9767268 16.01066423 -20.55408484 22.5133505 -19.25 28.9375 C-17.89547523 31.54770584 -16.88543336 33.44327405 -14.5625 35.25 C-11.09010533 36.28233355 -7.80702044 36.5032289 -4.25 35.9375 C-0.97531119 34.08658893 0.38598844 32.66552312 2.0625 29.3125 C3.62838592 21.62542367 3.3307934 14.97561116 -0.25 7.9375 C-3.58744766 4.88611929 -6.91814072 4.33630611 -11.3203125 4.52734375 C-14.80475682 5.26796451 -16.21981594 7.1310691 -18.25 9.9375 Z " fill="#FFFFFF" transform="translate(310.25,60.0625)"/>
<path d="M0 0 C2.64 0 5.28 0 8 0 C11.63 9.9 15.26 19.8 19 30 C22.02793072 22.73296627 24.91121468 15.70095393 27.3125 8.25 C27.57611328 7.445625 27.83972656 6.64125 28.11132812 5.8125 C28.74517111 3.8763978 29.3732477 1.93840919 30 0 C32.64 0 35.28 0 38 0 C33.52072253 13.14817568 28.98042863 26.27492435 24.1875 39.3125 C23.8272876 40.3128125 23.4670752 41.313125 23.09594727 42.34375 C21.31010811 47.14684162 19.72732445 51.33315952 16 55 C13.11788698 55.96070434 11.30149956 56.10581883 8.3125 56.0625 C7.10013672 56.04896484 7.10013672 56.04896484 5.86328125 56.03515625 C5.24839844 56.02355469 4.63351562 56.01195312 4 56 C4 54.02 4 52.04 4 50 C5.27875 49.773125 6.5575 49.54625 7.875 49.3125 C11.29488548 48.47401849 11.29488548 48.47401849 13.5625 45.8125 C14.55560309 39.42826588 12.37906034 33.77790172 10.05859375 27.94921875 C9.77146011 27.2092012 9.48432648 26.46918365 9.18849182 25.70674133 C8.27847408 23.36420029 7.35864687 21.02568463 6.4375 18.6875 C5.51423814 16.33093598 4.59313171 13.97357787 3.67579651 11.61470032 C3.10644661 10.15195004 2.53343078 8.69062033 1.95640564 7.23088074 C0 2.2229928 0 2.2229928 0 0 Z " fill="#FFFFFF" transform="translate(616,60)"/>
<path d="M0 0 C2.64 0 5.28 0 8 0 C11.63 9.9 15.26 19.8 19 30 C22.02793072 22.73296627 24.91121468 15.70095393 27.3125 8.25 C27.57611328 7.445625 27.83972656 6.64125 28.11132812 5.8125 C28.74517111 3.8763978 29.3732477 1.93840919 30 0 C32.64 0 35.28 0 38 0 C33.52072253 13.14817568 28.98042863 26.27492435 24.1875 39.3125 C23.8272876 40.3128125 23.4670752 41.313125 23.09594727 42.34375 C21.31010811 47.14684162 19.72732445 51.33315952 16 55 C13.11788698 55.96070434 11.30149956 56.10581883 8.3125 56.0625 C7.10013672 56.04896484 7.10013672 56.04896484 5.86328125 56.03515625 C5.24839844 56.02355469 4.63351562 56.01195312 4 56 C4 54.02 4 52.04 4 50 C5.27875 49.773125 6.5575 49.54625 7.875 49.3125 C11.29488548 48.47401849 11.29488548 48.47401849 13.5625 45.8125 C14.55560309 39.42826588 12.37906034 33.77790172 10.05859375 27.94921875 C9.77146011 27.2092012 9.48432648 26.46918365 9.18849182 25.70674133 C8.27847408 23.36420029 7.35864687 21.02568463 6.4375 18.6875 C5.51423814 16.33093598 4.59313171 13.97357787 3.67579651 11.61470032 C3.10644661 10.15195004 2.53343078 8.69062033 1.95640564 7.23088074 C0 2.2229928 0 2.2229928 0 0 Z " fill="#FFFFFF" transform="translate(423,60)"/>
<path d="M0 0 C4.97934482 -0.87356927 4.97934482 -0.87356927 8 0 C11.8634683 3.92222828 14.98933224 8.52448354 16 14 C18.86056397 11.48304732 20.36207179 8.6294895 22.1875 5.3125 C25.32521629 0.21706329 25.32521629 0.21706329 28.234375 -0.71875 C30.4375 -0.6875 30.4375 -0.6875 34 0 C31.01657047 5.58402961 27.84741978 10.79407221 24.0390625 15.859375 C22.83802181 17.9413726 22.83802181 17.9413726 22.98828125 20.25390625 C24.50376622 24.36736546 27.00185931 27.65503064 29.5625 31.1875 C30.58872114 32.61556238 31.61106585 34.04642101 32.62890625 35.48046875 C33.3106189 36.42249146 33.3106189 36.42249146 34.00610352 37.38354492 C35 39 35 39 35 41 C32.0125893 41.3481093 29.89574455 41.59182116 27 41 C24.72339406 39.06192832 23.42986505 36.72521722 22 34.125 C21.41025391 33.14853516 21.41025391 33.14853516 20.80859375 32.15234375 C18 27.40611389 18 27.40611389 18 25 C17.34 25 16.68 25 16 25 C15.73445313 25.70511719 15.46890625 26.41023438 15.1953125 27.13671875 C13.09332015 32.17188342 10.63877524 36.90373851 7 41 C3.87747751 41.99179597 2.2945122 41.63578306 -1 41 C2.85099726 33.66829368 7.33718825 26.83801922 12 20 C11.55269531 19.31035156 11.10539062 18.62070313 10.64453125 17.91015625 C6.87363784 12.04878888 3.29178398 6.14365212 0 0 Z " fill="#FFFFFF" transform="translate(324,60)"/>
<path d="M0 0 C0 1.98 0 3.96 0 6 C-0.92232422 6.27263672 -0.92232422 6.27263672 -1.86328125 6.55078125 C-3.07564453 6.92783203 -3.07564453 6.92783203 -4.3125 7.3125 C-5.51326172 7.67794922 -5.51326172 7.67794922 -6.73828125 8.05078125 C-9.29246217 9.12274319 -10.34676842 9.77788958 -12 12 C-12.508149 15.19477975 -12.508149 15.19477975 -12.51171875 18.85546875 C-12.52966995 19.51710526 -12.54762115 20.17874176 -12.56611633 20.86042786 C-12.62020898 22.96938747 -12.65410931 25.07812099 -12.6875 27.1875 C-12.72067427 28.61917208 -12.75516405 30.05081433 -12.79101562 31.48242188 C-12.87593257 34.9880639 -12.94274921 38.49378473 -13 42 C-15.64 42 -18.28 42 -21 42 C-21 28.47 -21 14.94 -21 1 C-18.69 1 -16.38 1 -14 1 C-13.67 2.32 -13.34 3.64 -13 5 C-12.21625 4.360625 -11.4325 3.72125 -10.625 3.0625 C-6.77510379 0.03758155 -4.85148682 -0.1054671 0 0 Z " fill="#FFFFFF" transform="translate(576,59)"/>
</svg>
