<?xml version="1.0" encoding="UTF-8"?>
<svg version="1.1" xmlns="http://www.w3.org/2000/svg" width="135" height="132">
<path d="M0 0 C2.45360789 1.29016002 4.85258895 2.61280238 7.25 4 C8.68193382 4.82223809 10.11423647 5.64383414 11.546875 6.46484375 C12.28099609 6.88620605 13.01511719 7.30756836 13.77148438 7.74169922 C15.94077001 8.9665566 18.1280956 10.14782831 20.328125 11.31640625 C27.37078235 15.09071566 33.01175453 18.52042979 38.40234375 24.55078125 C40.03629025 26.32991234 40.03629025 26.32991234 43.1875 26.25 C44.5796875 26.12625 44.5796875 26.12625 46 26 C49.16466234 27.94748311 50.76360783 29.04117525 51.66856384 32.71174622 C51.69715233 34.26559273 51.69715233 34.26559273 51.72631836 35.85083008 C51.77416725 37.61835381 51.77416725 37.61835381 51.82298279 39.42158508 C51.82854691 40.69140732 51.83411102 41.96122955 51.83984375 43.26953125 C51.85648575 44.57903244 51.87312775 45.88853363 51.89027405 47.23771667 C51.92018514 50.00935451 51.9294791 52.78021416 51.92651367 55.55200195 C51.92600621 59.09115743 51.9941713 62.62527985 52.08037472 66.16324329 C52.14962528 69.55290837 52.14642493 72.94166887 52.15234375 76.33203125 C52.20623512 78.22765556 52.20623512 78.22765556 52.26121521 80.16157532 C52.1497619 88.76741238 52.1497619 88.76741238 48.81912231 92.33798218 C46.28060971 94.14563135 43.79201165 95.62267834 41 97 C39.845 97.598125 38.69 98.19625 37.5 98.8125 C36.2625 99.4003125 36.2625 99.4003125 35 100 C34.34 100.66 33.68 101.32 33 102 C32.0615625 102.37769531 31.123125 102.75539063 30.15625 103.14453125 C23.04001672 106.07095327 16.62786351 110.69554482 10.16015625 114.81445312 C9.08636719 115.47767578 8.01257813 116.14089844 6.90625 116.82421875 C5.94009766 117.43354248 4.97394531 118.04286621 3.97851562 118.6706543 C0.39897183 120.26824577 -2.11729463 120.34388211 -6 120 C-9.140625 118.4609375 -9.140625 118.4609375 -12.25 116.375 C-16.35993251 113.68721006 -20.47495078 111.1230443 -24.8125 108.8125 C-37.37510434 102.01992905 -37.37510434 102.01992905 -41.0625 97.1875 C-42.42393208 95.3621303 -42.42393208 95.3621303 -44 94 C-47.54178598 93.74996036 -47.54178598 93.74996036 -51 94 C-53.67044067 92.37838745 -53.67044067 92.37838745 -56 90 C-56.66183472 87.28152466 -56.66183472 87.28152466 -56.71044922 84.13330078 C-56.73912079 82.95172394 -56.76779236 81.77014709 -56.79733276 80.55276489 C-56.79975983 79.2798056 -56.80218689 78.00684631 -56.8046875 76.6953125 C-56.81895782 75.38343964 -56.83322815 74.07156677 -56.84793091 72.71994019 C-56.87333024 69.94408672 -56.87863183 67.1690183 -56.87158203 64.39306641 C-56.86548708 60.84519379 -56.92332736 57.30159044 -56.99824333 53.75462532 C-57.05807457 50.35975223 -57.05242312 46.96570937 -57.0546875 43.5703125 C-57.0854538 42.30140167 -57.11622009 41.03249084 -57.1479187 39.72512817 C-57.03625345 31.14450865 -57.03625345 31.14450865 -54.15304565 27.96009827 C-51.83632804 26.38572565 -49.54075076 25.17265923 -47 24 C-45.89317871 23.33766357 -44.78635742 22.67532715 -43.64599609 21.99291992 C-42.61555176 21.41131104 -41.58510742 20.82970215 -40.5234375 20.23046875 C-39.95460846 19.9076593 -39.38577942 19.58484985 -38.79971313 19.2522583 C-36.99322408 18.2275462 -35.18428302 17.20726949 -33.375 16.1875 C-30.88144253 14.77844974 -28.38927335 13.36698076 -25.8984375 11.953125 C-25.29521667 11.6107933 -24.69199585 11.26846161 -24.07049561 10.91575623 C-20.66765004 8.97625129 -17.30330204 6.98905655 -13.9765625 4.921875 C-13.2851416 4.49237549 -12.5937207 4.06287598 -11.88134766 3.62036133 C-10.14308539 2.5274622 -8.41481251 1.41871794 -6.6875 0.30859375 C-3.61631728 -1.18682226 -3.09726869 -1.04934989 0 0 Z " fill="#131011" transform="translate(73,8)"/>
<path d="M0 0 C2.45354754 1.29012828 4.85222442 2.61356859 7.25 4 C8.67179281 4.81134196 10.09367048 5.62253523 11.515625 6.43359375 C12.61487305 7.06370361 12.61487305 7.06370361 13.73632812 7.70654297 C17.47952177 9.84539542 21.24046958 11.95254212 25 14.0625 C26.35424988 14.8240708 27.70842434 15.58577573 29.0625 16.34765625 C30.5165625 17.16556641 30.5165625 17.16556641 32 18 C32 18.99 32 19.98 32 21 C30.63798182 21.87471834 29.25959437 22.72397503 27.875 23.5625 C27.10929687 24.03816406 26.34359375 24.51382813 25.5546875 25.00390625 C22.10875179 26.34750504 20.55732585 26.06080735 17 25 C13.05741874 23.02085378 9.31059678 20.71118792 5.54492188 18.41796875 C1.23629263 15.80088395 1.23629263 15.80088395 -3.61328125 14.953125 C-6.90679411 16.39774275 -10.02385248 18.06338884 -13.125 19.875 C-13.80570557 20.26558594 -14.48641113 20.65617187 -15.18774414 21.05859375 C-16.66525865 21.90792747 -18.14085328 22.76060772 -19.61474609 23.61621094 C-22.1514921 25.08788713 -24.69443988 26.54843855 -27.23828125 28.0078125 C-28.97163995 29.00471159 -30.70471801 30.00209883 -32.4375 31 C-33.2723291 31.48065918 -34.1071582 31.96131836 -34.96728516 32.45654297 C-35.73991699 32.90400879 -36.51254883 33.35147461 -37.30859375 33.8125 C-37.99751709 34.21082031 -38.68644043 34.60914063 -39.39624023 35.01953125 C-40.97957085 35.90141519 -40.97957085 35.90141519 -42 37 C-42.16023562 39.88252645 -42.25954029 42.74378527 -42.31640625 45.62890625 C-42.33718735 46.49313705 -42.35796844 47.35736786 -42.37937927 48.24778748 C-42.44497114 51.01927445 -42.50380418 53.79085921 -42.5625 56.5625 C-42.60567608 58.43685923 -42.64929006 60.31120843 -42.69335938 62.18554688 C-42.80066227 66.79026336 -42.90190215 71.39507858 -43 76 C-39.61157157 74.74802474 -36.7461683 73.37130889 -34 71 C-32.7334842 67.3941637 -32.82802472 63.97839985 -32.9375 60.1875 C-32.93041016 59.20845703 -32.92332031 58.22941406 -32.91601562 57.22070312 C-32.90426024 54.81084889 -32.93350548 52.40875592 -33 50 C-31.32332564 50.64108137 -29.65910004 51.31471955 -28 52 C-26.90816406 52.37769531 -25.81632812 52.75539062 -24.69140625 53.14453125 C-23.80324219 53.75683594 -22.91507813 54.36914062 -22 55 C-21.72703382 57.75726507 -21.73376111 59.96726018 -21.9375 62.6875 C-21.99199339 65.59338427 -21.92543049 68.22883355 -21 71 C-18.69234416 72.89338252 -17.05317768 74.01075893 -14.4375 75.25 C-10.859375 76.984375 -10.859375 76.984375 -8 79 C-6.85400572 83.1880882 -7.17500833 86.76927347 -8 91 C-13.27574042 90.38860578 -17.00824554 87.62065048 -21.27148438 84.70703125 C-24.36739493 82.62269716 -24.36739493 82.62269716 -27.95703125 82.015625 C-31.08258527 83.52162809 -34.11926676 85.14592871 -37.125 86.875 C-37.75792969 87.22691406 -38.39085938 87.57882813 -39.04296875 87.94140625 C-42.18905997 89.73821843 -43.95805563 90.93708345 -46 94 C-52.4355337 93.39287418 -52.4355337 93.39287418 -54.70025635 91.81660461 C-56.52890292 89.26077155 -56.42185916 87.37466451 -56.48339844 84.24682617 C-56.51222107 83.0651738 -56.5410437 81.88352142 -56.57073975 80.6660614 C-56.58348938 79.38794083 -56.59623901 78.10982025 -56.609375 76.79296875 C-56.62647522 75.47968094 -56.64357544 74.16639313 -56.66119385 72.81330872 C-56.69269551 70.03167241 -56.71024056 67.25029538 -56.72070312 64.46850586 C-56.7371428 60.91296974 -56.80917621 57.36089049 -56.89461899 53.80643749 C-56.96413489 50.40618323 -56.9698543 47.00639652 -56.984375 43.60546875 C-57.02141541 42.33342087 -57.05845581 41.06137299 -57.09661865 39.7507782 C-57.03155704 31.14332401 -57.03155704 31.14332401 -54.15750122 27.95787048 C-51.83938753 26.38262125 -49.54319557 25.17123863 -47 24 C-45.89317871 23.33766357 -44.78635742 22.67532715 -43.64599609 21.99291992 C-42.61555176 21.41131104 -41.58510742 20.82970215 -40.5234375 20.23046875 C-39.95460846 19.9076593 -39.38577942 19.58484985 -38.79971313 19.2522583 C-36.99322408 18.2275462 -35.18428302 17.20726949 -33.375 16.1875 C-30.88144253 14.77844974 -28.38927335 13.36698076 -25.8984375 11.953125 C-25.29521667 11.6107933 -24.69199585 11.26846161 -24.07049561 10.91575623 C-20.66765004 8.97625129 -17.30330204 6.98905655 -13.9765625 4.921875 C-13.2851416 4.49237549 -12.5937207 4.06287598 -11.88134766 3.62036133 C-10.14308539 2.5274622 -8.41481251 1.41871794 -6.6875 0.30859375 C-3.61631728 -1.18682226 -3.09726869 -1.04934989 0 0 Z " fill="#E3277A" transform="translate(73,8)"/>
<path d="M0 0 C3.82159868 0.53077759 6.21170506 1.28761394 9 4 C9.54830933 6.5914917 9.54830933 6.5914917 9.61279297 9.73730469 C9.64476776 10.91572937 9.67674255 12.09415405 9.70968628 13.30828857 C9.72041168 14.58327209 9.73113708 15.85825562 9.7421875 17.171875 C9.76927292 19.13824921 9.76927292 19.13824921 9.79690552 21.14434814 C9.82988615 23.92185295 9.84528418 26.69887589 9.85107422 29.4765625 C9.86182183 33.02347576 9.93705705 36.56580894 10.02856255 40.11143112 C10.10266917 43.50655274 10.10514382 46.90097276 10.1171875 50.296875 C10.15625214 51.5637616 10.19531677 52.83064819 10.23556519 54.13592529 C10.14747367 62.76743422 10.14747367 62.76743422 6.8213501 66.34020996 C4.28212581 68.14831628 1.79356885 69.62398083 -1 71 C-2.155 71.598125 -3.31 72.19625 -4.5 72.8125 C-5.7375 73.4003125 -5.7375 73.4003125 -7 74 C-7.66 74.66 -8.32 75.32 -9 76 C-9.9384375 76.37769531 -10.876875 76.75539063 -11.84375 77.14453125 C-18.95998328 80.07095327 -25.37213649 84.69554482 -31.83984375 88.81445312 C-32.91363281 89.47767578 -33.98742187 90.14089844 -35.09375 90.82421875 C-36.05990234 91.43354248 -37.02605469 92.04286621 -38.02148438 92.6706543 C-41.60102817 94.26824577 -44.11729463 94.34388211 -48 94 C-51.140625 92.4609375 -51.140625 92.4609375 -54.25 90.375 C-59.23729716 87.11568779 -64.29123395 84.1345657 -69.54296875 81.3203125 C-72.73142812 79.60695914 -75.86604365 77.81073033 -79 76 C-78.25 74.0625 -78.25 74.0625 -77 72 C-75.0625 71.4375 -75.0625 71.4375 -73 71 C-72.525625 70.46375 -72.05125 69.9275 -71.5625 69.375 C-70.7890625 68.694375 -70.7890625 68.694375 -70 68 C-66.27801815 68.41037135 -63.65288814 69.57986139 -60.49609375 71.5390625 C-59.67302734 72.03664063 -58.84996094 72.53421875 -58.00195312 73.046875 C-56.28599281 74.10285058 -54.57246006 75.1627807 -52.86132812 76.2265625 C-52.03955078 76.7215625 -51.21777344 77.2165625 -50.37109375 77.7265625 C-49.62786865 78.18627441 -48.88464355 78.64598633 -48.11889648 79.11962891 C-45.56277498 80.18166072 -44.55042192 79.96288409 -42 79 C-36.93823053 76.77775974 -32.42931107 73.747762 -27.796875 70.76171875 C-24.68377338 68.80081256 -21.50744411 67.01689212 -18.2734375 65.265625 C-14.80356642 63.33394419 -11.43924317 61.23220585 -8.06640625 59.13671875 C-6 58 -6 58 -4 58 C-4 44.8 -4 31.6 -4 18 C-12.69885653 21.65417363 -12.69885653 21.65417363 -14.11352539 25.49536133 C-14.10828857 26.3489624 -14.10305176 27.20256348 -14.09765625 28.08203125 C-14.11376953 29.01337891 -14.12988281 29.94472656 -14.14648438 30.90429688 C-14.11876953 31.86400391 -14.09105469 32.82371094 -14.0625 33.8125 C-14.06958984 34.79154297 -14.07667969 35.77058594 -14.08398438 36.77929688 C-14.09573976 39.18915111 -14.06649452 41.59124408 -14 44 C-14.61657471 43.84345947 -15.23314941 43.68691895 -15.8684082 43.52563477 C-17.27273094 43.17933917 -18.68576646 42.86640913 -20.10546875 42.58984375 C-22.78127702 41.75145729 -24.1293368 41.13035527 -26 39 C-26.2372532 36.31698846 -26.3145334 33.86231899 -26.25 31.1875 C-26.19004306 28.21798419 -26.4262672 25.98098204 -27 23 C-29.97069407 20.64230629 -32.90321689 19.38262227 -36.36328125 17.859375 C-39 16 -39 16 -39.79296875 12.703125 C-39.7539156 9.39425804 -39.53013651 6.26426646 -39 3 C-33.29112411 4.67857993 -28.79712566 7.4672192 -23.8046875 10.63671875 C-21.23149376 12.15061991 -21.23149376 12.15061991 -19.078125 11.9609375 C-15.89214801 10.48772258 -12.88527697 8.73435605 -9.875 6.9375 C-3.26538462 3 -3.26538462 3 -1 3 C-0.67 2.01 -0.34 1.02 0 0 Z " fill="#1FBDEC" transform="translate(115,34)"/>
<path d="M0 0 C1.13199353 0.9080162 2.25532363 1.82683826 3.375 2.75 C4.00148438 3.26046875 4.62796875 3.7709375 5.2734375 4.296875 C7.08312318 6.08199481 8.00117455 7.67949644 9 10 C6.41989804 11.48505869 3.83622441 12.96317311 1.25 14.4375 C0.52039063 14.85837891 -0.20921875 15.27925781 -0.9609375 15.71289062 C-1.66992188 16.11572266 -2.37890625 16.51855469 -3.109375 16.93359375 C-3.75874023 17.30540771 -4.40810547 17.67722168 -5.07714844 18.06030273 C-7.12778082 19.06244647 -8.72735732 19.73069841 -11 20 C-13.10644531 19.19555664 -13.10644531 19.19555664 -15.328125 17.91015625 C-16.12734375 17.45576172 -16.9265625 17.00136719 -17.75 16.53320312 C-18.575 16.04787109 -19.4 15.56253906 -20.25 15.0625 C-21.51070312 14.34030273 -21.51070312 14.34030273 -22.796875 13.60351562 C-24.87091051 12.41330206 -26.93631125 11.20806471 -29 10 C-29 14.29 -29 18.58 -29 23 C-25.41008023 24.44403551 -25.41008023 24.44403551 -21.76171875 25.7265625 C-19.11470365 26.87310388 -17.76812526 27.68121773 -16 30 C-15.28745343 35.41209034 -15.54092928 40.57403917 -16 46 C-15.13375 46.268125 -14.2675 46.53625 -13.375 46.8125 C-10.08208036 47.97111987 -7.08872125 49.38209839 -4 51 C-4.04189453 50.39003174 -4.08378906 49.78006348 -4.12695312 49.15161133 C-4.29382668 46.37258572 -4.39743371 43.59461059 -4.5 40.8125 C-4.60054687 39.37293945 -4.60054687 39.37293945 -4.703125 37.90429688 C-4.78176714 35.06334964 -4.75183749 32.74454447 -4 30 C-1.64385239 27.58257674 0.84501846 26.16793453 4 25 C4.66 25 5.32 25 6 25 C6.29777258 30.56796542 6.51483637 36.13126453 6.65917969 41.70532227 C6.71935429 43.59839597 6.80112758 45.49091571 6.90527344 47.38208008 C7.57793566 59.91535999 7.57793566 59.91535999 6 65 C2.51292594 68.80759368 -1.19622225 70.29990536 -6 72 C-7.34773564 72.71930387 -8.68146297 73.46660116 -9.98828125 74.2578125 C-11.08527344 74.87398438 -12.18226562 75.49015625 -13.3125 76.125 C-17.01731383 78.21785749 -20.6362122 80.34252641 -24.0625 82.875 C-26.72522779 84.80122861 -28.89633635 85.99340638 -32 87 C-32.92631226 87.3410376 -32.92631226 87.3410376 -33.87133789 87.68896484 C-36.76487422 88.11176164 -37.90650917 87.25099823 -40.37109375 85.7265625 C-41.19287109 85.2315625 -42.01464844 84.7365625 -42.86132812 84.2265625 C-43.71146484 83.69804688 -44.56160156 83.16953125 -45.4375 82.625 C-47.11968702 81.58980799 -48.80577869 80.56092877 -50.49609375 79.5390625 C-51.24044678 79.07709473 -51.9847998 78.61512695 -52.75170898 78.13916016 C-55.77645005 76.60658965 -58.61689426 76 -62 76 C-62.33 76.99 -62.66 77.98 -63 79 C-65.4375 80.125 -65.4375 80.125 -68 81 C-68.99 81.495 -68.99 81.495 -70 82 C-72.31 79.36 -74.62 76.72 -77 74 C-74.66385952 69.32771904 -73.16235801 68.66274949 -68.625 66.3125 C-67.48289062 65.71050781 -66.34078125 65.10851562 -65.1640625 64.48828125 C-60.08417846 62.09885431 -60.08417846 62.09885431 -58 62 C-54.984375 63.29296875 -54.984375 63.29296875 -51.75 65.1875 C-50.67234375 65.79980469 -49.5946875 66.41210938 -48.484375 67.04296875 C-47.66453125 67.68878906 -46.8446875 68.33460937 -46 69 C-46 70.32 -46 71.64 -46 73 C-43.69 73 -41.38 73 -39 73 C-39.14308594 71.19402344 -39.14308594 71.19402344 -39.2890625 69.3515625 C-39.40159688 67.77608123 -39.51354573 66.20055805 -39.625 64.625 C-39.68945312 63.8309375 -39.75390625 63.036875 -39.8203125 62.21875 C-39.96058587 60.14971776 -39.98758237 58.07374464 -40 56 C-39.34 55.34 -38.68 54.68 -38 54 C-37.030625 54.020625 -36.06125 54.04125 -35.0625 54.0625 C-32.05088013 54.32142494 -32.05088013 54.32142494 -30.4375 52.6875 C-29.963125 52.130625 -29.48875 51.57375 -29 51 C-28.113125 50.505 -27.22625 50.01 -26.3125 49.5 C-25.549375 49.005 -24.78625 48.51 -24 48 C-24 44.42147258 -24.54626761 41.00832903 -25.07421875 37.47265625 C-24.98144248 34.38174164 -23.81894675 33.41388375 -22 31 C-22.495 29.02 -22.495 29.02 -23 27 C-25.97 27.66 -28.94 28.32 -32 29 C-31.7215625 27.576875 -31.7215625 27.576875 -31.4375 26.125 C-30.71313368 23.10131207 -30.71313368 23.10131207 -32 21 C-31.9374086 18.99707531 -31.80253089 16.99602299 -31.625 15 C-31.48964844 13.39125 -31.48964844 13.39125 -31.3515625 11.75 C-31 9 -31 9 -30 7 C-24.375 6.75 -24.375 6.75 -21 9 C-21 9.66 -21 10.32 -21 11 C-19.68 10.67 -18.36 10.34 -17 10 C-16.505 11.98 -16.505 11.98 -16 14 C-14.9275 13.979375 -13.855 13.95875 -12.75 13.9375 C-9.85209576 13.9857984 -7.71387859 14.13155885 -5 15 C-5.495 11.535 -5.495 11.535 -6 8 C-5.01 7.4225 -4.02 6.845 -3 6.25 C-2.01 5.5075 -1.02 4.765 0 4 C0 2.68 0 1.36 0 0 Z " fill="#111113" transform="translate(105,27)"/>
<path d="M0 0 C0.33 0 0.66 0 1 0 C1.31137262 5.0349372 1.61426986 10.07028714 1.90942383 15.10620117 C2.01095198 16.81825397 2.11476938 18.53017264 2.22094727 20.24194336 C2.37341923 22.70654879 2.51757328 25.17152385 2.66015625 27.63671875 C2.70906509 28.39836838 2.75797394 29.16001801 2.80836487 29.94474792 C3.02349534 33.80778057 2.98923869 37.24737978 2 41 C4.64 41 7.28 41 10 41 C10 37.7 10 34.4 10 31 C13 33 13 33 13.64453125 35.79296875 C14.08827641 44.76074883 14.08827641 44.76074883 10.97265625 48.30859375 C8.38937686 50.11494701 5.82469144 51.60451811 3 53 C1.845 53.598125 0.69 54.19625 -0.5 54.8125 C-1.7375 55.4003125 -1.7375 55.4003125 -3 56 C-3.99 56.99 -3.99 56.99 -5 58 C-6.40765625 58.56654297 -6.40765625 58.56654297 -7.84375 59.14453125 C-14.95998328 62.07095327 -21.37213649 66.69554482 -27.83984375 70.81445312 C-28.91363281 71.47767578 -29.98742187 72.14089844 -31.09375 72.82421875 C-32.05990234 73.43354248 -33.02605469 74.04286621 -34.02148438 74.6706543 C-37.60102817 76.26824577 -40.11729463 76.34388211 -44 76 C-47.140625 74.4609375 -47.140625 74.4609375 -50.25 72.375 C-55.23729716 69.11568779 -60.29123395 66.1345657 -65.54296875 63.3203125 C-68.73142812 61.60695914 -71.86604365 59.81073033 -75 58 C-74.25 56.0625 -74.25 56.0625 -73 54 C-71.0625 53.4375 -71.0625 53.4375 -69 53 C-68.525625 52.46375 -68.05125 51.9275 -67.5625 51.375 C-66.7890625 50.694375 -66.7890625 50.694375 -66 50 C-62.27801815 50.41037135 -59.65288814 51.57986139 -56.49609375 53.5390625 C-55.67302734 54.03664062 -54.84996094 54.53421875 -54.00195312 55.046875 C-52.28599281 56.10285058 -50.57246006 57.1627807 -48.86132812 58.2265625 C-48.03955078 58.7215625 -47.21777344 59.2165625 -46.37109375 59.7265625 C-45.62786865 60.18627441 -44.88464355 60.64598633 -44.11889648 61.11962891 C-41.56277498 62.18166072 -40.55042192 61.96288409 -38 61 C-32.93823053 58.77775974 -28.42931107 55.747762 -23.796875 52.76171875 C-20.68377338 50.80081256 -17.50744411 49.01689212 -14.2734375 47.265625 C-10.80356642 45.33394419 -7.43924317 43.23220585 -4.06640625 41.13671875 C-2 40 -2 40 0 40 C0 26.8 0 13.6 0 0 Z " fill="#463DCA" transform="translate(111,52)"/>
<path d="M0 0 C3.27676217 1.20270972 6.23193397 2.99022851 9.24414062 4.73193359 C10.66593343 5.54327556 12.08781111 6.35446883 13.50976562 7.16552734 C14.60901367 7.79563721 14.60901367 7.79563721 15.73046875 8.43847656 C19.47366239 10.57732901 23.2346102 12.68447572 26.99414062 14.79443359 C28.3483905 15.55600439 29.70256497 16.31770933 31.05664062 17.07958984 C32.51070312 17.8975 32.51070312 17.8975 33.99414062 18.73193359 C33.99414062 19.72193359 33.99414062 20.71193359 33.99414062 21.73193359 C32.63212245 22.60665193 31.25373499 23.45590862 29.86914062 24.29443359 C29.1034375 24.77009766 28.33773437 25.24576172 27.54882812 25.73583984 C24.10289242 27.07943863 22.55146647 26.79274094 18.99414062 25.73193359 C15.05155936 23.75278737 11.3047374 21.44312151 7.5390625 19.14990234 C3.2495584 16.54825759 3.2495584 16.54825759 -1.57226562 15.65771484 C-5.14559437 17.23502689 -8.50967094 19.07528147 -11.88085938 21.04443359 C-12.56277344 21.43566406 -13.2446875 21.82689453 -13.94726562 22.22998047 C-16.6096255 23.75893571 -19.26991554 25.28848877 -21.8996582 26.87304688 C-25.21558429 28.84511489 -28.14367899 30.28045414 -31.94335938 30.98193359 C-32.71550781 31.13146484 -33.48765625 31.28099609 -34.28320312 31.43505859 C-35.13591797 31.58201172 -35.13591797 31.58201172 -36.00585938 31.73193359 C-36.56835938 29.79443359 -36.56835938 29.79443359 -37.00585938 27.73193359 C-36.67585938 27.40193359 -36.34585938 27.07193359 -36.00585938 26.73193359 C-37.32585938 25.41193359 -38.64585938 24.09193359 -40.00585938 22.73193359 C-36.89194838 20.28369767 -33.64727636 18.29660072 -30.20898438 16.33349609 C-28.52289063 15.36669922 -28.52289063 15.36669922 -26.80273438 14.38037109 C-25.62056161 13.70568354 -24.43826915 13.03120569 -23.25585938 12.35693359 C-20.94744004 11.03856966 -18.64046964 9.71774906 -16.33398438 8.39599609 C-15.24150391 7.77241211 -14.14902344 7.14882812 -13.0234375 6.50634766 C-10.42606306 4.97902424 -7.92901168 3.37004823 -5.42773438 1.69287109 C-2.00585938 -0.26806641 -2.00585938 -0.26806641 0 0 Z " fill="#F89230" transform="translate(71.005859375,7.26806640625)"/>
<path d="M0 0 C3.82185148 0.53081271 6.17315637 1.33842035 9 4 C9.48101807 6.14506531 9.48101807 6.14506531 9.45410156 8.6550293 C9.45379944 9.59577805 9.45349731 10.53652679 9.45318604 11.50578308 C9.43254089 12.51836685 9.41189575 13.53095062 9.390625 14.57421875 C9.38496521 15.61318802 9.37930542 16.65215729 9.37347412 17.72261047 C9.35106327 21.04470681 9.3008569 24.36572904 9.25 27.6875 C9.22994115 29.93813548 9.21168931 32.18878784 9.1953125 34.43945312 C9.1511832 39.9600026 9.08422421 45.47992457 9 51 C8.34 50.67 7.68 50.34 7 50 C6.67 52.97 6.34 55.94 6 59 C1.545 59.495 1.545 59.495 -3 60 C-2.73896484 58.82630859 -2.73896484 58.82630859 -2.47265625 57.62890625 C-1.86864985 52.99153476 -2.14766197 48.59284087 -2.4375 43.9375 C-2.88214133 35.94161027 -3.13374715 28.00996798 -3 20 C-2.01 20.33 -1.02 20.66 0 21 C0 21.66 0 22.32 0 23 C1.65 22.67 3.3 22.34 5 22 C5.495 13.09 5.495 13.09 6 4 C2.7 4.33 -0.6 4.66 -4 5 C-3.67 4.34 -3.34 3.68 -3 3 C-2.34 3 -1.68 3 -1 3 C-0.67 2.01 -0.34 1.02 0 0 Z " fill="#2C8DE0" transform="translate(115,34)"/>
<path d="M0 0 C0.33 0 0.66 0 1 0 C1.31137262 5.0349372 1.61426986 10.07028714 1.90942383 15.10620117 C2.01095198 16.81825397 2.11476938 18.53017264 2.22094727 20.24194336 C2.37341923 22.70654879 2.51757328 25.17152385 2.66015625 27.63671875 C2.70906509 28.39836838 2.75797394 29.16001801 2.80836487 29.94474792 C3.02349534 33.80778057 2.98923869 37.24737978 2 41 C4.64 41 7.28 41 10 41 C10 37.7 10 34.4 10 31 C13 33 13 33 13.64453125 35.79296875 C14.08528327 44.70025956 14.08528327 44.70025956 11.04296875 48.34375 C5.99629478 52.00278243 1.10159462 53.94800093 -5 55 C-6.33577771 55.32339881 -7.66982666 55.65427213 -9 56 C-8.67 55.01 -8.34 54.02 -8 53 C-10.97 52.01 -13.94 51.02 -17 50 C-5.46153846 40 -5.46153846 40 0 40 C0 26.8 0 13.6 0 0 Z " fill="#3D58D2" transform="translate(111,52)"/>
<path d="M0 0 C1.85776765 3.13498292 2.20140476 5.37471432 2 9 C3.94074861 8.72382467 3.94074861 8.72382467 6 8 C6.66 7.01 7.32 6.02 8 5 C9.9453125 4.70703125 9.9453125 4.70703125 12.125 4.8125 C13.40375 4.874375 14.6825 4.93625 16 5 C15.42491699 5.27851807 14.84983398 5.55703613 14.25732422 5.84399414 C12.05899985 6.96978539 9.98088624 8.19410109 7.8828125 9.49609375 C6.72458984 10.21055664 6.72458984 10.21055664 5.54296875 10.93945312 C3.9383838 11.93356997 2.33421298 12.92835557 0.73046875 13.92382812 C-10.70193998 20.97159424 -10.70193998 20.97159424 -16.875 22.1875 C-17.65617187 22.34605469 -18.43734375 22.50460938 -19.2421875 22.66796875 C-19.82226562 22.77753906 -20.40234375 22.88710938 -21 23 C-21.5625 21.0625 -21.5625 21.0625 -22 19 C-21.67 18.67 -21.34 18.34 -21 18 C-22.32 16.68 -23.64 15.36 -25 14 C-20.69806123 10.67066816 -16.07656444 8.03168839 -11.375 5.3125 C-10.50359375 4.80138672 -9.6321875 4.29027344 -8.734375 3.76367188 C-7.48527344 3.03954102 -7.48527344 3.03954102 -6.2109375 2.30078125 C-5.45087402 1.85903564 -4.69081055 1.41729004 -3.90771484 0.9621582 C-2 0 -2 0 0 0 Z " fill="#F37444" transform="translate(56,16)"/>
<path d="M0 0 C1.13199353 0.9080162 2.25532363 1.82683826 3.375 2.75 C4.00148437 3.26046875 4.62796875 3.7709375 5.2734375 4.296875 C7.08312318 6.08199481 8.00117455 7.67949644 9 10 C6.41989804 11.48505869 3.83622441 12.96317311 1.25 14.4375 C0.52039063 14.85837891 -0.20921875 15.27925781 -0.9609375 15.71289062 C-1.66992188 16.11572266 -2.37890625 16.51855469 -3.109375 16.93359375 C-4.08342285 17.4913147 -4.08342285 17.4913147 -5.07714844 18.06030273 C-7.12778082 19.06244647 -8.72735732 19.73069841 -11 20 C-13.10644531 19.19555664 -13.10644531 19.19555664 -15.328125 17.91015625 C-16.12734375 17.45576172 -16.9265625 17.00136719 -17.75 16.53320312 C-18.9875 15.80520508 -18.9875 15.80520508 -20.25 15.0625 C-21.09046875 14.58103516 -21.9309375 14.09957031 -22.796875 13.60351562 C-24.87091051 12.41330206 -26.93631125 11.20806471 -29 10 C-29 14.29 -29 18.58 -29 23 C-25.41008023 24.44403551 -25.41008023 24.44403551 -21.76171875 25.7265625 C-19.11470365 26.87310388 -17.76812526 27.68121773 -16 30 C-15.28745343 35.41209034 -15.54092928 40.57403917 -16 46 C-15.34 46.33 -14.68 46.66 -14 47 C-15.32 47 -16.64 47 -18 47 C-18.13277344 46.09636719 -18.26554687 45.19273438 -18.40234375 44.26171875 C-18.57894531 43.08222656 -18.75554687 41.90273437 -18.9375 40.6875 C-19.11152344 39.51574219 -19.28554687 38.34398437 -19.46484375 37.13671875 C-19.92093031 33.98358597 -19.92093031 33.98358597 -21 31 C-21.66 30.67 -22.32 30.34 -23 30 C-23 29.01 -23 28.02 -23 27 C-25.97 27.66 -28.94 28.32 -32 29 C-31.814375 28.05125 -31.62875 27.1025 -31.4375 26.125 C-30.71313368 23.10131207 -30.71313368 23.10131207 -32 21 C-31.9374086 18.99707531 -31.80253089 16.99602299 -31.625 15 C-31.53476563 13.9275 -31.44453125 12.855 -31.3515625 11.75 C-31 9 -31 9 -30 7 C-24.375 6.75 -24.375 6.75 -21 9 C-21 9.66 -21 10.32 -21 11 C-19.68 10.67 -18.36 10.34 -17 10 C-16.67 11.32 -16.34 12.64 -16 14 C-14.9275 13.979375 -13.855 13.95875 -12.75 13.9375 C-9.85209576 13.9857984 -7.71387859 14.13155885 -5 15 C-5.33 12.69 -5.66 10.38 -6 8 C-5.01 7.4225 -4.02 6.845 -3 6.25 C-2.01 5.5075 -1.02 4.765 0 4 C0 2.68 0 1.36 0 0 Z " fill="#03121A" transform="translate(105,27)"/>
<path d="M0 0 C0.29777258 5.56796542 0.51483637 11.13126453 0.65917969 16.70532227 C0.71935429 18.59839597 0.80112758 20.49091571 0.90527344 22.38208008 C1.57793566 34.91535999 1.57793566 34.91535999 0 40 C-3.48707406 43.80759368 -7.19622225 45.29990536 -12 47 C-13.34773564 47.71930387 -14.68146297 48.46660116 -15.98828125 49.2578125 C-17.63376953 50.18207031 -17.63376953 50.18207031 -19.3125 51.125 C-23.01731383 53.21785749 -26.6362122 55.34252641 -30.0625 57.875 C-32.72522779 59.80122861 -34.89633635 60.99340638 -38 62 C-38.57878906 62.25007813 -39.15757813 62.50015625 -39.75390625 62.7578125 C-43.27084491 63.13703023 -45.28899881 61.43450073 -48.25 59.625 C-49.32765625 58.97789063 -50.4053125 58.33078125 -51.515625 57.6640625 C-52.33546875 57.11492187 -53.1553125 56.56578125 -54 56 C-54 55.67 -54 55.34 -54 55 C-49.55884523 54.82918636 -46.90797383 55.04601308 -43 57 C-40.64435404 57.44811137 -40.64435404 57.44811137 -38.25 57.625 C-37.45078125 57.69976562 -36.6515625 57.77453125 -35.828125 57.8515625 C-35.22484375 57.90054688 -34.6215625 57.94953125 -34 58 C-33.67 57.34 -33.34 56.68 -33 56 C-30.4375 55.375 -30.4375 55.375 -28 55 C-28 54.34 -28 53.68 -28 53 C-22.25 50 -22.25 50 -20 50 C-20 49.34 -20 48.68 -20 48 C-17.525 47.505 -17.525 47.505 -15 47 C-15 46.34 -15 45.68 -15 45 C-13.9375 43.4375 -13.9375 43.4375 -12 42 C-8.3125 41.3125 -8.3125 41.3125 -5 41 C-5 40.34 -5 39.68 -5 39 C-4.34 39 -3.68 39 -3 39 C-2.67 28.11 -2.34 17.22 -2 6 C-3.98 6.33 -5.96 6.66 -8 7 C-8 14.26 -8 21.52 -8 29 C-9.98 29 -11.96 29 -14 29 C-14.2475 28.360625 -14.495 27.72125 -14.75 27.0625 C-15.81562433 24.81258459 -15.81562433 24.81258459 -18.125 24.25 C-18.74375 24.1675 -19.3625 24.085 -20 24 C-20 23.34 -20 22.68 -20 22 C-16.50470706 23.11213866 -13.25530808 24.31573191 -10 26 C-10.04189453 25.39003174 -10.08378906 24.78006348 -10.12695312 24.15161133 C-10.29382668 21.37258572 -10.39743371 18.59461059 -10.5 15.8125 C-10.60054687 14.37293945 -10.60054687 14.37293945 -10.703125 12.90429688 C-10.78176714 10.06334964 -10.75183749 7.74454447 -10 5 C-7.26861972 2.1975855 -4.00441048 0 0 0 Z " fill="#02182C" transform="translate(111,52)"/>
<path d="M0 0 C2.97 0.495 2.97 0.495 6 1 C6 1.99 6 2.98 6 4 C7.65 3.67 9.3 3.34 11 3 C11 2.01 11 1.02 11 0 C12.98 0 14.96 0 17 0 C14.03368051 2.47193291 11.48763093 4.25618453 8 6 C7.67 12.93 7.34 19.86 7 27 C5.68 26.67 4.36 26.34 3 26 C2.30519531 25.86464844 1.61039063 25.72929688 0.89453125 25.58984375 C-1.78674614 24.74974371 -3.11432977 24.12574399 -5 22 C-5.53037589 18.52677456 -5.73428689 15.33986158 -5.61206055 11.83959961 C-5.52353263 9.4671873 -5.52353263 9.4671873 -6 6 C-8.35627632 3.46582413 -8.35627632 3.46582413 -11 2 C-7.62294375 2.53725895 -4.303314 3.11064623 -1 4 C-0.67 2.68 -0.34 1.36 0 0 Z " fill="#22A9E8" transform="translate(94,51)"/>
<path d="M0 0 C3.03978021 0.68164768 4.80055419 2.23591662 6.93359375 4.43359375 C8.34360039 7.25360702 8.17907826 9.3036663 7.93359375 12.43359375 C6.67070716 15.21194424 5.58137665 16.92462147 3.18359375 18.80859375 C-0.20752712 19.75057177 -2.67631828 19.28111574 -6.06640625 18.43359375 C-9.58961683 15.55939564 -10.92831159 13.6534299 -11.44140625 9.12109375 C-11.06640625 5.43359375 -11.06640625 5.43359375 -9.06640625 2.49609375 C-5.70670109 0.18629645 -3.9771532 -0.24810218 0 0 Z " fill="#FBAB1E" transform="translate(72.06640625,58.56640625)"/>
<path d="M0 0 C0.99 0.33 1.98 0.66 3 1 C3 19.33333333 3 37.66666667 3 56 C3.32550502 57.66821323 3.65846063 59.33499557 4 61 C7.07603438 60.6582184 8.59846488 60.4302162 10.75 58.125 C14.00592426 55.04996042 17.75234594 54.19805627 22 53 C22 52.34 22 51.68 22 51 C23.60226955 50.77754607 25.20696767 50.57253331 26.8125 50.375 C27.70582031 50.25898437 28.59914063 50.14296875 29.51953125 50.0234375 C32 50 32 50 35 52 C35 52.66 35 53.32 35 54 C33.88625 53.4740625 33.88625 53.4740625 32.75 52.9375 C29.61599611 51.86908958 29.04103359 51.92884556 26 53 C23.58177827 54.24541211 21.22963019 55.52048077 18.875 56.875 C18.24207031 57.22691406 17.60914062 57.57882813 16.95703125 57.94140625 C13.81094003 59.73821843 12.04194437 60.93708345 10 64 C3.57122289 63.39351159 3.57122289 63.39351159 1.29081726 61.82255554 C-0.55033358 59.22296242 -0.36049801 57.31918373 -0.34057617 54.15161133 C-0.34034958 52.9505928 -0.34012299 51.74957428 -0.33988953 50.51216125 C-0.32440567 49.21521835 -0.30892181 47.91827545 -0.29296875 46.58203125 C-0.28737234 45.24110895 -0.28310245 43.90018051 -0.28010559 42.55924988 C-0.26866018 39.03275569 -0.23919618 35.50663316 -0.20599365 31.98028564 C-0.17528589 28.38078845 -0.16159878 24.7812311 -0.14648438 21.18164062 C-0.11432579 14.12094186 -0.06313345 7.06049521 0 0 Z " fill="#C41D7D" transform="translate(17,38)"/>
<path d="M0 0 C0 7.26 0 14.52 0 22 C-0.66 21.01 -1.32 20.02 -2 19 C-3.98 19.33 -5.96 19.66 -8 20 C-8.185625 19.05125 -8.37125 18.1025 -8.5625 17.125 C-9.73060619 13.65701364 -9.73060619 13.65701364 -13.4375 12.5625 C-16.95033781 11.72771418 -16.95033781 11.72771418 -20 13 C-20 12.34 -20 11.68 -20 11 C-20.66 11 -21.32 11 -22 11 C-22 10.34 -22 9.68 -22 9 C-19.69 9 -17.38 9 -15 9 C-14.67 7.35 -14.34 5.7 -14 4 C-12.68 4 -11.36 4 -10 4 C-10 3.01 -10 2.02 -10 1 C-6.37900892 -0.1141511 -4.08844645 0 0 0 Z " fill="#1BBFEF" transform="translate(121,38)"/>
<path d="M0 0 C3.91391471 1.97820353 7.63452881 4.28453671 11.3671875 6.58203125 C16.05250436 9.36842308 16.05250436 9.36842308 21.390625 9.90234375 C24.20784433 8.92812569 26.49388037 7.60113198 29 6 C29.66 6 30.32 6 31 6 C31.495 7.485 31.495 7.485 32 9 C30.5459375 9.61875 30.5459375 9.61875 29.0625 10.25 C25.87739901 11.64899168 25.87739901 11.64899168 25.125 14.1875 C25.08375 14.785625 25.0425 15.38375 25 16 C25.66 16.33 26.32 16.66 27 17 C26.67 17.66 26.34 18.32 26 19 C22.37 18.67 18.74 18.34 15 18 C14.67 16.68 14.34 15.36 14 14 C12.68 14.33 11.36 14.66 10 15 C10 14.34 10 13.68 10 13 C9.34 12.67 8.68 12.34 8 12 C8.99 12 9.98 12 11 12 C10.67 11.01 10.34 10.02 10 9 C8.15537813 8.27113604 8.15537813 8.27113604 6 7.9375 C3.8125 7.52734375 3.8125 7.52734375 2 7 C1.67 6.34 1.34 5.68 1 5 C0.01 4.67 -0.98 4.34 -2 4 C-2 3.34 -2 2.68 -2 2 C-2.79664062 2.34224609 -2.79664062 2.34224609 -3.609375 2.69140625 C-4.31578125 2.97886719 -5.0221875 3.26632813 -5.75 3.5625 C-6.44609375 3.85253906 -7.1421875 4.14257812 -7.859375 4.44140625 C-10.30012784 5.07831803 -11.6403655 4.80248831 -14 4 C-12.80681575 3.12479632 -11.5945121 2.2756291 -10.375 1.4375 C-9.70210938 0.96183594 -9.02921875 0.48617188 -8.3359375 -0.00390625 C-5.02308234 -1.4165786 -3.46337148 -1.02420368 0 0 Z " fill="#131010" transform="translate(74,23)"/>
<path d="M0 0 C3.65249796 0.5277692 6.56270466 2.27913237 9.75 4.0625 C10.73484375 4.61035156 11.7196875 5.15820312 12.734375 5.72265625 C13.48203125 6.14417969 14.2296875 6.56570312 15 7 C15 7.33 15 7.66 15 8 C14.04738281 7.88140625 13.09476563 7.7628125 12.11328125 7.640625 C10.85902344 7.51171875 9.60476562 7.3828125 8.3125 7.25 C6.45044922 7.04117188 6.45044922 7.04117188 4.55078125 6.828125 C0.35750325 7.03109995 -1.06241918 8.1017367 -4 11 C-3.67 11.99 -3.34 12.98 -3 14 C-3 14.33 -3 14.66 -3 15 C-2.34 15.33 -1.68 15.66 -1 16 C-3.66666667 17.33333333 -6.33333333 18.66666667 -9 20 C-11.31 17.36 -13.62 14.72 -16 12 C-13.63652142 7.27304284 -12.05289312 6.64806118 -7.4375 4.3125 C-3.46201198 2.51557352 -3.46201198 2.51557352 0 0 Z " fill="#150E15" transform="translate(44,89)"/>
<path d="M0 0 C2.45354754 1.29012828 4.85222442 2.61356859 7.25 4 C8.67179281 4.81134196 10.09367048 5.62253523 11.515625 6.43359375 C12.24845703 6.85366699 12.98128906 7.27374023 13.73632812 7.70654297 C17.47952177 9.84539542 21.24046958 11.95254212 25 14.0625 C26.35424988 14.8240708 27.70842434 15.58577573 29.0625 16.34765625 C30.5165625 17.16556641 30.5165625 17.16556641 32 18 C32 18.99 32 19.98 32 21 C30.68 21.33 29.36 21.66 28 22 C27.505 20.515 27.505 20.515 27 19 C24.67730041 17.75501391 24.67730041 17.75501391 21.9375 16.8125 C21.01839844 16.46832031 20.09929687 16.12414062 19.15234375 15.76953125 C18.08693359 15.38861328 18.08693359 15.38861328 17 15 C17 15.66 17 16.32 17 17 C17.99 17.33 18.98 17.66 20 18 C18.68 18 17.36 18 16 18 C16 16.02 16 14.04 16 12 C15.11183594 11.9071875 14.22367188 11.814375 13.30859375 11.71875 C9.6787437 10.93021115 7.94887406 9.78290201 5.0625 7.5 C0.878223 4.40452125 -1.81767385 3.11265926 -7 3 C-7 3.66 -7 4.32 -7 5 C-10.1999003 8.01704885 -12.61537866 9.49890042 -17 10 C-16.86328125 8.23828125 -16.86328125 8.23828125 -16 6 C-13.41796875 4.04296875 -13.41796875 4.04296875 -10.1875 2.1875 C-9.12917969 1.56230469 -8.07085937 0.93710938 -6.98046875 0.29296875 C-3.71848036 -1.12212713 -3.19345491 -1.09019406 0 0 Z " fill="#E39D3B" transform="translate(73,8)"/>
<path d="M0 0 C6.35166994 0.59921415 6.35166994 0.59921415 8.71875 2.0625 C10.71272696 5.07778223 10.31429122 8.2056179 10.1875 11.6875 C10.17396484 12.38939453 10.16042969 13.09128906 10.14648438 13.81445312 C10.11120182 15.54329829 10.05739583 17.27174765 10 19 C12.64 19 15.28 19 18 19 C18.33 18.01 18.66 17.02 19 16 C19 16.99 19 17.98 19 19 C20.65 19.66 22.3 20.32 24 21 C23.34 21.99 22.68 22.98 22 24 C21.72643157 25.93137682 21.72643157 25.93137682 21.8046875 28.01171875 C21.81113281 28.76904297 21.81757812 29.52636719 21.82421875 30.30664062 C21.84097656 31.09232422 21.85773438 31.87800781 21.875 32.6875 C21.88402344 33.48478516 21.89304687 34.28207031 21.90234375 35.10351562 C21.92588415 37.069139 21.96175453 39.03460775 22 41 C19.69 41 17.38 41 15 41 C15.33 40.01 15.66 39.02 16 38 C17.65 38.66 19.3 39.32 21 40 C21.43532777 35.71808754 21.41525141 32.09302926 20 28 C17.28675644 26.15298987 14.56000339 24.78273372 11.60205078 23.37890625 C9.13089285 22.02181196 7.27689473 20.8589929 6.38867188 18.10351562 C5.8407312 13.35325831 6.33052803 8.71491373 7 4 C6.030625 3.71125 5.06125 3.4225 4.0625 3.125 C1 2 1 2 0 0 Z " fill="#1D080F" transform="translate(44,59)"/>
<path d="M0 0 C4.03520597 1.58962659 8.01811282 3.28232318 12 5 C12 6.98 12 8.96 12 11 C12.33 10.01 12.66 9.02 13 8 C17.34159496 8.50483662 20.49408652 9.31900734 24 12 C24 12.99 24 13.98 24 15 C18.51053913 16.12029814 15.16569441 15.79217969 10 14 C10 13.34 10 12.68 10 12 C9.071875 11.896875 8.14375 11.79375 7.1875 11.6875 C3.97085535 10.9937139 2.83984081 10.65754784 1 8 C1 7.01 1 6.02 1 5 C0.34 4.67 -0.32 4.34 -1 4 C-0.67 2.68 -0.34 1.36 0 0 Z " fill="#FAA222" transform="translate(77,15)"/>
<path d="M0 0 C1.13199353 0.9080162 2.25532363 1.82683826 3.375 2.75 C4.00148438 3.26046875 4.62796875 3.7709375 5.2734375 4.296875 C7.08312318 6.08199481 8.00117455 7.67949644 9 10 C6.77812073 11.34695793 4.54882537 12.67741796 2.3125 14 C1.68666016 14.3815625 1.06082031 14.763125 0.41601562 15.15625 C-3.16902503 17.25847279 -5.81727522 18.70322518 -10 18 C-10.99 17.34 -11.98 16.68 -13 16 C-13 15.34 -13 14.68 -13 14 C-10.36 14.33 -7.72 14.66 -5 15 C-5.33 12.69 -5.66 10.38 -6 8 C-4.515 7.13375 -4.515 7.13375 -3 6.25 C-2.01 5.5075 -1.02 4.765 0 4 C0 2.68 0 1.36 0 0 Z " fill="#0F1314" transform="translate(105,27)"/>
<path d="M0 0 C2 3 2 3 1.625 5.1875 C1.41875 5.785625 1.2125 6.38375 1 7 C4.465 6.505 4.465 6.505 8 6 C5.20145256 9.29240875 1.79326725 11.03562946 -2 13 C-2.99 13 -3.98 13 -5 13 C-5 12.34 -5 11.68 -5 11 C-4.34 10.67 -3.68 10.34 -3 10 C-3.99 9.34 -4.98 8.68 -6 8 C-6.33 7.67 -6.66 7.34 -7 7 C-9.59256899 7.93545998 -9.59256899 7.93545998 -12 10 C-12.76381481 12.72714162 -12.85942648 15.14167178 -13 18 C-13.33 18 -13.66 18 -14 18 C-14.16852247 16.39602723 -14.33474886 14.7918131 -14.5 13.1875 C-14.5928125 12.29417969 -14.685625 11.40085937 -14.78125 10.48046875 C-15 8 -15 8 -15 5 C-12.98828125 3.359375 -12.98828125 3.359375 -10.3125 1.75 C-9.44238281 1.20859375 -8.57226562 0.6671875 -7.67578125 0.109375 C-4.54230675 -1.18975895 -3.15449573 -1.18226416 0 0 Z " fill="#E84D66" transform="translate(34,31)"/>
<path d="M0 0 C0.33 0 0.66 0 1 0 C1.66 10.23 2.32 20.46 3 31 C4.32 31.33 5.64 31.66 7 32 C7.33 25.4 7.66 18.8 8 12 C9.32 12.33 10.64 12.66 12 13 C11.34 13 10.68 13 10 13 C10.03665771 13.60996826 10.07331543 14.21993652 10.11108398 14.84838867 C10.2571067 17.62757325 10.34777265 20.40595225 10.4375 23.1875 C10.49615234 24.14720703 10.55480469 25.10691406 10.61523438 26.09570312 C10.78376844 33.05375242 10.78376844 33.05375242 8.51611328 35.79150391 C5.52479309 38.02259908 3.78726147 39 0 39 C0 26.13 0 13.26 0 0 Z " fill="#340318" transform="translate(30,45)"/>
<path d="M0 0 C3.34192692 0.24453124 4.60543557 0.60543557 7 3 C2.8803623 4.29243536 -0.66831683 5.26252625 -5 5 C-2.78065836 8.32901247 -1.65316671 8.75023244 2 10 C2 10.66 2 11.32 2 12 C2.969375 12.20625 3.93875 12.4125 4.9375 12.625 C10.86382237 14.29591037 15.65617669 18.28500733 20.5625 21.875 C24.13622801 23.52441293 27.08837923 23.19889597 31 23 C30.34 23.99 29.68 24.98 29 26 C23.38510253 26.71881538 20.3731229 25.47644175 15.75 22.375 C10.76270284 19.11568779 5.70876605 16.1345657 0.45703125 13.3203125 C-2.73142812 11.60695914 -5.86604365 9.81073033 -9 8 C-8.25 6.0625 -8.25 6.0625 -7 4 C-5.0625 3.4375 -5.0625 3.4375 -3 3 C-2.525625 2.46375 -2.05125 1.9275 -1.5625 1.375 C-0.7890625 0.694375 -0.7890625 0.694375 0 0 Z " fill="#4637A0" transform="translate(45,102)"/>
<path d="M0 0 C2.475 0.99 2.475 0.99 5 2 C6.63775391 2.56654297 6.63775391 2.56654297 8.30859375 3.14453125 C9.64083984 4.06298828 9.64083984 4.06298828 11 5 C11.27296618 7.75726507 11.26623889 9.96726018 11.0625 12.6875 C11.00800661 15.59338427 11.07456951 18.22883355 12 21 C14.30765584 22.89338252 15.94682232 24.01075893 18.5625 25.25 C22.140625 26.984375 22.140625 26.984375 25 29 C26.14599428 33.1880882 25.82499167 36.76927347 25 41 C22.5625 40.625 22.5625 40.625 20 40 C19.67 39.34 19.34 38.68 19 38 C20.32 38 21.64 38 23 38 C23 35.03 23 32.06 23 29 C22.154375 28.731875 21.30875 28.46375 20.4375 28.1875 C19.303125 27.795625 18.16875 27.40375 17 27 C15.7625 26.690625 14.525 26.38125 13.25 26.0625 C10 24 10 24 9.078125 21.5703125 C8.06990191 16.54282169 7.6439475 12.01739424 9 7 C8.01 6.67 7.02 6.34 6 6 C6 5.34 6 4.68 6 4 C4.35 3.67 2.7 3.34 1 3 C1 8.94 1 14.88 1 21 C0.67 21 0.34 21 0 21 C0 14.07 0 7.14 0 0 Z " fill="#BC4165" transform="translate(40,58)"/>
<path d="M0 0 C0 0.66 0 1.32 0 2 C-1.01320313 1.93039063 -1.01320313 1.93039063 -2.046875 1.859375 C-7.59216095 1.56362961 -7.59216095 1.56362961 -12.625 3.5625 C-14.51873159 6.91956963 -14.40045555 9.19567228 -14 13 C-13.1025173 15.83378132 -13.1025173 15.83378132 -12 18 C-10.58456585 18.19658808 -9.16755969 18.38187546 -7.75 18.5625 C-6.96109375 18.66691406 -6.1721875 18.77132812 -5.359375 18.87890625 C-2.86411365 19.0069743 -1.27391136 19.05854495 1 18 C2.14293555 15.68684675 2.14293555 15.68684675 2.75 12.9375 C2.99234375 12.01839844 3.2346875 11.09929687 3.484375 10.15234375 C3.65453125 9.44207031 3.8246875 8.73179688 4 8 C4.33 8 4.66 8 5 8 C5.144375 8.763125 5.28875 9.52625 5.4375 10.3125 C5.9632594 13.08172908 5.9632594 13.08172908 7 16 C3.70643992 19.53752749 0.30552315 21.84723842 -4 24 C-7.07620099 22.79149247 -10.0444357 21.47778215 -13 20 C-13 19.01 -13 18.02 -13 17 C-14.32 17 -15.64 17 -17 17 C-17.75995175 6.41133896 -17.75995175 6.41133896 -15.25 1.75 C-10.29590831 -0.91758783 -5.50902709 -0.39538472 0 0 Z " fill="#1C0E03" transform="translate(76,58)"/>
<path d="M0 0 C0.99 0.33 1.98 0.66 3 1 C3 13.54 3 26.08 3 39 C2.01 38.67 1.02 38.34 0 38 C0 25.46 0 12.92 0 0 Z " fill="#CB3378" transform="translate(17,38)"/>
<path d="M0 0 C3.81789562 0.53026328 6.20562157 1.30026512 9 4 C9.45410156 6.4519043 9.45410156 6.4519043 9.390625 9.32421875 C9.37773438 10.35224609 9.36484375 11.38027344 9.3515625 12.43945312 C9.31804687 13.51130859 9.28453125 14.58316406 9.25 15.6875 C9.23195313 16.77095703 9.21390625 17.85441406 9.1953125 18.97070312 C9.14813508 21.64802146 9.08232249 24.32356909 9 27 C8.01 27.33 7.02 27.66 6 28 C6 20.08 6 12.16 6 4 C2.7 4.33 -0.6 4.66 -4 5 C-3.67 4.34 -3.34 3.68 -3 3 C-2.34 3 -1.68 3 -1 3 C-0.67 2.01 -0.34 1.02 0 0 Z " fill="#35C4DF" transform="translate(115,34)"/>
<path d="M0 0 C0.66 0.33 1.32 0.66 2 1 C0.02 1.99 0.02 1.99 -2 3 C-2 3.66 -2 4.32 -2 5 C-1.34 5 -0.68 5 0 5 C-0.34584872 7.5592805 -0.68050391 9.52075586 -2.125 11.6875 C-4.86508705 13.60556094 -7.78028005 14.21025737 -11 15 C-11.5625 13.0625 -11.5625 13.0625 -12 11 C-11.67 10.67 -11.34 10.34 -11 10 C-11.66 9.34 -12.32 8.68 -13 8 C-8.8500395 4.2549137 -5.3022383 1.83539018 0 0 Z " fill="#ED5E54" transform="translate(46,24)"/>
<path d="M0 0 C1.875 1.5 1.875 1.5 3 3 C2.34 4.32 1.68 5.64 1 7 C1.825 7.45375 2.65 7.9075 3.5 8.375 C4.325 8.91125 5.15 9.4475 6 10 C6 10.66 6 11.32 6 12 C3.0280615 10.87548273 0.66559313 9.77706209 -2 8 C-4.93443402 8.26656572 -4.93443402 8.26656572 -8 9 C-9.423125 9.2784375 -9.423125 9.2784375 -10.875 9.5625 C-11.926875 9.7790625 -11.926875 9.7790625 -13 10 C-12.67 9.34 -12.34 8.68 -12 8 C-11.34 8 -10.68 8 -10 8 C-10 7.34 -10 6.68 -10 6 C-10.66 5.67 -11.32 5.34 -12 5 C-5.68820225 -1.01123596 -5.68820225 -1.01123596 0 0 Z " fill="#0D0D16" transform="translate(51,95)"/>
<path d="M0 0 C0.33 0 0.66 0 1 0 C1.33698829 4.99789553 1.65789845 9.99647721 1.96435547 14.99633789 C2.07068466 16.69485785 2.18129932 18.39311544 2.29638672 20.09106445 C2.46165333 22.54060302 2.61116458 24.99069091 2.7578125 27.44140625 C2.81188263 28.19273331 2.86595276 28.94406036 2.92166138 29.71815491 C3.19452818 34.60770778 2.58827091 38.36085854 1 43 C1.99 43 2.98 43 4 43 C4 43.66 4 44.32 4 45 C2.02 45.66 0.04 46.32 -2 47 C-2 46.34 -2 45.68 -2 45 C-1.34 45 -0.68 45 0 45 C-0.495 43.515 -0.495 43.515 -1 42 C-1.05881519 40.60253674 -1.05951743 39.2021449 -1.02172852 37.80395508 C-1.00163223 36.96331009 -0.98153595 36.1226651 -0.96083069 35.25654602 C-0.93379562 34.35333115 -0.90676056 33.45011627 -0.87890625 32.51953125 C-0.85529526 31.59154221 -0.83168427 30.66355316 -0.80735779 29.70744324 C-0.73075991 26.74230505 -0.64671871 23.77743058 -0.5625 20.8125 C-0.50927545 18.8027473 -0.45653507 16.79298171 -0.40429688 14.78320312 C-0.27514994 9.85530162 -0.13932693 4.92762377 0 0 Z " fill="#3773BB" transform="translate(111,52)"/>
<path d="M0 0 C3 2 3 2 3.4453125 3.98828125 C3.81167303 6.12900935 3.81167303 6.12900935 5.6796875 7.23046875 C11.76992498 9.88546552 17.37725527 10.75242076 24 11 C22.32967647 13.13430229 20.98937993 14.00429704 18.4609375 15.02734375 C13.04274816 14.98453639 9.20978825 12.26693644 4.625 9.5625 C3.69816406 9.03333984 2.77132812 8.50417969 1.81640625 7.95898438 C-0.46464745 6.6538454 -2.73578839 5.33407475 -5 4 C-4.360625 3.71125 -3.72125 3.4225 -3.0625 3.125 C-0.84793921 2.17176549 -0.84793921 2.17176549 0 0 Z " fill="#DE8F37" transform="translate(77,19)"/>
<path d="M0 0 C0.66 0.33 1.32 0.66 2 1 C2 1.99 2 2.98 2 4 C-9.51759871 11.11381097 -9.51759871 11.11381097 -14.7421875 10.7421875 C-20.29366348 8.91730785 -25.204947 5.27467034 -30 2 C-28 1 -28 1 -25.87109375 1.70703125 C-24.66646484 2.25423828 -24.66646484 2.25423828 -23.4375 2.8125 C-22.63183594 3.16957031 -21.82617188 3.52664062 -20.99609375 3.89453125 C-19 5 -19 5 -18 7 C-17.32453125 6.855625 -16.6490625 6.71125 -15.953125 6.5625 C-15.06109375 6.376875 -14.1690625 6.19125 -13.25 6 C-12.36828125 5.814375 -11.4865625 5.62875 -10.578125 5.4375 C-8 5 -8 5 -4 5 C-3.67 4.01 -3.34 3.02 -3 2 C-2.01 1.34 -1.02 0.68 0 0 Z " fill="#4931B5" transform="translate(85,116)"/>
<path d="M0 0 C0.66 0.33 1.32 0.66 2 1 C1.67 13.87 1.34 26.74 1 40 C5.95 37.525 5.95 37.525 11 35 C9 40 9 40 7 41 C5.45976004 41.06950541 3.91665012 41.08452357 2.375 41.0625 C1.14910156 41.04896484 1.14910156 41.04896484 -0.1015625 41.03515625 C-0.72804688 41.02355469 -1.35453125 41.01195312 -2 41 C-3.16063604 36.74433453 -2.76173392 33.3164922 -2 29 C-1.67 29 -1.34 29 -1 29 C-0.67 19.43 -0.34 9.86 0 0 Z " fill="#B5266B" transform="translate(29,44)"/>
<path d="M0 0 C2.55553771 1.20180659 4.9594872 2.60260239 7.375 4.0625 C8.33599609 4.62807617 8.33599609 4.62807617 9.31640625 5.20507812 C10.88254066 6.12839617 12.44198034 7.06305393 14 8 C9.43762177 9.44560748 6.50574468 8.40342867 2 7 C1.67 6.34 1.34 5.68 1 5 C0.01 4.67 -0.98 4.34 -2 4 C-2 3.34 -2 2.68 -2 2 C-2.79664062 2.34224609 -2.79664062 2.34224609 -3.609375 2.69140625 C-4.31578125 2.97886719 -5.0221875 3.26632813 -5.75 3.5625 C-6.44609375 3.85253906 -7.1421875 4.14257812 -7.859375 4.44140625 C-10.30012784 5.07831803 -11.6403655 4.80248831 -14 4 C-12.80681575 3.12479632 -11.5945121 2.2756291 -10.375 1.4375 C-9.70210938 0.96183594 -9.02921875 0.48617188 -8.3359375 -0.00390625 C-5.07880581 -1.39281692 -3.39594804 -0.96551464 0 0 Z " fill="#281204" transform="translate(74,23)"/>
<path d="M0 0 C0.66 0 1.32 0 2 0 C2.33 4.95 2.66 9.9 3 15 C5.31 15.33 7.62 15.66 10 16 C11.94090826 14.05909174 11.39919435 10.52706098 11.5625 7.9375 C11.64628906 6.64714844 11.73007813 5.35679688 11.81640625 4.02734375 C11.87699219 3.02832031 11.93757813 2.02929688 12 1 C12.33 1 12.66 1 13 1 C13 7.93 13 14.86 13 22 C8.49900996 20.87475249 5.11189644 19.12447983 1 17 C0.67 11.39 0.34 5.78 0 0 Z " fill="#3279AF" transform="translate(88,56)"/>
<path d="M0 0 C0 1.98 0 3.96 0 6 C-0.99 6.495 -0.99 6.495 -2 7 C-2 6.34 -2 5.68 -2 5 C-2.7425 5.45375 -3.485 5.9075 -4.25 6.375 C-8.94690265 9.15044248 -8.94690265 9.15044248 -11 10 C-11.66 9.67 -12.32 9.34 -13 9 C-13.625 6.4375 -13.625 6.4375 -14 4 C-12.68 4 -11.36 4 -10 4 C-10 3.01 -10 2.02 -10 1 C-6.61981469 -0.04005702 -3.5219721 -0.08004482 0 0 Z " fill="#16CEF2" transform="translate(121,38)"/>
<path d="M0 0 C-1.49884947 3.97940152 -3.74712589 5.43463485 -7.3125 7.625 C-8.25738281 8.21539062 -9.20226563 8.80578125 -10.17578125 9.4140625 C-12.74434486 10.85643709 -15.26416969 11.9276645 -18 13 C-18.99 13.66 -19.98 14.32 -21 15 C-23.1875 14.625 -23.1875 14.625 -25 14 C-20.69806123 10.67066816 -16.07656444 8.03168839 -11.375 5.3125 C-10.50359375 4.80138672 -9.6321875 4.29027344 -8.734375 3.76367188 C-7.48527344 3.03954102 -7.48527344 3.03954102 -6.2109375 2.30078125 C-5.45087402 1.85903564 -4.69081055 1.41729004 -3.90771484 0.9621582 C-2 0 -2 0 0 0 Z " fill="#CE655B" transform="translate(56,16)"/>
<path d="M0 0 C4.44115477 -0.17081364 7.09202617 0.04601308 11 2 C13.35564596 2.44811137 13.35564596 2.44811137 15.75 2.625 C16.54921875 2.69976562 17.3484375 2.77453125 18.171875 2.8515625 C18.77515625 2.90054688 19.3784375 2.94953125 20 3 C20.33 2.34 20.66 1.68 21 1 C24.0625 0.375 24.0625 0.375 27 0 C22.7333576 3.63919499 17.74666925 7.46093191 12 8 C8.984375 6.6015625 8.984375 6.6015625 5.75 4.625 C4.67234375 3.97789063 3.5946875 3.33078125 2.484375 2.6640625 C1.66453125 2.11492187 0.8446875 1.56578125 0 1 C0 0.67 0 0.34 0 0 Z " fill="#1A1A3F" transform="translate(57,107)"/>
<path d="M0 0 C1.32 0.66 2.64 1.32 4 2 C4 2.66 4 3.32 4 4 C5.32 3.67 6.64 3.34 8 3 C8.33 4.32 8.66 5.64 9 7 C9.99 7 10.98 7 12 7 C12 7.66 12 8.32 12 9 C13.98 9.66 15.96 10.32 18 11 C17.67 11.66 17.34 12.32 17 13 C11.89545207 12.4462522 8.03424443 9.97407204 3.6875 7.4375 C2.94693359 7.01275391 2.20636719 6.58800781 1.44335938 6.15039062 C-0.37468118 5.10648347 -2.18783748 4.05407808 -4 3 C-2.68 2.01 -1.36 1.02 0 0 Z " fill="#052329" transform="translate(80,34)"/>
<path d="M0 0 C-3.15545718 2.77297752 -6.06335418 4.53934703 -9.96484375 6.07421875 C-13.42337629 7.64748595 -16.56740901 9.75187128 -19.765625 11.79296875 C-22 13 -22 13 -25 13 C-22.83775087 6.73360921 -15.53012862 4.73540331 -10 2 C-9.23816406 1.61972656 -8.47632812 1.23945312 -7.69140625 0.84765625 C-3.42708333 -1.14236111 -3.42708333 -1.14236111 0 0 Z " fill="#4941B4" transform="translate(111,106)"/>
<path d="M0 0 C0.33 0 0.66 0 1 0 C1.72315557 8.8715692 2.11125923 17.63767804 1.96289062 26.53881836 C1.83195063 30.39519932 1.83195063 30.39519932 3 34 C5.52733235 34.65555119 5.52733235 34.65555119 8 35 C6.68 36.32 5.36 37.64 4 39 C1 38 1 38 -0.1875 36.125 C-1.65268232 32.29298469 -0.91363317 27.98001592 -0.78125 23.92578125 C-0.74795593 22.90003242 -0.74795593 22.90003242 -0.71398926 21.8535614 C-0.64311384 19.67319253 -0.5715655 17.49284632 -0.5 15.3125 C-0.45177854 13.83268374 -0.40360094 12.35286604 -0.35546875 10.87304688 C-0.23748773 7.2486812 -0.11890325 3.62433555 0 0 Z " fill="#D91887" transform="translate(20,61)"/>
<path d="M0 0 C0 0.99 0 1.98 0 3 C-2.60446248 5.50028398 -5.54041993 6.69436268 -8.8515625 8.0390625 C-13.37968318 10.06436739 -17.67256132 12.5819556 -22 15 C-22.99 14.34 -23.98 13.68 -25 13 C-22.60197588 11.49267055 -20.33357476 10.12635407 -17.6796875 9.12109375 C-14.64249026 7.8504296 -12.06708942 6.23756594 -9.3125 4.4375 C-2.49480249 0 -2.49480249 0 0 0 Z " fill="#4641B1" transform="translate(94,102)"/>
<path d="M0 0 C0 7.92 0 15.84 0 24 C-0.99 23.34 -1.98 22.68 -3 22 C-3.34057617 19.84521484 -3.34057617 19.84521484 -3.29296875 17.2109375 C-3.2784668 15.79941406 -3.2784668 15.79941406 -3.26367188 14.359375 C-3.23853516 13.37453125 -3.21339844 12.3896875 -3.1875 11.375 C-3.17396484 10.38242188 -3.16042969 9.38984375 -3.14648438 8.3671875 C-3.11105743 5.91091928 -3.06166196 3.45572715 -3 1 C-1 0 -1 0 0 0 Z " fill="#3B8DCD" transform="translate(124,61)"/>
<path d="M0 0 C1.9453125 -0.29296875 1.9453125 -0.29296875 4.125 -0.1875 C5.40375 -0.125625 6.6825 -0.06375 8 0 C7.42491699 0.27851807 6.84983398 0.55703613 6.25732422 0.84399414 C4.05899985 1.96978539 1.98088624 3.19410109 -0.1171875 4.49609375 C-1.27541016 5.21055664 -1.27541016 5.21055664 -2.45703125 5.93945312 C-4.0616162 6.93356997 -5.66578702 7.92835557 -7.26953125 8.92382812 C-16.1419909 14.39345591 -16.1419909 14.39345591 -20 16 C-20.99 15.67 -21.98 15.34 -23 15 C-19.67692308 11.06153846 -19.67692308 11.06153846 -16.25 10.75 C-15.5075 10.8325 -14.765 10.915 -14 11 C-14 10.34 -14 9.68 -14 9 C-13.15695313 8.60167969 -12.31390625 8.20335937 -11.4453125 7.79296875 C-10.34960938 7.26316406 -9.25390625 6.73335937 -8.125 6.1875 C-7.03445312 5.66542969 -5.94390625 5.14335937 -4.8203125 4.60546875 C-1.77778598 3.15275103 -1.77778598 3.15275103 0 0 Z " fill="#D77C44" transform="translate(64,21)"/>
<path d="M0 0 C3.34192692 0.24453124 4.60543557 0.60543557 7 3 C2.8803623 4.29243536 -0.66831683 5.26252625 -5 5 C-2.78065836 8.32901247 -1.65316671 8.75023244 2 10 C1.67 11.32 1.34 12.64 1 14 C-2.3 12.02 -5.6 10.04 -9 8 C-8.34 6.68 -7.68 5.36 -7 4 C-5.0625 3.4375 -5.0625 3.4375 -3 3 C-2.525625 2.46375 -2.05125 1.9275 -1.5625 1.375 C-0.7890625 0.694375 -0.7890625 0.694375 0 0 Z " fill="#41439E" transform="translate(45,102)"/>
<path d="M0 0 C0 0.99 0 1.98 0 3 C-0.99 3.33 -1.98 3.66 -3 4 C-3.33 5.65 -3.66 7.3 -4 9 C-5.299375 8.979375 -6.59875 8.95875 -7.9375 8.9375 C-9.29165633 8.91600546 -10.64756083 8.92851801 -12 9 C-12.33 9.33 -12.66 9.66 -13 10 C-14.66617115 10.04063832 -16.33388095 10.042721 -18 10 C-18.33 9.01 -18.66 8.02 -19 7 C-18.28199219 7.06058594 -17.56398438 7.12117188 -16.82421875 7.18359375 C-13.39601665 6.96073691 -11.68517182 5.90952803 -8.8125 4.0625 C-7.95269531 3.51722656 -7.09289062 2.97195312 -6.20703125 2.41015625 C-5.47871094 1.94480469 -4.75039062 1.47945312 -4 1 C-2 0 -2 0 0 0 Z " fill="#26B8DA" transform="translate(111,39)"/>
<path d="M0 0 C6.75 2.25 6.75 2.25 9 5 C8.21625 5.061875 7.4325 5.12375 6.625 5.1875 C5.75875 5.455625 4.8925 5.72375 4 6 C2.62533375 8.47636012 2.62533375 8.47636012 2 11 C3.32 10.67 4.64 10.34 6 10 C6.33 11.98 6.66 13.96 7 16 C2.25 14.125 2.25 14.125 0 13 C0 8.71 0 4.42 0 0 Z " fill="#2BBFE1" transform="translate(76,37)"/>
<path d="M0 0 C3.36525621 0.46417327 5.40608501 1.86928411 8 4 C6.783125 3.9175 5.56625 3.835 4.3125 3.75 C-0.04613534 3.73467966 -1.74228682 5.08520399 -5 8 C-7 8.66666667 -9 9.33333333 -11 10 C-11.99 11.485 -11.99 11.485 -13 13 C-13.99 12.67 -14.98 12.34 -16 12 C-14.50761149 7.52283447 -11.4938511 6.36516504 -7.4375 4.3125 C-3.46201198 2.51557352 -3.46201198 2.51557352 0 0 Z " fill="#3A0420" transform="translate(44,89)"/>
<path d="M0 0 C3.12290635 0.48578543 5.99580359 0.9986012 9 2 C9.33 6.62 9.66 11.24 10 16 C11.32 16.33 12.64 16.66 14 17 C14.66 13.04 15.32 9.08 16 5 C16.33 5 16.66 5 17 5 C17 9.29 17 13.58 17 18 C13 20 13 20 10.3125 19.4375 C8 18 8 18 7.1875 16 C6.91647344 11.66357508 6.92410231 7.34303453 7 3 C5.824375 2.814375 5.824375 2.814375 4.625 2.625 C2 2 2 2 0 0 Z " fill="#2D9ADF" transform="translate(83,53)"/>
<path d="M0 0 C6.75 0.75 6.75 0.75 9 3 C9.14517744 5.9093558 9.18630796 8.719946 9.125 11.625 C9.11597656 12.42679688 9.10695313 13.22859375 9.09765625 14.0546875 C9.07406223 16.03658523 9.03819065 18.01832981 9 20 C10.98 20.66 12.96 21.32 15 22 C15 22.66 15 23.32 15 24 C12.0280615 22.87548273 9.66559313 21.77706209 7 20 C6.77892213 17.2114711 6.71892465 14.65346819 6.8125 11.875 C6.82603516 11.12089844 6.83957031 10.36679688 6.85351562 9.58984375 C6.88890015 7.72625873 6.94270833 5.86304022 7 4 C6.030625 3.71125 5.06125 3.4225 4.0625 3.125 C1 2 1 2 0 0 Z " fill="#2D060D" transform="translate(44,59)"/>
<path d="M0 0 C1.32 0.33 2.64 0.66 4 1 C3.67 2.32 3.34 3.64 3 5 C6.465 4.505 6.465 4.505 10 4 C7.20145256 7.29240875 3.79326725 9.03562946 0 11 C-0.99 11 -1.98 11 -3 11 C-3 10.34 -3 9.68 -3 9 C-2.34 8.67 -1.68 8.34 -1 8 C-1.99 7.34 -2.98 6.68 -4 6 C-3.67 5.01 -3.34 4.02 -3 3 C-2.34 3 -1.68 3 -1 3 C-0.67 2.01 -0.34 1.02 0 0 Z " fill="#ED4D5E" transform="translate(32,33)"/>
<path d="M0 0 C0.99 0.33 1.98 0.66 3 1 C3 3.97 3 6.94 3 10 C-1.67461851 10.32613618 -4.16674383 9.70582788 -8 7 C-6.68 6.67 -5.36 6.34 -4 6 C-4 5.34 -4 4.68 -4 4 C-3.34 4 -2.68 4 -2 4 C-1.34 2.68 -0.68 1.36 0 0 Z " fill="#DA3370" transform="translate(60,86)"/>
<path d="M0 0 C0.99 0.33 1.98 0.66 3 1 C3 6.66666667 3 12.33333333 3 18 C3.32380126 19.33568021 3.65657551 20.66923011 4 22 C2.68 22 1.36 22 0 22 C0 14.74 0 7.48 0 0 Z " fill="#C52181" transform="translate(17,76)"/>
<path d="M0 0 C1.65 0.33 3.3 0.66 5 1 C5.1875 3.3125 5.1875 3.3125 5 6 C4.5153125 6.433125 4.030625 6.86625 3.53125 7.3125 C1.38410709 9.67873912 1.49756416 11.54140924 1.3125 14.6875 C1.21388672 16.17830078 1.21388672 16.17830078 1.11328125 17.69921875 C1.05720703 18.83810547 1.05720703 18.83810547 1 20 C0.01 20 -0.98 20 -2 20 C-1.67 19.34 -1.34 18.68 -1 18 C-0.84995027 16.6265365 -0.75161994 15.2471474 -0.68359375 13.8671875 C-0.64169922 13.06152344 -0.59980469 12.25585938 -0.55664062 11.42578125 C-0.51732422 10.58402344 -0.47800781 9.74226563 -0.4375 8.875 C-0.39431641 8.02550781 -0.35113281 7.17601563 -0.30664062 6.30078125 C-0.20045764 4.20071777 -0.09971503 2.10038052 0 0 Z " fill="#E13971" transform="translate(41,61)"/>
<path d="M0 0 C1.64703306 0.81006526 3.29259506 1.6231221 4.9375 2.4375 C5.85402344 2.88996094 6.77054688 3.34242187 7.71484375 3.80859375 C10 5 10 5 11 6 C11.07244053 8.01964199 11.08377188 10.04167124 11.0625 12.0625 C11.05347656 13.16722656 11.04445313 14.27195312 11.03515625 15.41015625 C11.02355469 16.26480469 11.01195313 17.11945313 11 18 C8.5625 17.625 8.5625 17.625 6 17 C5.67 16.34 5.34 15.68 5 15 C6.32 15 7.64 15 9 15 C9 12.03 9 9.06 9 6 C7.6078125 5.566875 7.6078125 5.566875 6.1875 5.125 C3 4 3 4 0 2 C0 1.34 0 0.68 0 0 Z " fill="#B23C66" transform="translate(54,81)"/>
<path d="M0 0 C0.99 0.66 1.98 1.32 3 2 C3.29296875 5.0390625 3.29296875 5.0390625 3.1875 8.625 C3.16042969 9.81351563 3.13335937 11.00203125 3.10546875 12.2265625 C3.07066406 13.14179687 3.03585938 14.05703125 3 15 C1.02 15.99 1.02 15.99 -1 17 C-1.66 16.34 -2.32 15.68 -3 15 C-2.01 15 -1.02 15 0 15 C0 10.05 0 5.1 0 0 Z " fill="#4070C2" transform="translate(121,83)"/>
<path d="M0 0 C0.33 0.99 0.66 1.98 1 3 C0.071875 3.433125 -0.85625 3.86625 -1.8125 4.3125 C-4.47184073 5.72038627 -6.08105905 6.76123556 -8 9 C-9.98 8.34 -11.96 7.68 -14 7 C-14 6.34 -14 5.68 -14 5 C-14.66 5 -15.32 5 -16 5 C-15.67 4.34 -15.34 3.68 -15 3 C-13.7315625 3.37125 -13.7315625 3.37125 -12.4375 3.75 C-7.09788833 4.13833539 -4.88863565 0 0 0 Z " fill="#231504" transform="translate(105,29)"/>
<path d="M0 0 C2.75903196 2.24171347 3.90469787 3.36011426 4.4375 6.9375 C3.84273122 11.10088145 2.58496811 13.75466791 -0.75 16.375 C-4.00137649 17.27816014 -6.72834637 16.62916416 -10 16 C-10 15.67 -10 15.34 -10 15 C-7.36 15 -4.72 15 -2 15 C-2 14.01 -2 13.02 -2 12 C-0.68 11.67 0.64 11.34 2 11 C1.34 7.37 0.68 3.74 0 0 Z " fill="#D19B3B" transform="translate(76,61)"/>
<path d="M0 0 C1.65 0.33 3.3 0.66 5 1 C5.6875 3.25 5.6875 3.25 6 6 C4.5625 8.3125 4.5625 8.3125 3 10 C2.34 9.34 1.68 8.68 1 8 C1.33 7.34 1.66 6.68 2 6 C0.68 6.33 -0.64 6.66 -2 7 C-1.125 2.25 -1.125 2.25 0 0 Z " fill="#1AC7F0" transform="translate(80,41)"/>
<path d="M0 0 C-3.75 3 -3.75 3 -6 3 C-6 3.66 -6 4.32 -6 5 C-9.1999003 8.01704885 -11.61537866 9.49890042 -16 10 C-15.8671875 8.23828125 -15.8671875 8.23828125 -15 6 C-12.3828125 4.04296875 -12.3828125 4.04296875 -9.125 2.1875 C-8.05507813 1.56230469 -6.98515625 0.93710938 -5.8828125 0.29296875 C-3 -1 -3 -1 0 0 Z " fill="#CB803D" transform="translate(72,8)"/>
<path d="M0 0 C0.99 0 1.98 0 3 0 C2 3 2 3 0.328125 4.1328125 C-3.44440042 5.93398065 -6.82041399 7.41950194 -11 8 C-12.33542939 8.32483418 -13.66961551 8.6550855 -15 9 C-14.67 8.01 -14.34 7.02 -14 6 C-12.68 6 -11.36 6 -10 6 C-10 5.34 -10 4.68 -10 4 C-9.36191406 3.79503906 -8.72382812 3.59007813 -8.06640625 3.37890625 C-7.24011719 3.10949219 -6.41382812 2.84007813 -5.5625 2.5625 C-4.73878906 2.29566406 -3.91507813 2.02882813 -3.06640625 1.75390625 C-1.03780412 1.17844506 -1.03780412 1.17844506 0 0 Z " fill="#4455BB" transform="translate(117,99)"/>
<path d="M0 0 C0 1.65 0 3.3 0 5 C-0.75925781 5.19335938 -1.51851562 5.38671875 -2.30078125 5.5859375 C-3.29464844 5.84632812 -4.28851563 6.10671875 -5.3125 6.375 C-6.79169922 6.75785156 -6.79169922 6.75785156 -8.30078125 7.1484375 C-11.1805816 7.91913174 -11.1805816 7.91913174 -14 10 C-14.99 9.67 -15.98 9.34 -17 9 C-14.54481265 7.49462965 -12.0861548 5.99555574 -9.625 4.5 C-8.92632812 4.07074219 -8.22765625 3.64148438 -7.5078125 3.19921875 C-2.2265625 0 -2.2265625 0 0 0 Z " fill="#3B56AA" transform="translate(111,92)"/>
<path d="M0 0 C1.03125 0.33 2.0625 0.66 3.125 1 C6.48426709 1.9715192 9.49106202 2.17116771 13 2 C11.14255768 4.37339853 10.02152312 4.9940468 7.0625 5.8125 C3.87118581 6.00788658 2.54475528 5.88500391 0 4 C-0.33 3.01 -0.66 2.02 -1 1 C-0.67 0.67 -0.34 0.34 0 0 Z " fill="#E59C36" transform="translate(88,28)"/>
<path d="M0 0 C-1.372838 3.36840664 -2.59829645 4.6920202 -5.875 6.25 C-6.55304687 6.58515625 -7.23109375 6.9203125 -7.9296875 7.265625 C-10 8 -10 8 -14 8 C-10.30915494 3.86625354 -5.74086742 0 0 0 Z " fill="#C94A68" transform="translate(32,30)"/>
<path d="M0 0 C0.66 0.66 1.32 1.32 2 2 C-0.67114182 2.6105467 -2.87763047 3.00874068 -5.625 2.8125 C-8.11809845 2.75627177 -8.11809845 2.75627177 -9.75 4.6875 C-11.08182447 7.15137528 -11.61629106 9.23729565 -12 12 C-12.33 12 -12.66 12 -13 12 C-13.41668469 7.74981621 -13.44022082 5.64657432 -11 2.0625 C-6.91563693 -0.74549961 -4.87833311 -0.55980872 0 0 Z " fill="#DB9F36" transform="translate(74,59)"/>
<path d="M0 0 C-0.1875 1.8125 -0.1875 1.8125 -1 4 C-5.17857143 7 -5.17857143 7 -8 7 C-8.33 7.66 -8.66 8.32 -9 9 C-9.33 7.68 -9.66 6.36 -10 5 C-8.71186658 4.16121545 -7.41936744 3.32913217 -6.125 2.5 C-5.40570313 2.0359375 -4.68640625 1.571875 -3.9453125 1.09375 C-2 0 -2 0 0 0 Z " fill="#28080B" transform="translate(41,39)"/>
<path d="M0 0 C-1.39935885 3.40364888 -2.87004732 4.90806188 -6 6.8125 C-7.051875 7.47185547 -7.051875 7.47185547 -8.125 8.14453125 C-8.74375 8.42683594 -9.3625 8.70914062 -10 9 C-10.66 8.67 -11.32 8.34 -12 8 C-10.77974937 4.3392481 -9.873509 4.07660559 -6.5625 2.3125 C-5.75941406 1.87550781 -4.95632812 1.43851563 -4.12890625 0.98828125 C-2 0 -2 0 0 0 Z " fill="#DB7A54" transform="translate(56,16)"/>
<path d="M0 0 C1.32 0.33 2.64 0.66 4 1 C-10.20081967 10 -10.20081967 10 -13 10 C-13 9.34 -13 8.68 -13 8 C-7.25 5 -7.25 5 -5 5 C-5 4.34 -5 3.68 -5 3 C-3.35 2.67 -1.7 2.34 0 2 C0 1.34 0 0.68 0 0 Z " fill="#070E2F" transform="translate(96,97)"/>
<path d="M0 0 C2.27467581 1.09677235 4.54454524 2.20198422 6.8125 3.3125 C7.45509766 3.62123047 8.09769531 3.92996094 8.75976562 4.24804688 C11.95607616 5.82136035 14.70577107 7.22816208 17 10 C12.87248551 9.39301257 9.6678852 7.96189209 6 6 C6 5.34 6 4.68 6 4 C4.35 3.67 2.7 3.34 1 3 C0.67 2.01 0.34 1.02 0 0 Z " fill="#4744AD" transform="translate(52,105)"/>
<path d="M0 0 C0.33 0 0.66 0 1 0 C1.33 4.95 1.66 9.9 2 15 C3.98 15.66 5.96 16.32 8 17 C8 17.66 8 18.32 8 19 C5.0280615 17.87548273 2.66559313 16.77706209 0 15 C-0.22137393 12.37302936 -0.28162025 9.99106036 -0.1875 7.375 C-0.17396484 6.66859375 -0.16042969 5.9621875 -0.14648438 5.234375 C-0.1111104 3.48925872 -0.05730221 1.74453392 0 0 Z " fill="#571327" transform="translate(51,64)"/>
<path d="M0 0 C-1.92989218 1.19982444 -3.86919228 2.38452818 -5.8125 3.5625 C-7.43091797 4.55443359 -7.43091797 4.55443359 -9.08203125 5.56640625 C-12 7 -12 7 -15 6 C-11.67692308 2.06153846 -11.67692308 2.06153846 -8.25 1.75 C-7.5075 1.8325 -6.765 1.915 -6 2 C-6 1.34 -6 0.68 -6 0 C-3 -1 -3 -1 0 0 Z " fill="#CF6751" transform="translate(56,30)"/>
<path d="M0 0 C3.0831351 1.19899698 6.06279492 2.47700477 9 4 C9 4.99 9 5.98 9 7 C7.68 7.33 6.36 7.66 5 8 C4.67 7.01 4.34 6.02 4 5 C1.99983534 3.79117904 1.99983534 3.79117904 0 3 C0 2.01 0 1.02 0 0 Z " fill="#C09140" transform="translate(96,22)"/>
<path d="M0 0 C0.33 0 0.66 0 1 0 C1.12117188 0.92683594 1.24234375 1.85367188 1.3671875 2.80859375 C1.53476562 4.00613281 1.70234375 5.20367187 1.875 6.4375 C2.03742187 7.63246094 2.19984375 8.82742187 2.3671875 10.05859375 C2.57601562 11.02925781 2.78484375 11.99992187 3 13 C3.66 13.33 4.32 13.66 5 14 C5 14.66 5 15.32 5 16 C3.68 16 2.36 16 1 16 C0.63409254 14.27327966 0.28277805 12.54346345 -0.0625 10.8125 C-0.35833984 9.36810547 -0.35833984 9.36810547 -0.66015625 7.89453125 C-1.00423947 4.96389138 -0.74164697 2.83692932 0 0 Z " fill="#D33D6C" transform="translate(49,66)"/>
<path d="M0 0 C3.45925163 1.2491742 6.14693203 2.67527795 9 5 C7.14375 4.9690625 7.14375 4.9690625 5.25 4.9375 C2.3359175 4.93233319 -0.20953327 5.06984442 -3 6 C-1.125 1.125 -1.125 1.125 0 0 Z " fill="#051A22" transform="translate(76,50)"/>
<path d="M0 0 C4.75 0.75 4.75 0.75 7 3 C-0.42857143 5.42857143 -0.42857143 5.42857143 -4 4 C-3.01 3.67 -2.02 3.34 -1 3 C-0.67 2.01 -0.34 1.02 0 0 Z " fill="#30B6CC" transform="translate(115,34)"/>
<path d="M0 0 C2.3125 0.9375 2.3125 0.9375 4.3125 2.9375 C0.1928623 4.22993536 -3.35581683 5.20002625 -7.6875 4.9375 C-3.40496385 -0.07918521 -3.40496385 -0.07918521 0 0 Z " fill="#404DAE" transform="translate(47.6875,102.0625)"/>
<path d="M0 0 C1.98 0 3.96 0 6 0 C6.33 1.32 6.66 2.64 7 4 C4.03 3.505 4.03 3.505 1 3 C1 3.66 1 4.32 1 5 C1.99 5.33 2.98 5.66 4 6 C2.68 6 1.36 6 0 6 C0 4.02 0 2.04 0 0 Z " fill="#E6A132" transform="translate(89,20)"/>
<path d="M0 0 C3.43752007 1.5277867 6.18953688 3.50181056 9 6 C9 6.66 9 7.32 9 8 C5.2089881 6.55049545 1.6125362 4.84827434 -2 3 C-1.34 2.01 -0.68 1.02 0 0 Z " fill="#101132" transform="translate(48,99)"/>
<path d="M0 0 C0.9075 0.350625 1.815 0.70125 2.75 1.0625 C5.87758436 1.96468779 7.05208081 2.13381507 10 1 C9.34 2.32 8.68 3.64 8 5 C4.625 4.6875 4.625 4.6875 1 4 C0.34 3.01 -0.32 2.02 -1 1 C-0.67 0.67 -0.34 0.34 0 0 Z " fill="#AF2272" transform="translate(19,97)"/>
<path d="M0 0 C0.33 0.66 0.66 1.32 1 2 C1.66 2 2.32 2 3 2 C3 4.64 3 7.28 3 10 C2.01 10.33 1.02 10.66 0 11 C0 7.37 0 3.74 0 0 Z " fill="#35A9DC" transform="translate(121,51)"/>
<path d="M0 0 C-1.59910868 1.00806851 -3.20448262 2.00620385 -4.8125 3 C-6.15248047 3.8353125 -6.15248047 3.8353125 -7.51953125 4.6875 C-10 6 -10 6 -13 6 C-13 5.34 -13 4.68 -13 4 C-10 2 -10 2 -6 2 C-6 1.34 -6 0.68 -6 0 C-3 -1 -3 -1 0 0 Z " fill="#CB5061" transform="translate(42,38)"/>
<path d="M0 0 C0.99 0.33 1.98 0.66 3 1 C3 1.66 3 2.32 3 3 C-3.75 7 -3.75 7 -6 7 C-6 6.34 -6 5.68 -6 5 C-5.34 5 -4.68 5 -4 5 C-3.71125 4.360625 -3.4225 3.72125 -3.125 3.0625 C-2 1 -2 1 0 0 Z " fill="#022425" transform="translate(111,34)"/>
<path d="M0 0 C-0.61875 0.28875 -1.2375 0.5775 -1.875 0.875 C-4.13325765 1.93720042 -4.13325765 1.93720042 -6 4 C-7.31747324 4.69748583 -8.64914193 5.36959957 -10 6 C-10.66 4.68 -11.32 3.36 -12 2 C-7.82262526 0.40861915 -4.46839215 -0.21278058 0 0 Z " fill="#444ACD" transform="translate(52,105)"/>
<path d="M0 0 C0.99 0.66 1.98 1.32 3 2 C3 2.66 3 3.32 3 4 C2.2575 3.649375 1.515 3.29875 0.75 2.9375 C-2.22700644 1.92261144 -3.12367895 1.97936995 -6 3 C-7.33333333 3.33333333 -8.66666667 3.66666667 -10 4 C-10 3.01 -10 2.02 -10 1 C-6.60907078 -0.04336284 -3.5382677 -0.22584687 0 0 Z " fill="#C02B70" transform="translate(49,88)"/>
<path d="M0 0 C0.99 0.495 0.99 0.495 2 1 C1.67 4.63 1.34 8.26 1 12 C3.97 12.495 3.97 12.495 7 13 C7 13.99 7 14.98 7 16 C2.25 14.125 2.25 14.125 0 13 C0 8.71 0 4.42 0 0 Z " fill="#2993AF" transform="translate(76,37)"/>
<path d="M0 0 C1.09570312 0.00902344 2.19140625 0.01804688 3.3203125 0.02734375 C4.16335937 0.03894531 5.00640625 0.05054688 5.875 0.0625 C5.875 0.7225 5.875 1.3825 5.875 2.0625 C5.19953125 2.02769531 4.5240625 1.99289063 3.828125 1.95703125 C2.93609375 1.92996094 2.0440625 1.90289062 1.125 1.875 C0.24328125 1.84019531 -0.6384375 1.80539063 -1.546875 1.76953125 C-4.57171583 2.11326316 -5.88083602 3.06477459 -8.125 5.0625 C-8.125 3.7425 -8.125 2.4225 -8.125 1.0625 C-5.36047967 -0.31976016 -3.0788637 -0.03275387 0 0 Z " fill="#341A03" transform="translate(70.125,57.9375)"/>
<path d="M0 0 C1.79206547 0.14084796 3.58364917 0.28783701 5.375 0.4375 C6.87160156 0.55931641 6.87160156 0.55931641 8.3984375 0.68359375 C11 1 11 1 13 2 C11 4 11 4 7.625 4.375 C4 4 4 4 1.5625 2 C1.046875 1.34 0.53125 0.68 0 0 Z " fill="#452A9A" transform="translate(63,124)"/>
<path d="M0 0 C0.33 0 0.66 0 1 0 C1.144375 0.763125 1.28875 1.52625 1.4375 2.3125 C1.9632594 5.08172908 1.9632594 5.08172908 3 8 C1.35 8.33 -0.3 8.66 -2 9 C-2 9.66 -2 10.32 -2 11 C-2.99 10.67 -3.98 10.34 -5 10 C-4.34 10 -3.68 10 -3 10 C-2.01 6.7 -1.02 3.4 0 0 Z " fill="#2F1C05" transform="translate(80,66)"/>
<path d="M0 0 C3.12290635 0.48578543 5.99580359 0.9986012 9 2 C8.67 5.63 8.34 9.26 8 13 C7.67 13 7.34 13 7 13 C7 9.7 7 6.4 7 3 C5.824375 2.814375 5.824375 2.814375 4.625 2.625 C2 2 2 2 0 0 Z " fill="#319ECB" transform="translate(83,53)"/>
<path d="M0 0 C0.99 0.33 1.98 0.66 3 1 C3 2.65 3 4.3 3 6 C1.02 6.99 1.02 6.99 -1 8 C-1.66 7.34 -2.32 6.68 -3 6 C-2.01 6 -1.02 6 0 6 C0 4.02 0 2.04 0 0 Z " fill="#4163BE" transform="translate(121,92)"/>
<path d="M0 0 C0 1.32 0 2.64 0 4 C-3.73487777 3.5020163 -5.81237635 3.12508244 -9 1 C-5.8035914 -0.06546953 -3.34252724 -0.07427838 0 0 Z " fill="#3764D4" transform="translate(121,93)"/>
<path d="M0 0 C0.33 1.32 0.66 2.64 1 4 C1.66 4 2.32 4 3 4 C3.33 6.31 3.66 8.62 4 11 C3.34 11 2.68 11 2 11 C-0.67927341 6.98108988 -0.15601248 4.75838077 0 0 Z " fill="#E7A833" transform="translate(62,65)"/>
<path d="M0 0 C5.75 1.75 5.75 1.75 8 4 C5 5 5 5 2 4 C0.33637583 3.65179959 -1.32995171 3.31595508 -3 3 C-2.01 2.01 -1.02 1.02 0 0 Z " fill="#D99A40" transform="translate(71,8)"/>
<path d="M0 0 C0 0.99 0 1.98 0 3 C-2 4.6875 -2 4.6875 -4 6 C-4 5.34 -4 4.68 -4 4 C-5.65 4.33 -7.3 4.66 -9 5 C-6.45523312 2.20075644 -3.92372883 0 0 0 Z " fill="#3A45A3" transform="translate(94,102)"/>
<path d="M0 0 C0.33 0.99 0.66 1.98 1 3 C-3.625 6 -3.625 6 -7 6 C-6.67 4.68 -6.34 3.36 -6 2 C-4.02 2 -2.04 2 0 2 C0 1.34 0 0.68 0 0 Z " fill="#290015" transform="translate(38,77)"/>
<path d="M0 0 C1.485 0.99 1.485 0.99 3 2 C2.01 2.66 1.02 3.32 0 4 C0 2.68 0 1.36 0 0 Z M-5 4 C-3.35 4 -1.7 4 0 4 C-0.33 5.65 -0.66 7.3 -1 9 C-2.32 7.35 -3.64 5.7 -5 4 Z " fill="#251908" transform="translate(81,56)"/>
<path d="M0 0 C2.97 0.33 5.94 0.66 9 1 C8.34 2.32 7.68 3.64 7 5 C5.35 4.67 3.7 4.34 2 4 C2 3.34 2 2.68 2 2 C1.34 2 0.68 2 0 2 C0 1.34 0 0.68 0 0 Z " fill="#3B2107" transform="translate(89,32)"/>
<path d="M0 0 C2.64 0.33 5.28 0.66 8 1 C8.33 2.32 8.66 3.64 9 5 C5.54074837 3.7508258 2.85306797 2.32472205 0 0 Z " fill="#CD8936" transform="translate(79,26)"/>
<path d="M0 0 C1.32 0 2.64 0 4 0 C3.67 1.32 3.34 2.64 3 4 C2.34 4 1.68 4 1 4 C0.67 4.99 0.34 5.98 0 7 C-0.38133299 5.0085944 -0.71325582 3.00720923 -1 1 C-0.67 0.67 -0.34 0.34 0 0 Z " fill="#F88436" transform="translate(58,17)"/>
<path d="M0 0 C0.33 0.66 0.66 1.32 1 2 C0.525625 2.556875 0.05125 3.11375 -0.4375 3.6875 C-2.12395996 6.18346074 -2.58953107 8.0446237 -3 11 C-3.33 11 -3.66 11 -4 11 C-4.49230769 4.6 -4.49230769 4.6 -2 1.5625 C-1.34 1.046875 -0.68 0.53125 0 0 Z " fill="#C08B36" transform="translate(65,60)"/>
<path d="M0 0 C1.98 0 3.96 0 6 0 C0.85714286 4.42857143 0.85714286 4.42857143 -3 5 C-3 4.34 -3 3.68 -3 3 C-2.01 3 -1.02 3 0 3 C0 2.01 0 1.02 0 0 Z " fill="#2DA4C8" transform="translate(105,51)"/>
<path d="M0 0 C0.66 0.33 1.32 0.66 2 1 C1.01 2.485 1.01 2.485 0 4 C-2.625 4.1875 -2.625 4.1875 -5 4 C-5.33 3.01 -5.66 2.02 -6 1 C-4.7934375 1.0309375 -4.7934375 1.0309375 -3.5625 1.0625 C-1.06645115 1.29633621 -1.06645115 1.29633621 0 0 Z " fill="#2BAED1" transform="translate(98,45)"/>
<path d="M0 0 C0.33 0.66 0.66 1.32 1 2 C1.66 2 2.32 2 3 2 C3 3.98 3 5.96 3 8 C2.34 8 1.68 8 1 8 C-0.35439668 5.29120665 -0.06501451 2.99066732 0 0 Z " fill="#33B8DC" transform="translate(121,45)"/>
<path d="M0 0 C0.66 0 1.32 0 2 0 C1.690625 0.495 1.38125 0.99 1.0625 1.5 C-0.41644382 4.97986781 -0.62402851 8.24028509 -1 12 C-1.33 12 -1.66 12 -2 12 C-2.05395478 10.37536158 -2.09277195 8.75021459 -2.125 7.125 C-2.14820312 6.22007813 -2.17140625 5.31515625 -2.1953125 4.3828125 C-2 2 -2 2 0 0 Z " fill="#DF406E" transform="translate(22,37)"/>
<path d="M0 0 C0.99 0.33 1.98 0.66 3 1 C0.75 3.0625 0.75 3.0625 -2 5 C-4.3125 4.75 -4.3125 4.75 -6 4 C-3.1875 1.9375 -3.1875 1.9375 0 0 Z " fill="#4246A6" transform="translate(108,105)"/>
<path d="M0 0 C0.33 1.32 0.66 2.64 1 4 C-0.98 4.33 -2.96 4.66 -5 5 C-4.67 3.68 -4.34 2.36 -4 1 C-2.02 1.495 -2.02 1.495 0 2 C0 1.34 0 0.68 0 0 Z " fill="#0E090A" transform="translate(37,75)"/>
<path d="M0 0 C-0.8125 1.9375 -0.8125 1.9375 -2 4 C-2.99 4.33 -3.98 4.66 -5 5 C-5.33 4.01 -5.66 3.02 -6 2 C-3 0 -3 0 0 0 Z " fill="#CC5868" transform="translate(32,30)"/>
<path d="M0 0 C3.96 1.98 3.96 1.98 8 4 C4 5 4 5 1.75 4.0625 C1.1725 3.711875 0.595 3.36125 0 3 C0 2.01 0 1.02 0 0 Z " fill="#2D1602" transform="translate(80,27)"/>
</svg>
